<svg width="973" height="730" viewBox="0 0 973 730" fill="none" xmlns="http://www.w3.org/2000/svg">
<path d="M643.855 466.652L645.971 188.374H523.349L362.22 322.429H305.251V628.851H726.414V475.628L643.855 466.652Z" fill="#033649"/>
<path d="M726.416 630.018H305.253C304.931 630.018 304.621 629.89 304.393 629.661C304.165 629.433 304.037 629.124 304.037 628.801V322.306C304.037 321.984 304.165 321.675 304.393 321.446C304.621 321.218 304.931 321.09 305.253 321.09H361.785L522.573 187.303C522.787 187.111 523.064 187.007 523.351 187.011H645.974C646.294 187.018 646.599 187.149 646.825 187.376C646.944 187.488 647.038 187.624 647.1 187.775C647.163 187.926 647.194 188.088 647.19 188.251L645.074 465.556L726.538 474.338C726.835 474.368 727.111 474.505 727.312 474.725C727.514 474.945 727.628 475.231 727.633 475.53V628.777C727.633 629.102 727.505 629.414 727.278 629.646C727.051 629.878 726.741 630.011 726.416 630.018ZM306.494 627.585H725.2V476.77L643.711 467.916C643.413 467.885 643.136 467.743 642.938 467.518C642.739 467.292 642.633 467 642.641 466.7L644.757 189.638H523.789L363.001 323.425C362.777 323.596 362.504 323.69 362.223 323.693H306.494V627.585Z" fill="#033649"/>
<path d="M542.615 188.374H491.825V207.518H542.615V188.374Z" fill="white"/>
<path d="M542.615 208.733H491.825C491.502 208.733 491.193 208.605 490.965 208.377C490.737 208.149 490.609 207.84 490.609 207.517V188.373C490.609 188.051 490.737 187.742 490.965 187.513C491.193 187.285 491.502 187.157 491.825 187.157H542.615C542.936 187.163 543.242 187.294 543.468 187.52C543.695 187.747 543.825 188.053 543.832 188.373V207.517C543.832 207.84 543.703 208.149 543.475 208.377C543.247 208.605 542.938 208.733 542.615 208.733ZM493.041 206.301H541.399V189.59H493.041V206.301Z" fill="#4487A0"/>
<path d="M516.196 207.518H458.181V226.661H516.196V207.518Z" fill="white"/>
<path d="M516.196 227.901H458.181C457.859 227.901 457.549 227.773 457.321 227.545C457.093 227.317 456.965 227.008 456.965 226.685V207.517C456.965 207.194 457.093 206.885 457.321 206.657C457.549 206.429 457.859 206.301 458.181 206.301H516.196C516.519 206.301 516.828 206.429 517.056 206.657C517.284 206.885 517.412 207.194 517.412 207.517V226.685C517.412 227.008 517.284 227.317 517.056 227.545C516.828 227.773 516.519 227.901 516.196 227.901ZM459.397 225.469H514.98V208.733H459.397V225.469Z" fill="#4487A0"/>
<path d="M502.651 226.686H432.814V245.829H502.651V226.686Z" fill="white"/>
<path d="M502.649 247.046H432.812C432.489 247.046 432.18 246.918 431.952 246.69C431.724 246.462 431.596 246.152 431.596 245.83V226.686C431.596 226.363 431.724 226.054 431.952 225.826C432.18 225.598 432.489 225.47 432.812 225.47H502.649C502.972 225.47 503.281 225.598 503.509 225.826C503.737 226.054 503.865 226.363 503.865 226.686V245.83C503.865 246.152 503.737 246.462 503.509 246.69C503.281 246.918 502.972 247.046 502.649 247.046ZM434.028 244.613H501.433V227.902H434.028V244.613Z" fill="#4487A0"/>
<path d="M485.28 245.829H408.608V264.973H485.28V245.829Z" fill="white"/>
<path d="M485.283 266.19H408.659C408.337 266.19 408.027 266.061 407.799 265.833C407.571 265.605 407.443 265.296 407.443 264.973V245.83C407.443 245.507 407.571 245.198 407.799 244.97C408.027 244.741 408.337 244.613 408.659 244.613H485.283C485.605 244.613 485.915 244.741 486.143 244.97C486.371 245.198 486.499 245.507 486.499 245.83V264.973C486.499 265.296 486.371 265.605 486.143 265.833C485.915 266.061 485.605 266.19 485.283 266.19ZM409.875 263.757H484.067V247.046H409.827L409.875 263.757Z" fill="#4487A0"/>
<path d="M467.111 264.973H383.628V284.116H467.111V264.973Z" fill="white"/>
<path d="M467.038 285.357H383.628C383.307 285.351 383.001 285.221 382.774 284.994C382.548 284.768 382.418 284.462 382.411 284.141V264.973C382.418 264.652 382.548 264.347 382.774 264.12C383.001 263.893 383.307 263.763 383.628 263.757H467.038C467.359 263.763 467.664 263.893 467.891 264.12C468.118 264.347 468.248 264.652 468.254 264.973V284.141C468.248 284.462 468.118 284.768 467.891 284.994C467.664 285.221 467.359 285.351 467.038 285.357ZM384.747 282.925H465.822V266.189H384.844L384.747 282.925Z" fill="#4487A0"/>
<path d="M442.956 284.141H341.473V303.284H442.956V284.141Z" fill="white"/>
<path d="M442.932 304.501H341.472C341.15 304.501 340.841 304.373 340.612 304.145C340.384 303.917 340.256 303.607 340.256 303.285V284.141C340.256 283.818 340.384 283.509 340.612 283.281C340.841 283.053 341.15 282.925 341.472 282.925H442.932C443.255 282.925 443.564 283.053 443.792 283.281C444.02 283.509 444.148 283.818 444.148 284.141V303.285C444.148 303.607 444.02 303.917 443.792 304.145C443.564 304.373 443.255 304.501 442.932 304.501ZM342.689 302.069H441.716V285.357H342.689V302.069Z" fill="#4487A0"/>
<path d="M415.833 303.285H305.251V322.429H415.833V303.285Z" fill="white"/>
<path d="M415.956 323.645H305.253C304.931 323.645 304.621 323.516 304.393 323.288C304.165 323.06 304.037 322.751 304.037 322.428V303.285C304.037 302.962 304.165 302.653 304.393 302.425C304.621 302.196 304.931 302.068 305.253 302.068H415.956C416.279 302.068 416.588 302.196 416.816 302.425C417.045 302.653 417.173 302.962 417.173 303.285V322.428C417.173 322.751 417.045 323.06 416.816 323.288C416.588 323.516 416.279 323.645 415.956 323.645ZM306.494 321.212H414.667V304.501H306.494V321.212Z" fill="#4487A0"/>
<path d="M343.394 341.597H453.976V322.453H343.394V341.597Z" fill="white"/>
<path d="M453.977 342.788H343.395C343.073 342.788 342.763 342.66 342.535 342.432C342.307 342.204 342.179 341.894 342.179 341.572V322.428C342.179 322.106 342.307 321.796 342.535 321.568C342.763 321.34 343.073 321.212 343.395 321.212H453.977C454.299 321.212 454.609 321.34 454.837 321.568C455.065 321.796 455.193 322.106 455.193 322.428V341.572C455.193 341.894 455.065 342.204 454.837 342.432C454.609 342.66 454.299 342.788 453.977 342.788ZM344.514 340.356H452.663V323.644H344.612L344.514 340.356Z" fill="#4487A0"/>
<path d="M362.072 360.74H488.683V341.596H362.072V360.74Z" fill="white"/>
<path d="M488.687 361.956H362.075C361.752 361.956 361.443 361.828 361.215 361.6C360.987 361.372 360.859 361.062 360.859 360.74V341.572C360.859 341.249 360.987 340.94 361.215 340.712C361.443 340.484 361.752 340.355 362.075 340.355H488.687C489.009 340.355 489.319 340.484 489.547 340.712C489.775 340.94 489.903 341.249 489.903 341.572V360.74C489.903 361.062 489.775 361.372 489.547 361.6C489.319 361.828 489.009 361.956 488.687 361.956ZM363.291 359.524H487.47V342.788H363.291V359.524Z" fill="#4487A0"/>
<path d="M381.511 379.884H522.62V360.74H381.511V379.884Z" fill="white"/>
<path d="M522.618 381.101H381.533C381.21 381.101 380.901 380.973 380.673 380.744C380.445 380.516 380.317 380.207 380.317 379.884V360.741C380.317 360.418 380.445 360.109 380.673 359.881C380.901 359.653 381.21 359.524 381.533 359.524H522.618C522.94 359.524 523.25 359.653 523.478 359.881C523.706 360.109 523.834 360.418 523.834 360.741V379.884C523.834 380.207 523.706 380.516 523.478 380.744C523.25 380.973 522.94 381.101 522.618 381.101ZM382.749 378.668H521.402V361.957H382.749V378.668Z" fill="#4487A0"/>
<path d="M398.71 399.027H558.866V379.884H398.71V399.027Z" fill="white"/>
<path d="M558.861 400.244H398.681C398.358 400.244 398.049 400.116 397.821 399.888C397.593 399.66 397.465 399.351 397.465 399.028V379.884C397.465 379.562 397.593 379.252 397.821 379.024C398.049 378.796 398.358 378.668 398.681 378.668H558.861C559.184 378.668 559.493 378.796 559.721 379.024C559.949 379.252 560.077 379.562 560.077 379.884V398.931C560.091 399.098 560.069 399.267 560.014 399.426C559.959 399.585 559.872 399.731 559.757 399.854C559.643 399.978 559.504 400.076 559.35 400.143C559.196 400.21 559.029 400.245 558.861 400.244ZM399.897 397.812H557.645V381.1H399.897V397.812Z" fill="#4487A0"/>
<path d="M419.7 418.195H591.215V399.052H419.7V418.195Z" fill="white"/>
<path d="M591.219 419.412H419.704C419.383 419.406 419.077 419.275 418.851 419.049C418.624 418.822 418.494 418.516 418.488 418.196V398.93C418.494 398.609 418.624 398.304 418.851 398.077C419.077 397.85 419.383 397.72 419.704 397.714H591.219C591.542 397.714 591.851 397.842 592.079 398.07C592.307 398.298 592.436 398.608 592.436 398.93V418.098C592.449 418.266 592.428 418.435 592.373 418.594C592.317 418.753 592.23 418.898 592.116 419.022C592.001 419.145 591.863 419.244 591.708 419.311C591.554 419.378 591.388 419.412 591.219 419.412ZM420.944 416.979H590.027V400.244H420.823L420.944 416.979Z" fill="#4487A0"/>
<path d="M443.175 437.315H637.605V418.172H443.175V437.315Z" fill="white"/>
<path d="M637.607 438.556H443.202C442.879 438.556 442.57 438.428 442.342 438.2C442.114 437.971 441.985 437.662 441.985 437.34V418.196C441.985 417.873 442.114 417.564 442.342 417.336C442.57 417.108 442.879 416.979 443.202 416.979H637.607C637.93 416.979 638.239 417.108 638.467 417.336C638.695 417.564 638.823 417.873 638.823 418.196V437.34C638.823 437.662 638.695 437.971 638.467 438.2C638.239 438.428 637.93 438.556 637.607 438.556ZM444.418 436.123H636.391V419.412H444.418V436.123Z" fill="#4487A0"/>
<path d="M482.048 456.484H688.008V437.341H482.048V456.484Z" fill="white"/>
<path d="M688.008 457.7H482.048C481.725 457.7 481.416 457.572 481.188 457.344C480.96 457.116 480.832 456.807 480.832 456.484V437.34C480.832 437.018 480.96 436.708 481.188 436.48C481.416 436.252 481.725 436.124 482.048 436.124H688.008C688.33 436.124 688.639 436.252 688.868 436.48C689.096 436.708 689.224 437.018 689.224 437.34V456.484C689.224 456.807 689.096 457.116 688.868 457.344C688.639 457.572 688.33 457.7 688.008 457.7ZM483.264 455.268H686.791V438.557H483.264V455.268Z" fill="#4487A0"/>
<path d="M530.234 475.628H726.391V456.484H530.234V475.628Z" fill="white"/>
<path d="M726.417 476.771H530.284C529.962 476.771 529.652 476.642 529.424 476.414C529.196 476.186 529.068 475.877 529.068 475.554V456.411C529.068 456.088 529.196 455.779 529.424 455.551C529.652 455.322 529.962 455.194 530.284 455.194H726.441C726.764 455.194 727.073 455.322 727.301 455.551C727.529 455.779 727.657 456.088 727.657 456.411V475.554C727.657 475.716 727.625 475.876 727.562 476.025C727.5 476.175 727.408 476.31 727.292 476.423C727.177 476.536 727.04 476.625 726.889 476.685C726.739 476.745 726.578 476.774 726.417 476.771ZM531.476 474.338H725.2V457.627H531.476V474.338Z" fill="#4487A0"/>
<path d="M504.644 494.796H700.801V475.652H504.644V494.796Z" fill="white"/>
<path d="M700.777 496.012H504.645C504.322 496.012 504.013 495.884 503.785 495.655C503.556 495.427 503.428 495.118 503.428 494.795V475.627C503.428 475.305 503.556 474.995 503.785 474.767C504.013 474.539 504.322 474.411 504.645 474.411H700.777C701.1 474.411 701.409 474.539 701.637 474.767C701.865 474.995 701.993 475.305 701.993 475.627V494.795C701.993 494.955 701.962 495.113 701.901 495.261C701.84 495.409 701.75 495.543 701.637 495.655C701.524 495.768 701.39 495.858 701.243 495.919C701.095 495.98 700.937 496.012 700.777 496.012ZM505.861 493.579H699.561V476.771H505.958L505.861 493.579Z" fill="#4487A0"/>
<path d="M471.684 513.938H672.243V494.795H471.684V513.938Z" fill="white"/>
<path d="M672.247 515.156H471.687C471.365 515.156 471.055 515.028 470.827 514.8C470.599 514.572 470.471 514.263 470.471 513.94V494.796C470.471 494.474 470.599 494.164 470.827 493.936C471.055 493.708 471.365 493.58 471.687 493.58H672.247C672.569 493.58 672.879 493.708 673.107 493.936C673.335 494.164 673.463 494.474 673.463 494.796V513.94C673.463 514.263 673.335 514.572 673.107 514.8C672.879 515.028 672.569 515.156 672.247 515.156ZM472.782 512.724H670.909V496.013H472.904L472.782 512.724Z" fill="#4487A0"/>
<path d="M433.42 532.937H656.821V513.793H433.42V532.937Z" fill="white"/>
<path d="M656.774 534.153H433.422C433.1 534.153 432.79 534.025 432.562 533.797C432.334 533.569 432.206 533.26 432.206 532.937V513.793C432.206 513.471 432.334 513.161 432.562 512.933C432.79 512.705 433.1 512.577 433.422 512.577H656.774C657.097 512.577 657.406 512.705 657.634 512.933C657.863 513.161 657.991 513.471 657.991 513.793V532.937C657.991 533.26 657.863 533.569 657.634 533.797C657.406 534.025 657.097 534.153 656.774 534.153ZM434.59 531.721H655.558V515.01H434.639L434.59 531.721Z" fill="#4487A0"/>
<path d="M386.476 551.936H637.996V532.792H386.476V551.936Z" fill="white"/>
<path d="M637.994 553.151H386.474C386.151 553.151 385.842 553.023 385.614 552.795C385.386 552.567 385.258 552.258 385.258 551.935V532.718C385.258 532.396 385.386 532.086 385.614 531.858C385.842 531.63 386.151 531.502 386.474 531.502H637.994C638.317 531.502 638.626 531.63 638.854 531.858C639.082 532.086 639.211 532.396 639.211 532.718V551.862C639.221 552.028 639.196 552.194 639.14 552.35C639.083 552.506 638.995 552.649 638.881 552.77C638.767 552.89 638.63 552.987 638.477 553.052C638.325 553.118 638.16 553.151 637.994 553.151ZM387.69 550.719H636.778V534.007H387.69V550.719Z" fill="#4487A0"/>
<path d="M340.719 571.492H583.312V552.348H340.719V571.492Z" fill="white"/>
<path d="M583.312 572.709H340.719C340.396 572.709 340.087 572.581 339.859 572.353C339.631 572.125 339.503 571.815 339.503 571.493V552.349C339.503 552.026 339.631 551.717 339.859 551.489C340.087 551.261 340.396 551.133 340.719 551.133H583.312C583.635 551.133 583.944 551.261 584.172 551.489C584.4 551.717 584.529 552.026 584.529 552.349V571.493C584.529 571.815 584.4 572.125 584.172 572.353C583.944 572.581 583.635 572.709 583.312 572.709ZM341.935 570.277H582.096V553.565H341.935V570.277Z" fill="#4487A0"/>
<path d="M294.915 590.83H564.874V571.686H294.915V590.83Z" fill="white"/>
<path d="M564.874 592.047H294.866C294.543 592.047 294.234 591.919 294.006 591.691C293.778 591.462 293.65 591.153 293.65 590.831V571.638C293.65 571.316 293.778 571.006 294.006 570.778C294.234 570.55 294.543 570.422 294.866 570.422H564.874C565.196 570.422 565.505 570.55 565.734 570.778C565.962 571.006 566.09 571.316 566.09 571.638V590.782C566.096 590.946 566.07 591.109 566.012 591.262C565.953 591.416 565.865 591.555 565.751 591.674C565.638 591.792 565.501 591.886 565.35 591.95C565.2 592.014 565.037 592.047 564.874 592.047ZM296.131 589.614H563.706V572.903H296.131V589.614Z" fill="#4487A0"/>
<path d="M270.444 609.683H540.403V590.539H270.444V609.683Z" fill="white"/>
<path d="M540.403 610.899H270.396C270.073 610.899 269.764 610.77 269.536 610.542C269.308 610.314 269.179 610.005 269.179 609.682V590.539C269.179 590.216 269.308 589.907 269.536 589.678C269.764 589.45 270.073 589.322 270.396 589.322H540.403C540.726 589.322 541.035 589.45 541.263 589.678C541.491 589.907 541.619 590.216 541.619 590.539V609.682C541.619 610.005 541.491 610.314 541.263 610.542C541.035 610.77 540.726 610.899 540.403 610.899ZM271.661 608.466H539.236V591.755H271.661V608.466Z" fill="#4487A0"/>
<path d="M229.407 628.851H499.366V609.707H229.407V628.851Z" fill="white"/>
<path d="M499.366 630.019H229.358C229.036 630.019 228.727 629.89 228.498 629.662C228.27 629.434 228.142 629.125 228.142 628.802V609.634C228.142 609.312 228.27 609.002 228.498 608.774C228.727 608.546 229.036 608.418 229.358 608.418H499.366C499.689 608.418 499.998 608.546 500.226 608.774C500.454 609.002 500.582 609.312 500.582 609.634V628.802C500.582 629.125 500.454 629.434 500.226 629.662C499.998 629.89 499.689 630.019 499.366 630.019ZM230.623 627.586H498.198V610.85H230.623V627.586Z" fill="#4487A0"/>
<path d="M551.249 152.348C551.005 152.346 550.768 152.264 550.575 152.114C550.381 151.965 550.242 151.757 550.179 151.521C549.692 149.599 545.678 132.766 552.952 130.115C555.384 129.191 569.371 130.115 572.144 130.115C572.289 130.121 572.431 130.156 572.562 130.219C572.693 130.282 572.81 130.37 572.905 130.48C573.001 130.589 573.073 130.716 573.118 130.854C573.163 130.992 573.179 131.138 573.166 131.283C573.147 131.575 573.014 131.849 572.796 132.044C572.577 132.24 572.291 132.342 571.998 132.328C565.795 131.939 555.335 131.526 553.73 132.11C549.157 133.788 551.298 146.534 552.343 150.864C552.411 151.151 552.365 151.453 552.216 151.706C552.066 151.96 551.824 152.146 551.541 152.226L551.249 152.348Z" fill="#033649"/>
<path d="M593.941 181.004C593.62 180.998 593.314 180.867 593.087 180.641C592.861 180.414 592.731 180.108 592.724 179.787V159.5C592.724 159.178 592.853 158.869 593.081 158.64C593.309 158.412 593.618 158.284 593.941 158.284C594.263 158.284 594.573 158.412 594.801 158.64C595.029 158.869 595.157 159.178 595.157 159.5V179.787C595.157 180.11 595.029 180.419 594.801 180.647C594.573 180.876 594.263 181.004 593.941 181.004Z" fill="#033649"/>
<path d="M576.503 190.367C576.332 190.365 576.164 190.328 576.009 190.256C575.854 190.185 575.715 190.082 575.603 189.954C575.486 189.845 575.393 189.713 575.33 189.566C575.267 189.42 575.234 189.262 575.234 189.102C575.234 188.943 575.267 188.785 575.33 188.639C575.393 188.492 575.486 188.36 575.603 188.251C575.992 187.911 584.919 180.005 593.603 180.005H593.822C600.341 180.005 609.998 187.862 610.412 188.202C610.659 188.407 610.815 188.7 610.847 189.019C610.879 189.338 610.784 189.656 610.582 189.905C610.381 190.156 610.09 190.317 609.771 190.353C609.452 190.39 609.131 190.299 608.879 190.1C608.879 190.1 599.611 182.437 593.919 182.437C586.038 182.437 577.451 189.978 577.354 190.051C577.242 190.16 577.108 190.245 576.962 190.299C576.815 190.354 576.659 190.377 576.503 190.367Z" fill="#033649"/>
<path d="M627.268 85.4053C627.122 86.0134 583.483 81.1727 578.813 88.1297C566.115 106.787 573.534 152.129 573.534 152.129H613.792C613.792 152.129 620.627 99.9516 624.13 95.5001C626.265 92.5756 627.369 89.0249 627.268 85.4053Z" fill="#F6AC25"/>
<path d="M613.791 153.248H573.533C573.271 153.246 573.019 153.153 572.819 152.984C572.619 152.815 572.484 152.581 572.439 152.324C572.122 150.451 565.141 106.325 577.887 87.4976C581.439 82.292 600.972 82.7785 621.672 84.0678C624.105 84.238 626.537 84.384 627.024 84.3597C627.168 84.3236 627.318 84.3236 627.462 84.3597C627.725 84.3774 627.972 84.4914 628.156 84.6799C628.34 84.8684 628.448 85.1181 628.459 85.3813C628.585 89.2714 627.404 93.0914 625.102 96.2303C622.67 99.3195 617.805 131.477 614.983 152.324C614.941 152.601 614.793 152.852 614.572 153.024C614.35 153.196 614.07 153.276 613.791 153.248ZM574.482 151.01H612.818C613.961 142.472 619.824 99.1736 623.254 94.7951C625.016 92.3951 626.024 89.5242 626.148 86.5489C625.151 86.5489 623.716 86.5489 621.429 86.3057C611.942 85.6975 583.044 83.8732 579.736 88.7382C568.401 105.376 573.533 144.491 574.482 151.01Z" fill="#033649"/>
<path d="M617.148 97.4948C612.526 117.806 613.791 152.129 613.791 152.129H623.521L634.419 93.4812C635.684 87.1566 621.746 77.1834 617.148 97.4948Z" fill="#F6AC25"/>
<path d="M623.616 153.249H613.886C613.6 153.249 613.325 153.137 613.121 152.937C612.916 152.737 612.798 152.464 612.792 152.178C612.792 151.838 611.575 117.467 616.148 97.2525C619.14 84.0197 625.732 83.8738 628.311 84.4333C632.689 85.3333 636.289 89.9064 635.608 93.6768C633.176 106.399 624.686 152.324 624.686 152.324C624.646 152.58 624.517 152.813 624.321 152.983C624.125 153.152 623.875 153.246 623.616 153.249ZM614.859 151.011H622.716C623.908 144.516 631.279 104.939 633.443 93.2876C633.93 90.6848 631.011 87.2793 627.897 86.6225C623.568 85.7225 620.065 89.7848 618.167 97.739C614.154 115.667 614.713 145.075 614.859 151.011Z" fill="#033649"/>
<path d="M562.052 152.129H623.619C623.619 152.129 622.5 162.832 619.824 163.27C617.148 163.708 571.636 163.27 567.866 163.27C564.095 163.27 562.052 152.129 562.052 152.129Z" fill="#F6AC25"/>
<path d="M606.105 164.584C597.592 164.584 586.11 164.584 574.264 164.438H567.866C563.366 164.438 561.323 154.392 560.958 152.275C560.934 152.116 560.944 151.953 560.987 151.797C561.031 151.641 561.107 151.497 561.21 151.373C561.314 151.249 561.442 151.148 561.588 151.077C561.733 151.006 561.891 150.967 562.053 150.962H623.619C623.773 150.965 623.925 151.002 624.063 151.069C624.202 151.136 624.324 151.232 624.422 151.351C624.53 151.463 624.611 151.598 624.662 151.745C624.712 151.892 624.73 152.048 624.714 152.202C624.349 155.681 623.157 163.806 619.995 164.365C619.071 164.535 613.792 164.584 606.105 164.584ZM563.415 153.248C564.339 157.335 566.188 162.176 567.866 162.176H574.264C586.11 162.176 617.587 162.468 619.63 162.176C620.506 161.957 621.746 157.773 622.354 153.248H563.415Z" fill="#033649"/>
<path d="M549.744 152.129H600.389C600.389 152.129 599.464 162.832 597.275 163.27C595.086 163.708 557.65 163.27 554.512 163.27C551.374 163.27 549.744 152.129 549.744 152.129Z" fill="#F6AC25"/>
<path d="M585.891 164.584C578.885 164.584 569.496 164.584 559.815 164.438H554.536C550.863 164.438 549.209 155.973 548.674 152.276C548.65 152.115 548.662 151.952 548.709 151.796C548.755 151.641 548.834 151.497 548.941 151.376C549.042 151.254 549.168 151.155 549.311 151.088C549.454 151.021 549.61 150.986 549.768 150.986H600.413C600.726 150.995 601.023 151.126 601.24 151.351C601.443 151.587 601.547 151.892 601.532 152.203C601.07 157.457 599.999 163.854 597.518 164.365C596.716 164.535 592.313 164.584 585.891 164.584ZM551.082 153.249C551.933 158.114 553.514 162.176 554.536 162.176H559.815C569.545 162.176 595.329 162.468 597.08 162.176C598.356 159.356 599.074 156.317 599.197 153.224L551.082 153.249Z" fill="#033649"/>
<path d="M592.825 152.348C592.581 152.346 592.344 152.264 592.151 152.114C591.958 151.965 591.818 151.757 591.755 151.521C591.268 149.599 587.255 132.766 594.528 130.115C596.96 129.191 610.947 130.115 613.72 130.115C613.865 130.121 614.007 130.156 614.138 130.219C614.269 130.282 614.386 130.37 614.482 130.48C614.577 130.589 614.649 130.716 614.694 130.854C614.739 130.992 614.755 131.138 614.742 131.283C614.723 131.575 614.59 131.849 614.372 132.044C614.153 132.24 613.867 132.342 613.574 132.328C607.371 131.939 596.912 131.526 595.306 132.11C590.733 133.788 592.874 146.534 593.92 150.864C593.987 151.151 593.941 151.453 593.792 151.706C593.642 151.96 593.4 152.146 593.117 152.226L592.825 152.348Z" fill="#033649"/>
<path d="M515.956 426.466C515.372 424.471 482.363 371.175 482.363 371.175L526.148 345.391L557.625 399.052L515.956 426.466Z" fill="white"/>
<path d="M515.957 427.707C515.821 427.739 515.679 427.739 515.543 427.707C515.372 427.646 515.218 427.546 515.091 427.415C514.965 427.284 514.87 427.126 514.814 426.953C513.962 424.886 494.332 392.898 481.318 371.906C481.234 371.769 481.178 371.617 481.153 371.458C481.128 371.3 481.134 371.138 481.172 370.982C481.255 370.668 481.455 370.398 481.732 370.227L525.517 344.443C525.653 344.359 525.806 344.303 525.964 344.278C526.123 344.253 526.285 344.259 526.441 344.297C526.741 344.395 526.998 344.592 527.171 344.857L558.745 398.445C558.895 398.716 558.939 399.033 558.867 399.335C558.795 399.637 558.612 399.9 558.355 400.074L516.638 427.489C516.439 427.63 516.201 427.706 515.957 427.707ZM484.067 371.59C490.221 381.539 512.162 417.029 516.443 424.716L556.069 398.663L525.809 347.046L484.067 371.59Z" fill="#033649"/>
<path d="M499.123 413.112C498.132 413.101 497.161 412.83 496.307 412.326C495.454 411.822 494.747 411.104 494.258 410.242L487.739 398.93C487.013 397.656 486.802 396.152 487.151 394.727C487.499 393.302 488.38 392.064 489.612 391.268L493.309 388.836C493.58 388.681 493.899 388.637 494.201 388.711C494.504 388.785 494.766 388.972 494.935 389.234C495.103 389.496 495.165 389.813 495.107 390.119C495.049 390.425 494.875 390.697 494.623 390.879L490.925 393.311C490.218 393.776 489.715 394.492 489.516 395.314C489.317 396.136 489.438 397.003 489.855 397.739L496.277 408.952C496.697 409.7 497.394 410.252 498.219 410.489C499.043 410.725 499.927 410.628 500.68 410.217L505.058 407.785C505.345 407.633 505.681 407.602 505.991 407.698C506.301 407.793 506.561 408.008 506.712 408.296C506.864 408.583 506.895 408.918 506.799 409.228C506.704 409.539 506.488 409.798 506.201 409.95L501.847 412.382C501.018 412.857 500.079 413.109 499.123 413.112Z" fill="#033649"/>
<path d="M415.543 363.246C412.988 363.246 410.678 360.279 409.923 355.949C409.591 354.101 409.699 352.201 410.24 350.403C410.348 349.581 410.717 348.816 411.293 348.221C411.869 347.625 412.621 347.23 413.438 347.094C414.256 346.957 415.095 347.087 415.833 347.464C416.571 347.841 417.168 348.445 417.537 349.186C418.632 350.716 419.349 352.483 419.629 354.343C420.383 358.868 418.875 362.638 416.126 363.1L415.543 363.246ZM413.961 349.673H413.84C413.329 349.673 412.867 350.33 412.551 351.254C412.128 352.675 412.052 354.177 412.332 355.633C412.891 359.014 414.764 360.96 415.688 360.765C416.613 360.571 417.732 358.333 417.172 354.806C416.96 353.353 416.41 351.97 415.567 350.768C415.389 350.485 415.154 350.241 414.878 350.053C414.602 349.865 414.29 349.735 413.961 349.673Z" fill="#033649"/>
<path d="M411.673 355.146C411.673 355.146 419.652 361.567 418.97 363.611C418.289 365.654 414.324 365.727 414.324 365.727" fill="white"/>
<path d="M414.446 367.04C414.123 367.04 413.814 366.911 413.586 366.683C413.358 366.455 413.23 366.146 413.23 365.823C413.23 365.501 413.358 365.191 413.586 364.963C413.814 364.735 414.123 364.607 414.446 364.607C415.735 364.607 417.73 364.121 417.925 363.366C416.038 360.574 413.665 358.143 410.919 356.191C410.667 355.987 410.507 355.693 410.473 355.371C410.438 355.049 410.533 354.727 410.736 354.476C410.94 354.224 411.235 354.064 411.556 354.029C411.878 353.995 412.2 354.09 412.451 354.293C416.392 357.455 420.941 361.591 420.284 364.023C419.481 366.869 415.006 367.015 414.495 367.04H414.446Z" fill="#033649"/>
<path d="M407.075 344.855C411.381 346.558 412.281 352.785 413.497 356.628C415.175 362.053 416.756 367.526 418.192 372.999C419.092 376.502 410.237 379.397 408.462 378.886L414.178 391.973L393.234 390.805L390.413 379.372C390.413 379.372 385.548 368.134 386.885 359.912C387.798 354.792 390.114 350.026 393.575 346.144C393.575 346.144 402.843 343.201 407.075 344.855Z" fill="white"/>
<path d="M414.083 393.19L393.139 392.022C392.881 392.007 392.635 391.909 392.438 391.743C392.24 391.576 392.102 391.35 392.045 391.098L389.223 379.665C389.077 379.373 384.358 368.183 385.672 359.84C386.581 354.476 388.984 349.476 392.604 345.415C392.749 345.274 392.924 345.166 393.115 345.099C394.112 344.783 403.015 341.961 407.515 343.713C411.675 345.342 413.013 350.256 414.059 354.197C414.278 354.926 414.448 355.632 414.667 356.264C416.345 361.713 417.926 367.235 419.362 372.708C419.516 373.387 419.478 374.095 419.25 374.753C419.022 375.411 418.614 375.992 418.072 376.43C415.811 378.312 413.092 379.563 410.191 380.054L415.202 391.487C415.283 391.672 415.316 391.875 415.299 392.076C415.282 392.278 415.215 392.472 415.104 392.641C414.993 392.81 414.841 392.949 414.663 393.045C414.485 393.141 414.285 393.19 414.083 393.19ZM394.064 389.638L412.137 390.66L407.272 379.373C407.176 379.162 407.143 378.928 407.178 378.699C407.212 378.47 407.313 378.256 407.467 378.084C407.618 377.912 407.815 377.787 408.035 377.723C408.254 377.658 408.487 377.657 408.707 377.719C411.535 377.53 414.233 376.458 416.418 374.654C416.929 374.143 417.148 373.705 417.051 373.316C415.616 367.892 414.035 362.394 412.356 356.994C412.161 356.337 411.943 355.583 411.748 354.829C410.824 351.424 409.68 347.167 406.64 345.975C403.623 344.807 396.91 346.461 394.161 347.313C390.997 350.985 388.873 355.436 388.007 360.205C386.839 367.867 391.388 378.789 391.437 378.886L394.064 389.638Z" fill="#033649"/>
<path d="M416.761 369.012C416.35 369.532 415.832 369.958 415.242 370.26C414.652 370.563 414.004 370.735 413.342 370.765C412.68 370.795 412.019 370.682 411.404 370.434C410.79 370.186 410.235 369.809 409.779 369.328" fill="white"/>
<path d="M413.036 372.173C412.257 372.155 411.491 371.977 410.784 371.651C410.077 371.324 409.444 370.856 408.925 370.276C408.811 370.163 408.721 370.028 408.659 369.88C408.597 369.732 408.565 369.573 408.565 369.412C408.565 369.252 408.597 369.093 408.659 368.944C408.721 368.796 408.811 368.662 408.925 368.549C409.152 368.326 409.458 368.201 409.776 368.201C410.095 368.201 410.4 368.326 410.628 368.549C410.932 368.901 411.304 369.188 411.722 369.393C412.14 369.598 412.595 369.716 413.06 369.741C414.105 369.602 415.069 369.103 415.785 368.33C416.005 368.131 416.291 368.02 416.587 368.017C416.884 368.014 417.172 368.119 417.396 368.314C417.62 368.508 417.766 368.778 417.805 369.072C417.844 369.366 417.775 369.664 417.609 369.911C416.461 371.195 414.872 372.003 413.158 372.173H413.036Z" fill="#033649"/>
<path d="M408.511 355.936C408.926 355.778 408.939 354.806 408.542 353.764C408.145 352.722 407.487 352.005 407.073 352.163C406.659 352.321 406.645 353.294 407.042 354.336C407.439 355.378 408.097 356.094 408.511 355.936Z" fill="#033649"/>
<path d="M390.436 395.355L390.12 388.861L414.932 385.188L421.062 395.258C410.913 396.783 400.595 396.815 390.436 395.355Z" fill="white"/>
<path d="M405.714 397.617C400.547 397.621 395.385 397.264 390.268 396.547C389.99 396.503 389.734 396.367 389.544 396.159C389.354 395.951 389.24 395.685 389.222 395.404L388.906 388.933C388.89 388.63 388.989 388.332 389.183 388.098C389.377 387.864 389.651 387.71 389.952 387.668L414.763 383.971C415.001 383.937 415.243 383.975 415.46 384.079C415.676 384.183 415.857 384.348 415.979 384.555L422.109 394.625C422.193 394.8 422.237 394.991 422.237 395.185C422.237 395.378 422.193 395.57 422.109 395.744C422.025 395.924 421.9 396.082 421.743 396.204C421.587 396.327 421.404 396.411 421.209 396.45C416.086 397.274 410.903 397.665 405.714 397.617ZM391.606 394.285C400.724 395.436 409.95 395.436 419.069 394.285L414.325 386.452L391.387 389.858L391.606 394.285Z" fill="#033649"/>
<path d="M478.956 419.194C480.931 416.325 482.711 413.326 484.283 410.218C484.406 407.958 484.798 405.72 485.451 403.553C486.448 401.388 489.294 399.369 490.778 402.215C490.778 402.215 491.289 397.35 494.621 399.783C496.082 400.79 497.201 402.22 497.827 403.88C498.453 405.541 498.557 407.354 498.124 409.075C497.443 412.772 484.94 431.94 484.94 431.94" fill="white"/>
<path d="M484.94 433.254C484.708 433.246 484.482 433.179 484.283 433.059C484.148 432.971 484.032 432.856 483.941 432.722C483.85 432.588 483.787 432.438 483.756 432.279C483.724 432.121 483.724 431.957 483.756 431.799C483.788 431.64 483.852 431.49 483.943 431.356C488.808 424.059 496.47 411.483 496.908 408.977C497.316 407.478 497.245 405.888 496.704 404.431C496.163 402.974 495.18 401.723 493.892 400.853C493.357 400.439 492.943 400.342 492.797 400.391C492.31 400.925 492.026 401.614 491.994 402.337C491.964 402.594 491.855 402.836 491.68 403.028C491.505 403.22 491.275 403.353 491.021 403.407C490.763 403.458 490.496 403.423 490.259 403.309C490.023 403.195 489.829 403.008 489.708 402.774C489.294 402.02 488.929 402.02 488.808 402.02C488.078 402.02 487.056 402.969 486.546 404.064C486.049 405.448 485.77 406.9 485.718 408.369C485.691 409.072 485.61 409.771 485.475 410.461C483.913 413.749 482.073 416.898 479.978 419.875C479.795 420.143 479.514 420.329 479.196 420.393C478.878 420.456 478.547 420.393 478.275 420.215C478.008 420.037 477.823 419.761 477.759 419.446C477.695 419.132 477.758 418.805 477.935 418.537C479.855 415.801 481.579 412.931 483.091 409.95C483.202 409.364 483.275 408.771 483.31 408.175C483.359 406.416 483.713 404.679 484.356 403.042C484.722 402.135 485.319 401.339 486.087 400.733C486.855 400.128 487.767 399.733 488.735 399.588C489.23 399.593 489.719 399.7 490.17 399.904C490.491 399.145 491.079 398.53 491.824 398.177C492.421 397.957 493.069 397.908 493.692 398.037C494.315 398.166 494.89 398.468 495.351 398.907C496.994 400.049 498.252 401.662 498.96 403.534C499.668 405.405 499.792 407.447 499.316 409.391C498.611 413.21 487.154 430.724 485.962 432.694C485.855 432.869 485.705 433.012 485.526 433.11C485.346 433.209 485.144 433.258 484.94 433.254Z" fill="#033649"/>
<path d="M297.348 472.562C297.348 472.562 294.915 477.427 293.724 481.003C292.813 484.414 292.266 487.912 292.094 491.438C291.169 490.368 289.661 490.1 288.761 489.152C288.665 490.671 288.303 492.161 287.691 493.555C287.386 494.25 286.913 494.859 286.315 495.326C285.716 495.794 285.01 496.104 284.261 496.23C283.432 496.265 282.605 496.132 281.829 495.841C279.056 494.941 274.531 493.287 273.874 489.93C273.744 488.629 273.998 487.318 274.604 486.16C276.72 481.295 286.158 468.403 287.715 466.335" fill="white"/>
<path d="M283.918 497.446C283.088 497.422 282.267 497.266 281.486 496.984C279.053 496.206 273.458 494.405 272.704 490.149C272.525 488.618 272.805 487.069 273.507 485.697C275.94 480.224 286.643 465.751 286.764 465.605C286.958 465.347 287.246 465.176 287.565 465.13C287.884 465.085 288.209 465.168 288.467 465.361C288.72 465.559 288.886 465.846 288.932 466.164C288.977 466.481 288.898 466.804 288.71 467.064C285.937 470.762 277.618 482.267 275.745 486.646C275.246 487.596 275.019 488.665 275.088 489.735C275.599 492.532 280.415 494.089 282.215 494.6C282.823 494.824 283.465 494.94 284.113 494.941C284.648 494.826 285.148 494.586 285.571 494.239C285.994 493.892 286.328 493.448 286.545 492.946C287.077 491.668 287.397 490.313 287.494 488.932C287.519 488.707 287.608 488.493 287.75 488.317C287.892 488.14 288.082 488.008 288.297 487.935C288.513 487.859 288.747 487.846 288.971 487.898C289.195 487.95 289.4 488.064 289.562 488.227C289.932 488.556 290.35 488.827 290.802 489.03H290.972C291.181 486.114 291.695 483.228 292.505 480.419C293.794 476.794 296.081 472.051 296.178 471.856C296.246 471.713 296.341 471.585 296.459 471.479C296.576 471.373 296.714 471.292 296.863 471.24C297.013 471.188 297.171 471.166 297.329 471.176C297.487 471.186 297.641 471.227 297.783 471.297C298.072 471.434 298.295 471.679 298.405 471.98C298.514 472.28 298.5 472.612 298.367 472.902C298.367 472.902 295.935 477.767 294.791 481.221C293.928 484.533 293.398 487.923 293.21 491.341C293.201 491.583 293.116 491.816 292.967 492.008C292.819 492.199 292.615 492.34 292.383 492.411C292.153 492.492 291.904 492.5 291.669 492.435C291.434 492.369 291.225 492.234 291.07 492.046C290.669 491.637 290.189 491.314 289.659 491.097C289.504 492.094 289.2 493.061 288.759 493.968C288.366 494.854 287.753 495.626 286.978 496.209C286.203 496.792 285.292 497.168 284.332 497.3L283.918 497.446Z" fill="#033649"/>
<path d="M446.071 571.638C446.071 571.638 444.028 585.893 449.914 587.985C455.801 590.077 486.11 566.092 483.969 560.619C481.829 555.146 471.539 553.443 462.271 560.619C457.131 564.66 451.718 568.342 446.071 571.638Z" fill="black"/>
<path d="M450.668 589.274C450.27 589.275 449.876 589.209 449.5 589.079C442.859 586.647 444.635 572.976 444.878 571.419C444.897 571.231 444.962 571.049 445.069 570.892C445.175 570.735 445.318 570.607 445.486 570.519C451.096 567.261 456.469 563.611 461.565 559.597C463.939 557.58 466.741 556.13 469.759 555.359C472.777 554.587 475.931 554.514 478.982 555.146C480.325 555.44 481.581 556.045 482.65 556.91C483.718 557.776 484.569 558.879 485.136 560.132C485.647 561.397 485.623 563.83 479.663 569.862C472.755 577.087 457.016 589.274 450.668 589.274ZM447.189 572.246C446.751 576.138 446.484 585.333 450.327 586.695C453.489 587.814 468.96 577.427 477.912 568.184C483.409 562.516 482.777 560.886 482.777 560.886C482.341 559.991 481.703 559.208 480.914 558.601C480.124 557.993 479.205 557.576 478.228 557.384C475.542 556.849 472.77 556.934 470.122 557.634C467.475 558.334 465.022 559.629 462.952 561.422C457.946 565.408 452.68 569.057 447.189 572.344V572.246Z" fill="#F6AC25"/>
<path d="M385.063 507.031C385.063 507.031 421.186 516.761 448.162 511.774L445.73 571.516C445.73 571.516 455.946 575.238 467.063 560.862C467.063 560.862 477.839 487.449 470.882 483.922C463.925 480.395 400.096 484.554 400.096 484.554L385.063 507.031Z" fill="white"/>
<path d="M448.965 573.218C447.722 573.239 446.482 573.067 445.292 572.708C445.04 572.615 444.825 572.445 444.676 572.222C444.527 571.999 444.453 571.735 444.465 571.467L446.897 513.282C420.14 517.587 385.16 508.417 384.796 508.246C384.605 508.187 384.431 508.086 384.283 507.952C384.136 507.817 384.021 507.652 383.944 507.468C383.87 507.281 383.844 507.077 383.87 506.878C383.895 506.678 383.971 506.487 384.09 506.325L399.099 483.873C399.206 483.71 399.349 483.574 399.518 483.477C399.687 483.379 399.877 483.324 400.072 483.313C406.639 482.875 464.436 479.227 471.49 482.802C478.544 486.378 470.93 543.615 468.352 561.032C468.333 561.247 468.248 561.451 468.109 561.615C460.422 571.491 453.149 573.218 448.965 573.218ZM447.019 570.567C449.451 571.029 457.284 571.272 465.871 560.351C470.955 525.566 474.093 486.962 470.298 484.943C465.433 482.511 426.343 484.019 400.801 485.673L387.106 506.154C394.55 507.955 424.859 514.668 447.919 510.46C448.102 510.425 448.291 510.43 448.472 510.477C448.653 510.523 448.821 510.609 448.965 510.728C449.106 510.858 449.217 511.016 449.293 511.192C449.368 511.368 449.406 511.558 449.403 511.749L447.019 570.567Z" fill="#033649"/>
<path d="M365.116 496.596C365.116 496.596 355.605 554.976 353.732 555.997C351.859 557.019 300.046 601.923 300.046 601.923L315.347 615.375C315.347 615.375 373.24 580.371 376.475 570.033C379.711 559.695 405.544 496.596 405.544 496.596H365.116Z" fill="white"/>
<path d="M315.346 616.639C315.04 616.641 314.745 616.528 314.519 616.323L299.194 602.871C299.055 602.755 298.944 602.61 298.868 602.446C298.792 602.282 298.754 602.103 298.756 601.922C298.759 601.742 298.799 601.565 298.875 601.402C298.95 601.238 299.059 601.093 299.194 600.974C307.586 593.676 348.501 558.21 352.855 555.072C354.412 551.886 360.396 517.563 363.85 496.401C363.897 496.106 364.048 495.839 364.276 495.647C364.503 495.455 364.793 495.351 365.091 495.355H405.519C405.726 495.353 405.93 495.403 406.113 495.501C406.296 495.599 406.451 495.741 406.565 495.914C406.655 496.095 406.702 496.295 406.702 496.498C406.702 496.7 406.655 496.9 406.565 497.082C406.297 497.714 380.732 560.327 377.521 570.422C374.31 580.516 321.816 612.844 315.857 616.444C315.702 616.545 315.528 616.611 315.346 616.639ZM301.943 601.922L315.492 613.817C332.033 603.795 372.777 577.646 375.283 569.667C378.25 560.229 399.413 508.271 403.67 497.86H366.185C356.698 555.9 355.02 556.751 354.29 557.116C352.539 558.21 322.425 584.165 301.943 601.922Z" fill="#033649"/>
<path d="M335.098 552.883C335.098 552.883 376.645 574.143 395.911 570.227C451.25 558.988 479.516 482.511 479.516 482.511C479.516 482.511 442.323 477.646 422.571 472.61H358.767L335.098 552.883Z" fill="white"/>
<path d="M390.584 571.979C369.908 571.979 336.096 554.806 334.637 554.003C334.372 553.872 334.162 553.65 334.046 553.378C333.93 553.106 333.915 552.801 334.004 552.519L357.648 472.247C357.73 471.988 357.892 471.761 358.11 471.599C358.329 471.438 358.593 471.349 358.864 471.347H422.523H422.839C442.299 476.212 479.273 481.077 479.638 481.223C479.823 481.245 480 481.309 480.156 481.41C480.312 481.511 480.443 481.647 480.538 481.806C480.622 481.977 480.665 482.164 480.665 482.354C480.665 482.543 480.622 482.731 480.538 482.901C480.246 483.655 451.348 560.157 395.984 571.42C394.207 571.78 392.398 571.968 390.584 571.979ZM336.607 552.179C342.834 555.244 378.592 572.393 395.619 568.963C445.437 558.844 473.459 494.091 477.716 483.485C470.419 482.488 439.672 478.133 422.377 473.755H359.691L336.607 552.179Z" fill="#033649"/>
<path d="M431.694 399.15C434.759 389.42 426.196 380.225 386.595 387.838C377.011 389.687 370.054 398.201 363.56 401.023C362.635 406.617 343.954 473.876 340.256 492.898C340.256 492.898 408.147 501.558 427.826 473.973C427.705 473.973 428.921 405.182 431.694 399.15Z" fill="black"/>
<path d="M377.035 386.768C377.035 386.768 339.064 408.66 330.185 413.89C321.306 419.12 281.194 470.154 281.194 470.154L296.592 482.486C296.592 482.486 330.647 443.299 337.118 439.699C343.588 436.099 377.035 421.041 377.035 421.041V386.768Z" fill="black"/>
<path d="M431.548 392.338L457.6 443.153L479.492 415.301L490.949 427.95C490.949 427.95 471.684 465.799 462.392 465.629C442.178 465.216 415.42 423.766 415.42 423.766L431.548 392.338Z" fill="black"/>
<path d="M315.346 615.422C314.251 601.63 308.048 597.543 303.402 599.051C298.756 600.56 295.789 600.997 297.078 614.4C298.367 627.804 305.616 647.093 312.913 645.366C320.211 643.639 316.441 629.166 315.346 615.422Z" fill="black"/>
<path d="M311.966 646.632C310.606 646.597 309.294 646.128 308.22 645.294C302.187 640.988 296.957 625.834 295.863 614.474C294.622 601.29 297.565 599.636 302.503 598.006L303.039 597.836C304.126 597.496 305.276 597.409 306.402 597.582C307.527 597.754 308.598 598.183 309.533 598.833C313.425 601.436 315.931 607.274 316.563 615.277C316.807 618.196 317.147 621.163 317.488 624.034C318.85 635.223 319.92 644.88 313.206 646.486C312.8 646.582 312.384 646.631 311.966 646.632ZM305.228 599.928C304.741 599.928 304.257 600.002 303.793 600.147L303.257 600.341C299.317 601.63 297.152 602.336 298.392 614.255C299.414 624.885 304.303 639.456 309.728 643.445C310.135 643.793 310.616 644.046 311.133 644.185C311.651 644.324 312.193 644.345 312.72 644.248C317.415 643.129 316.393 634.518 315.152 624.447C314.812 621.553 314.447 618.561 314.204 615.593C313.425 605.863 310.141 602.239 308.244 600.998C307.374 600.338 306.32 599.964 305.228 599.928Z" fill="#F6AC25"/>
<path d="M400.653 331.429C386.594 325.616 375.088 334.762 370.296 342.74C362.998 354.903 364.458 371.444 362.171 375.044C350.544 393.312 340.279 399.15 340.279 399.15C340.279 399.15 384.356 415.594 401.529 401.777C398.901 392.736 397.735 383.334 398.075 373.925C398.221 369.887 399.437 366.311 399.851 362.492C399.997 361.252 397.905 347.314 396.907 346.949C399.826 347.995 403.402 346.949 406.272 346.268C408.503 345.774 410.581 344.747 412.329 343.276C412.329 343.276 414.713 337.243 400.653 331.429Z" fill="white"/>
<path d="M380.925 408.661C362.244 408.661 341.081 400.901 339.816 400.415C339.599 400.342 339.409 400.206 339.27 400.024C339.131 399.841 339.05 399.622 339.038 399.393C339.013 399.16 339.058 398.925 339.166 398.718C339.274 398.51 339.441 398.339 339.646 398.226C339.646 398.226 349.838 392.242 361.149 374.509C361.995 372.055 362.47 369.489 362.56 366.895C363.338 359.841 364.433 350.184 369.249 342.229C375.063 332.499 387.517 324.788 401.115 330.432C416.124 336.635 413.545 343.567 413.424 343.859C413.364 344.033 413.254 344.186 413.107 344.297C411.21 345.926 408.935 347.055 406.491 347.581L405.056 347.897C403.011 348.45 400.898 348.712 398.78 348.676C399.879 353.308 400.635 358.016 401.042 362.76C400.847 364.414 400.531 366.019 400.215 367.625C399.71 369.758 399.393 371.931 399.266 374.119C398.918 383.405 400.068 392.687 402.672 401.607C402.735 401.839 402.73 402.084 402.656 402.313C402.583 402.542 402.445 402.744 402.258 402.896C396.907 407.031 389.196 408.661 380.925 408.661ZM342.978 398.931C352.027 401.972 385.547 412.115 400.142 401.363C397.65 392.44 396.55 383.184 396.883 373.925C397.031 371.599 397.364 369.289 397.88 367.017C398.196 365.435 398.488 363.952 398.658 362.395C398.272 357.468 397.459 352.585 396.226 347.8C396.042 347.641 395.911 347.431 395.85 347.196C395.789 346.962 395.802 346.714 395.885 346.486C395.995 346.183 396.221 345.936 396.513 345.799C396.804 345.662 397.139 345.647 397.442 345.757C399.867 346.282 402.389 346.139 404.739 345.343L406.223 345.027C408.121 344.622 409.901 343.79 411.429 342.594C411.575 341.548 411.429 337.121 400.41 332.548C386.301 326.71 375.622 336.61 371.56 343.373C367.011 350.865 365.965 360.206 365.187 367.041C365.124 370.011 364.522 372.945 363.411 375.701C358.082 384.631 351.156 392.506 342.978 398.931Z" fill="#033649"/>
<path d="M458.281 466.846H458.062C437.386 463.002 415.275 426.004 414.277 424.423C414.114 424.144 414.066 423.813 414.144 423.5C414.221 423.186 414.417 422.915 414.691 422.744C414.972 422.584 415.306 422.539 415.619 422.621C415.933 422.703 416.202 422.904 416.369 423.182C416.588 423.547 438.846 460.813 458.427 464.535C458.75 464.564 459.048 464.72 459.255 464.968C459.463 465.217 459.563 465.538 459.534 465.86C459.505 466.183 459.349 466.481 459.1 466.688C458.852 466.896 458.531 466.996 458.208 466.967L458.281 466.846Z" fill="#033649"/>
<path d="M408.368 378.886L398.395 377.329C399.744 379.652 401.913 381.387 404.476 382.194C408.465 383.751 410.168 382.948 410.168 382.948L408.368 378.886Z" fill="#033649"/>
<path d="M408.805 384.457C407.133 384.406 405.485 384.051 403.94 383.411C401.072 382.459 398.661 380.473 397.177 377.841C397.092 377.639 397.061 377.419 397.087 377.201C397.112 376.984 397.194 376.777 397.323 376.6C397.463 376.43 397.643 376.298 397.847 376.217C398.052 376.137 398.273 376.109 398.491 376.138L408.44 377.695C408.644 377.717 408.838 377.794 409.001 377.918C409.164 378.043 409.29 378.209 409.364 378.4L411.189 382.536C411.32 382.829 411.33 383.163 411.216 383.464C411.102 383.765 410.874 384.008 410.581 384.141C410.014 384.356 409.411 384.463 408.805 384.457ZM401.361 379.033C402.439 379.922 403.655 380.629 404.961 381.125C406.07 381.592 407.243 381.887 408.44 382L407.564 379.981L401.361 379.033Z" fill="#033649"/>
<path d="M389.587 366.335H389.247C388.936 366.245 388.673 366.036 388.514 365.754C388.355 365.473 388.313 365.14 388.395 364.827C388.826 363.097 389.437 361.418 390.22 359.816C390.512 359.451 390.925 358.94 417.439 351.254C417.749 351.163 418.082 351.2 418.365 351.355C418.648 351.51 418.857 351.771 418.947 352.081C419.03 352.394 418.988 352.726 418.829 353.008C418.669 353.29 418.407 353.498 418.096 353.589C408.974 356.24 394.306 360.595 392.044 361.495C391.776 362.127 391.193 363.927 390.755 365.484C390.67 365.728 390.513 365.94 390.305 366.093C390.096 366.245 389.845 366.33 389.587 366.335Z" fill="#033649"/>
<path d="M404.014 362.443C403.682 361.055 402.975 359.784 401.97 358.77C401.289 357.84 400.468 357.02 399.538 356.338C399.089 356.018 398.575 355.802 398.032 355.705C397.489 355.608 396.932 355.633 396.4 355.778C395.944 355.956 395.531 356.227 395.187 356.575C394.844 356.923 394.577 357.34 394.405 357.797C394.058 358.712 393.925 359.694 394.016 360.668C394.173 362.801 394.89 364.856 396.094 366.624C397.298 368.392 398.948 369.811 400.876 370.738L400.535 370.446" fill="white"/>
<path d="M400.799 371.93C400.68 371.963 400.553 371.963 400.434 371.93C398.3 370.922 396.473 369.362 395.143 367.412C393.813 365.462 393.028 363.192 392.869 360.837C392.767 359.682 392.925 358.518 393.331 357.432C393.565 356.809 393.932 356.245 394.407 355.778C394.882 355.312 395.453 354.955 396.08 354.732C396.787 354.518 397.533 354.469 398.262 354.587C398.992 354.705 399.684 354.987 400.288 355.413C401.284 356.133 402.162 357.003 402.891 357.991C404.093 359.157 404.937 360.643 405.323 362.273C405.368 362.595 405.284 362.922 405.087 363.182C404.891 363.443 404.6 363.614 404.277 363.659C403.955 363.704 403.627 363.619 403.367 363.423C403.107 363.227 402.936 362.936 402.891 362.613C402.589 361.442 401.975 360.374 401.115 359.524C400.527 358.741 399.831 358.045 399.047 357.456C398.748 357.243 398.407 357.095 398.047 357.019C397.687 356.944 397.316 356.944 396.956 357.018C396.663 357.142 396.4 357.324 396.182 357.554C395.965 357.785 395.797 358.058 395.691 358.356C395.399 359.132 395.299 359.966 395.399 360.789C395.54 362.571 396.112 364.293 397.065 365.805C398.018 367.318 399.325 368.576 400.872 369.473C400.985 369.468 401.097 369.488 401.202 369.53C401.307 369.571 401.401 369.635 401.48 369.716C401.726 369.921 401.899 370.2 401.974 370.511C402.048 370.822 402.02 371.149 401.893 371.443C401.767 371.61 401.6 371.742 401.409 371.827C401.217 371.912 401.008 371.948 400.799 371.93Z" fill="#033649"/>
<path d="M343.344 480.541H342.979C342.667 480.466 342.397 480.27 342.228 479.997C342.06 479.723 342.006 479.394 342.079 479.081C344.512 469.132 357.307 413.015 357.477 410.485C357.477 410.162 357.605 409.853 357.833 409.625C358.061 409.397 358.37 409.269 358.693 409.269C359.016 409.269 359.325 409.397 359.553 409.625C359.781 409.853 359.909 410.162 359.909 410.485C359.909 412.917 345.314 475.627 344.439 479.592C344.386 479.849 344.25 480.08 344.052 480.252C343.854 480.423 343.605 480.525 343.344 480.541Z" fill="#033649"/>
<path d="M522.741 417.759L518.678 385.066L490.924 370.301" fill="white"/>
<path d="M522.74 418.975C522.446 418.971 522.162 418.861 521.943 418.664C521.724 418.467 521.584 418.197 521.548 417.905L517.559 385.844L490.364 371.249C490.222 371.177 490.095 371.078 489.992 370.956C489.889 370.835 489.812 370.694 489.764 370.542C489.717 370.39 489.7 370.23 489.715 370.072C489.73 369.913 489.777 369.76 489.853 369.62C490.008 369.336 490.267 369.123 490.576 369.028C490.885 368.932 491.219 368.961 491.507 369.109L519.262 383.874C519.433 383.966 519.581 384.098 519.691 384.259C519.801 384.42 519.871 384.605 519.894 384.798L523.956 417.467C523.977 417.627 523.965 417.789 523.922 417.944C523.879 418.1 523.806 418.245 523.706 418.372C523.607 418.499 523.483 418.604 523.342 418.683C523.201 418.761 523.046 418.811 522.886 418.829L522.74 418.975Z" fill="#4487A0"/>
<path d="M260.907 377.33C260.907 377.33 232.033 389.954 221.768 410.509L195.01 382.195C203.438 367.598 217.269 356.903 233.517 352.421L260.907 377.33Z" fill="white"/>
<path d="M221.769 411.726C221.604 411.726 221.44 411.692 221.289 411.625C221.138 411.558 221.003 411.46 220.893 411.336L194.136 383.046C193.97 382.86 193.864 382.629 193.829 382.383C193.794 382.136 193.833 381.884 193.941 381.66C202.545 366.828 216.581 355.924 233.08 351.254C233.274 351.198 233.479 351.193 233.675 351.24C233.871 351.287 234.051 351.384 234.199 351.521L261.71 376.43C261.855 376.575 261.966 376.751 262.033 376.945C262.1 377.139 262.123 377.345 262.1 377.549C262.065 377.749 261.979 377.936 261.851 378.094C261.724 378.251 261.558 378.373 261.37 378.449C261.102 378.449 232.788 391.147 222.839 411.044C222.75 411.221 222.619 411.373 222.458 411.487C222.297 411.602 222.111 411.675 221.915 411.701L221.769 411.726ZM196.544 382.025L221.477 408.442C231.085 391.244 252.491 380.006 258.743 377.038L233.08 353.783C217.804 358.31 204.773 368.383 196.544 382.025Z" fill="#4487A0"/>
<path d="M240.256 379.471C239.941 379.463 239.638 379.342 239.405 379.13L223.788 363.951C223.583 363.723 223.471 363.426 223.476 363.119C223.481 362.812 223.602 362.518 223.814 362.297C224.027 362.075 224.315 361.942 224.621 361.924C224.928 361.906 225.23 362.005 225.467 362.2L241.229 377.427C241.342 377.538 241.432 377.671 241.494 377.817C241.555 377.963 241.587 378.12 241.587 378.279C241.587 378.437 241.555 378.594 241.494 378.741C241.432 378.887 241.342 379.019 241.229 379.13C241.1 379.252 240.947 379.345 240.779 379.404C240.611 379.463 240.433 379.485 240.256 379.471Z" fill="#4487A0"/>
<path d="M226.904 383.411C226.729 383.41 226.557 383.372 226.398 383.301C226.239 383.23 226.096 383.127 225.979 382.998L215.69 370.835C215.586 370.712 215.507 370.57 215.458 370.417C215.41 370.264 215.391 370.102 215.405 369.942C215.419 369.781 215.464 369.625 215.537 369.482C215.611 369.339 215.713 369.212 215.836 369.108C215.959 369.005 216.101 368.926 216.254 368.877C216.408 368.828 216.569 368.81 216.729 368.824C216.89 368.837 217.046 368.882 217.189 368.956C217.332 369.03 217.459 369.131 217.563 369.254L227.828 381.417C228.034 381.667 228.134 381.987 228.107 382.31C228.079 382.633 227.927 382.932 227.682 383.144C227.464 383.325 227.187 383.42 226.904 383.411Z" fill="#4487A0"/>
<path d="M215.253 384.943C215.056 384.941 214.862 384.892 214.688 384.799C214.515 384.705 214.366 384.571 214.256 384.408L209.196 376.77C209.105 376.64 209.04 376.492 209.006 376.337C208.973 376.181 208.971 376.02 209 375.864C209.03 375.707 209.09 375.559 209.178 375.426C209.266 375.293 209.38 375.179 209.512 375.091C209.645 374.999 209.794 374.934 209.951 374.9C210.109 374.866 210.271 374.864 210.43 374.893C210.588 374.923 210.739 374.984 210.874 375.072C211.009 375.16 211.125 375.274 211.215 375.408L216.348 383.046C216.524 383.314 216.587 383.641 216.523 383.955C216.459 384.269 216.274 384.546 216.007 384.724C215.79 384.884 215.522 384.961 215.253 384.943Z" fill="#4487A0"/>
<path d="M762.929 315.569C762.929 315.569 743.785 343.178 708.27 345.635L717.587 381.49C717.587 381.49 757.991 393.653 778.034 362.03L762.929 315.569Z" fill="white"/>
<path d="M735.221 384.92C729.125 384.947 723.05 384.186 717.148 382.658C716.946 382.603 716.763 382.495 716.618 382.345C716.473 382.196 716.37 382.01 716.321 381.807L707.102 345.927C707.055 345.757 707.048 345.579 707.082 345.406C707.116 345.233 707.189 345.07 707.296 344.93C707.398 344.783 707.532 344.66 707.688 344.572C707.844 344.483 708.017 344.431 708.196 344.419C742.665 341.987 761.711 315.229 761.93 314.864C762.058 314.676 762.237 314.527 762.446 314.435C762.655 314.343 762.886 314.312 763.112 314.345C763.337 314.378 763.549 314.474 763.723 314.621C763.897 314.769 764.026 314.963 764.095 315.18L779.104 361.69C779.152 361.861 779.165 362.04 779.139 362.216C779.114 362.392 779.052 362.561 778.958 362.711C767.355 380.98 748.941 384.92 735.221 384.92ZM718.486 380.493C723.691 381.831 758.573 389.518 776.598 361.884L762.49 318.099C757.406 324.351 739.186 344.079 709.802 346.706L718.486 380.493Z" fill="#4487A0"/>
<path d="M728.337 378.352C728.075 378.348 727.821 378.261 727.611 378.104C727.401 377.946 727.247 377.727 727.17 377.476L720.189 353.467C720.098 353.158 720.135 352.825 720.29 352.542C720.445 352.259 720.706 352.049 721.016 351.959C721.325 351.875 721.655 351.915 721.936 352.069C722.217 352.223 722.428 352.48 722.524 352.786L729.505 376.795C729.553 376.948 729.57 377.11 729.554 377.27C729.538 377.429 729.49 377.584 729.413 377.725C729.336 377.866 729.231 377.99 729.104 378.089C728.978 378.189 728.833 378.261 728.678 378.303C728.569 378.345 728.453 378.361 728.337 378.352Z" fill="#4487A0"/>
<path d="M741.741 375.311C741.497 375.312 741.259 375.24 741.056 375.106C740.852 374.972 740.693 374.781 740.597 374.557C730.113 348.894 730.186 348.846 731.086 348.067C731.336 347.861 731.657 347.761 731.98 347.789C732.302 347.816 732.602 347.968 732.813 348.213C732.98 348.422 733.082 348.676 733.105 348.943C733.543 350.646 739.284 364.876 742.835 373.633C742.956 373.93 742.955 374.262 742.832 374.559C742.709 374.855 742.474 375.09 742.179 375.214C742.038 375.267 741.891 375.3 741.741 375.311Z" fill="#4487A0"/>
<path d="M757.453 372.002C757.208 372.006 756.969 371.933 756.768 371.793C756.567 371.654 756.415 371.454 756.334 371.224L744.171 340.21C744.112 340.061 744.083 339.902 744.085 339.742C744.087 339.582 744.121 339.425 744.184 339.278C744.247 339.131 744.339 338.998 744.453 338.886C744.568 338.775 744.704 338.687 744.852 338.628C745.153 338.515 745.485 338.523 745.78 338.65C746.075 338.777 746.309 339.013 746.433 339.309L758.596 370.348C758.709 370.649 758.701 370.981 758.574 371.276C758.447 371.571 758.211 371.805 757.915 371.929C757.765 371.977 757.61 372.002 757.453 372.002Z" fill="#4487A0"/>
<path d="M766.623 363.343C766.376 363.342 766.136 363.267 765.932 363.128C765.729 362.99 765.571 362.794 765.479 362.565L754.46 334.494C754.349 334.194 754.361 333.862 754.493 333.571C754.625 333.279 754.867 333.052 755.166 332.937C755.312 332.878 755.469 332.849 755.628 332.852C755.786 332.854 755.942 332.888 756.087 332.952C756.232 333.015 756.362 333.106 756.472 333.221C756.581 333.335 756.666 333.47 756.722 333.618L767.742 361.665C767.801 361.813 767.83 361.972 767.828 362.132C767.826 362.292 767.792 362.45 767.729 362.597C767.666 362.744 767.574 362.877 767.459 362.988C767.345 363.099 767.209 363.187 767.06 363.246C766.924 363.313 766.774 363.346 766.623 363.343Z" fill="#4487A0"/>
<path d="M448.09 129.24C448.09 129.24 413.67 132.378 402.505 166.263L356.749 140.6C360.61 129.327 367.312 119.241 376.21 111.315C385.107 103.389 395.898 97.8925 407.54 95.3555L448.09 129.24Z" fill="white"/>
<path d="M402.503 167.478C402.292 167.479 402.083 167.429 401.895 167.332L356.164 141.669C355.924 141.533 355.735 141.32 355.63 141.064C355.524 140.809 355.507 140.525 355.581 140.258C355.581 139.893 366.624 103.163 407.271 94.1625C407.453 94.1221 407.641 94.123 407.822 94.1651C408.003 94.2072 408.172 94.2894 408.317 94.4057L448.867 128.315C449.05 128.468 449.183 128.672 449.251 128.901C449.318 129.13 449.317 129.374 449.247 129.602C449.177 129.831 449.041 130.033 448.857 130.185C448.673 130.337 448.448 130.431 448.21 130.455C447.87 130.455 414.447 133.934 403.647 166.651C403.589 166.819 403.496 166.973 403.374 167.103C403.253 167.233 403.105 167.336 402.941 167.405C402.8 167.453 402.652 167.477 402.503 167.478ZM358.208 140.015L401.822 164.486C411.552 137.023 436.899 130.042 445.267 128.461L407.198 96.668C396.072 99.2508 385.766 104.567 377.212 112.136C368.658 119.704 362.126 129.287 358.208 140.015Z" fill="#4487A0"/>
<path d="M425.346 123.644C425.053 123.643 424.769 123.54 424.543 123.352L401.629 103.892C401.388 103.677 401.24 103.376 401.217 103.054C401.194 102.731 401.299 102.412 401.507 102.165C401.618 102.052 401.751 101.962 401.897 101.901C402.043 101.839 402.2 101.808 402.359 101.808C402.517 101.808 402.674 101.839 402.821 101.901C402.967 101.962 403.099 102.052 403.21 102.165L426.124 121.625C426.369 121.837 426.522 122.136 426.549 122.459C426.576 122.782 426.476 123.102 426.27 123.352C426.143 123.459 425.996 123.54 425.837 123.59C425.679 123.641 425.512 123.659 425.346 123.644Z" fill="#4487A0"/>
<path d="M415.395 132.036C415.099 132.03 414.814 131.918 414.593 131.72L391.995 111.36C391.865 111.256 391.759 111.127 391.681 110.98C391.604 110.834 391.557 110.673 391.544 110.508C391.531 110.343 391.552 110.176 391.605 110.019C391.658 109.862 391.743 109.718 391.855 109.595C391.966 109.472 392.101 109.374 392.252 109.305C392.403 109.236 392.566 109.199 392.732 109.196C392.898 109.192 393.062 109.223 393.216 109.285C393.369 109.348 393.508 109.441 393.625 109.56L416.222 129.896C416.414 130.059 416.55 130.278 416.612 130.522C416.673 130.766 416.658 131.024 416.567 131.259C416.476 131.494 416.315 131.695 416.105 131.834C415.895 131.973 415.647 132.044 415.395 132.036Z" fill="#4487A0"/>
<path d="M404.109 139.066C403.816 139.065 403.532 138.961 403.306 138.774L383.117 121.625C382.993 121.524 382.892 121.399 382.817 121.258C382.743 121.118 382.698 120.963 382.684 120.804C382.67 120.646 382.689 120.486 382.738 120.334C382.787 120.183 382.866 120.043 382.971 119.922C383.183 119.677 383.482 119.525 383.805 119.498C384.127 119.47 384.448 119.57 384.698 119.776L404.888 136.998C405.076 137.159 405.21 137.374 405.273 137.613C405.336 137.853 405.325 138.106 405.24 138.338C405.156 138.571 405.002 138.772 404.8 138.915C404.598 139.059 404.357 139.136 404.109 139.139V139.066Z" fill="#4487A0"/>
<path d="M396.493 150.012C396.259 150.019 396.029 149.951 395.837 149.818L371.877 134.42C371.624 134.238 371.451 133.966 371.393 133.66C371.334 133.354 371.396 133.037 371.564 132.775C371.733 132.513 371.995 132.326 372.298 132.252C372.6 132.178 372.92 132.222 373.19 132.377L397.15 147.774C397.421 147.949 397.611 148.223 397.68 148.538C397.748 148.853 397.689 149.182 397.515 149.453C397.407 149.626 397.256 149.768 397.077 149.866C396.898 149.964 396.697 150.014 396.493 150.012Z" fill="#4487A0"/>
<path d="M719.483 221.772C699.39 221.772 696.666 212.358 696.544 212.042C696.448 211.767 696.448 211.466 696.544 211.191L704.961 194.163C705.049 193.975 705.186 193.812 705.356 193.693C705.527 193.573 705.726 193.501 705.934 193.482C706.144 193.471 706.354 193.512 706.545 193.601C706.736 193.69 706.902 193.825 707.029 193.993C714.01 203.723 730.502 197.909 730.672 197.861C730.878 197.788 731.1 197.773 731.314 197.816C731.528 197.858 731.726 197.958 731.889 198.104C732.056 198.248 732.179 198.436 732.243 198.647C732.308 198.858 732.312 199.083 732.254 199.296L726.878 220.726C726.813 220.974 726.673 221.197 726.477 221.362C726.281 221.528 726.039 221.629 725.783 221.65C723.57 221.699 721.429 221.772 719.483 221.772ZM699.05 211.629C699.877 213.38 704.596 220.605 724.786 219.096L729.456 200.585C724.713 201.85 713.158 203.918 706.372 196.742L699.05 211.629Z" fill="#4487A0"/>
<path d="M281.876 245.878C281.707 245.913 281.533 245.913 281.365 245.878L252.442 233.205C252.174 233.087 251.957 232.878 251.828 232.616C251.698 232.353 251.666 232.053 251.737 231.769L257.843 208.174C257.898 207.967 258.009 207.778 258.163 207.628C258.317 207.478 258.509 207.373 258.718 207.323C258.923 207.264 259.14 207.262 259.346 207.318C259.552 207.374 259.739 207.485 259.886 207.639C262.78 210.607 281.389 217.734 288.322 220.215C288.608 220.32 288.846 220.527 288.99 220.796C289.133 221.065 289.173 221.378 289.1 221.675L282.995 244.978C282.951 245.149 282.869 245.308 282.756 245.443C282.642 245.577 282.499 245.685 282.338 245.756C282.196 245.834 282.037 245.875 281.876 245.878ZM254.364 231.283L281.122 242.983L286.57 222.137C281.9 220.41 265.699 214.377 259.813 210.558L254.364 231.283Z" fill="#4487A0"/>
<path d="M550.806 134.183C550.734 133.237 551.443 132.413 552.389 132.341L570.127 130.998L571.597 150.413L552.146 151.886L550.806 134.183Z" fill="#F6AC25" stroke="#033649" stroke-width="1.14471"/>
<path d="M577.604 99.6502C577.604 98.465 577.869 97.4063 578.398 96.4742C578.939 95.5307 579.67 94.8 580.59 94.2821C581.522 93.7528 582.564 93.4881 583.714 93.4881C585.061 93.4881 586.24 93.8334 587.253 94.5238C588.265 95.2142 588.973 96.1693 589.376 97.389H586.597C586.321 96.8137 585.929 96.3822 585.423 96.0945C584.928 95.8068 584.353 95.663 583.697 95.663C582.995 95.663 582.368 95.8298 581.816 96.1635C581.275 96.4857 580.849 96.946 580.538 97.5444C580.239 98.1428 580.09 98.8447 580.09 99.6502C580.09 100.444 580.239 101.146 580.538 101.756C580.849 102.354 581.275 102.82 581.816 103.154C582.368 103.476 582.995 103.637 583.697 103.637C584.353 103.637 584.928 103.494 585.423 103.206C585.929 102.907 586.321 102.469 586.597 101.894H589.376C588.973 103.125 588.265 104.086 587.253 104.777C586.252 105.456 585.072 105.795 583.714 105.795C582.564 105.795 581.522 105.536 580.59 105.018C579.67 104.489 578.939 103.758 578.398 102.826C577.869 101.894 577.604 100.835 577.604 99.6502ZM593.856 95.5939V98.6146H597.913V100.53H593.856V103.724H598.43V105.691H591.44V93.6262H598.43V95.5939H593.856ZM606.219 105.812C605.091 105.812 604.056 105.548 603.112 105.018C602.168 104.489 601.42 103.758 600.868 102.826C600.316 101.883 600.04 100.818 600.04 99.6329C600.04 98.4592 600.316 97.4063 600.868 96.4742C601.42 95.5307 602.168 94.7942 603.112 94.2649C604.056 93.7355 605.091 93.4709 606.219 93.4709C607.358 93.4709 608.394 93.7355 609.326 94.2649C610.269 94.7942 611.012 95.5307 611.552 96.4742C612.105 97.4063 612.381 98.4592 612.381 99.6329C612.381 100.818 612.105 101.883 611.552 102.826C611.012 103.758 610.269 104.489 609.326 105.018C608.382 105.548 607.347 105.812 606.219 105.812ZM606.219 103.655C606.944 103.655 607.582 103.494 608.135 103.171C608.687 102.838 609.119 102.366 609.429 101.756C609.74 101.146 609.895 100.438 609.895 99.6329C609.895 98.8274 609.74 98.1255 609.429 97.5271C609.119 96.9173 608.687 96.4512 608.135 96.129C607.582 95.8068 606.944 95.6457 606.219 95.6457C605.494 95.6457 604.85 95.8068 604.286 96.129C603.733 96.4512 603.302 96.9173 602.991 97.5271C602.68 98.1255 602.525 98.8274 602.525 99.6329C602.525 100.438 602.68 101.146 602.991 101.756C603.302 102.366 603.733 102.838 604.286 103.171C604.85 103.494 605.494 103.655 606.219 103.655Z" fill="white"/>
</svg>
