<svg xmlns="http://www.w3.org/2000/svg" version="1.1" xmlns:xlink="http://www.w3.org/1999/xlink" xmlns:svgjs="http://svgjs.dev/svgjs" width="2000" height="1247" viewBox="0 0 2000 1247"><g transform="matrix(1,0,0,1,-1.2121212121212466,0.5048583434112288)"><svg viewBox="0 0 396 247" data-background-color="#efefef" preserveAspectRatio="xMidYMid meet" height="1247" width="2000" xmlns="http://www.w3.org/2000/svg" xmlns:xlink="http://www.w3.org/1999/xlink"><g id="tight-bounds" transform="matrix(1,0,0,1,0.2400000000000091,-0.09999999132114112)"><svg viewBox="0 0 395.52 247.2" height="247.2" width="395.52"><g><svg></svg></g><g><svg viewBox="0 0 395.52 247.2" height="247.2" width="395.52"><g transform="matrix(1,0,0,1,75.54432,101.93616542037798)"><svg viewBox="0 0 244.43135999999998 43.327669159244046" height="43.327669159244046" width="244.43135999999998"><g><svg viewBox="0 0 308.4458345872866 54.67481371680323" height="43.327669159244046" width="244.43135999999998"><g transform="matrix(1,0,0,1,0,7.556359927575556)"><svg viewBox="0 0 244.43135999999998 39.562093861652116" height="39.562093861652116" width="244.43135999999998"><g id="textblocktransform"><svg viewBox="0 0 244.43135999999998 39.562093861652116" height="39.562093861652116" width="244.43135999999998" id="textblock"><g><svg viewBox="0 0 244.43135999999998 39.562093861652116" height="39.562093861652116" width="244.43135999999998"><g transform="matrix(1,0,0,1,0,0)"><svg width="244.43135999999998" viewBox="2.15 -39 297.78000000000003 48.2" height="39.562093861652116" data-palette-color="#d94e28"><path d="M23.6-25.1L23.6-11.9 21.05-11.9 20.15-17 11.85-17 11.85-3 26.95-3 28.5-11.15 31.4-11.15 31.4 0 2.15 0 2.15-2.15 6.85-3.2 6.85-32.8 2.15-33.85 2.15-36 30.3-36 30.3-25.4 27.7-25.4 26.1-33.1 11.85-33.1 11.85-20 20.15-20 21.05-25.1 23.6-25.1ZM36.05-2.05L39.9-3 39.9-24 36.05-24.95 36.05-27 43.25-27 44.35-22 44.55-22Q46.05-24.55 48.6-26.03 51.15-27.5 54.05-27.5L54.05-27.5Q58.2-27.5 60.2-24.8L60.2-24.8Q61.2-23.4 61.62-20.88 62.05-18.35 62.05-14.05L62.05-14.05 62.05-3 65.9-2.05 65.9 0 53.85 0 53.85-2.05 57.2-3 57.2-14.15Q57.2-17.4 57.02-19 56.85-20.6 56.4-21.5L56.4-21.5Q55.8-22.7 54.67-23.33 53.55-23.95 52-23.95L52-23.95Q49.1-23.95 47-22.1L47-22.1Q44.95-20.25 44.75-16.35L44.75-16.35 44.75-3 48.1-2.05 48.1 0 36.05 0 36.05-2.05ZM72.65-3L72.65-24 68.8-24.95 68.8-27 77.5-27 77.5-3 81.34-2.05 81.34 0 68.8 0 68.8-2.05 72.65-3ZM71.95-35.05L71.95-35.05Q71.95-36.5 72.8-37.35 73.65-38.2 75.05-38.2L75.05-38.2Q76.5-38.2 77.34-37.35 78.2-36.5 78.2-35.05L78.2-35.05Q78.2-33.65 77.34-32.8 76.5-31.95 75.05-31.95L75.05-31.95Q73.59-31.95 72.77-32.77 71.95-33.6 71.95-35.05ZM107.94 0.5L107.94 0.5Q107.94 4.3 104.72 6.75 101.49 9.2 95.74 9.2L95.74 9.2Q91.94 9.2 89.34 8.45 86.74 7.7 85.42 6.3 84.09 4.9 84.09 2.95L84.09 2.95Q84.09 0.6 85.49-0.68 86.89-1.95 89.34-2.3L89.34-2.3 89.34-2.5Q86.04-3.45 86.04-6.4L86.04-6.4Q86.04-7.45 86.54-8.38 87.04-9.3 88.07-10.1 89.09-10.9 90.69-11.45L90.69-11.45Q88.24-12.35 86.89-14.25 85.54-16.15 85.54-18.9L85.54-18.9Q85.54-22.9 88.32-25.2 91.09-27.5 95.74-27.5L95.74-27.5Q98.09-27.5 99.94-26.93 101.79-26.35 103.09-25.2L103.09-25.2 104.79-25.8 109.39-28 110.24-28 110.24-23.6 109.39-23.6 105.89-24 104.19-24Q105.64-22 105.64-19.2L105.64-19.2Q105.64-15.25 102.92-12.98 100.19-10.7 95.39-10.7L95.39-10.7Q94.89-10.7 94.39-10.73 93.89-10.75 93.39-10.8L93.39-10.8Q91.39-10.5 90.42-9.75 89.44-9 89.44-7.85L89.44-7.85Q89.44-6.7 90.34-6.28 91.24-5.85 93.84-5.85L93.84-5.85 99.64-5.85Q103.74-5.85 105.84-4.33 107.94-2.8 107.94 0.5ZM97.44-2L97.44-2 94.19-2Q90.84-2 89.34-0.85 87.84 0.3 87.84 2.15L87.84 2.15Q87.84 6.7 95.64 6.7L95.64 6.7Q99.89 6.7 102.12 5.4 104.34 4.1 104.34 1.6L104.34 1.6Q104.34-0.4 102.82-1.2 101.29-2 97.44-2ZM89.94-19.1L89.94-19.1Q89.94-16.1 91.32-14.55 92.69-13 95.59-13L95.59-13Q98.54-13 99.89-14.55 101.24-16.1 101.24-19.1L101.24-19.1Q101.24-22.1 99.89-23.65 98.54-25.2 95.59-25.2L95.59-25.2Q92.69-25.2 91.32-23.65 89.94-22.1 89.94-19.1ZM112.39-2.05L116.24-3 116.24-24 112.39-24.95 112.39-27 119.59-27 120.69-22 120.89-22Q122.34-24.5 124.77-26 127.19-27.5 129.94-27.5L129.94-27.5Q131.99-27.5 133.59-26.73 135.19-25.95 135.94-24.8L135.94-24.8Q136.74-23.55 137.24-21.5L137.24-21.5Q138.84-24.3 141.39-25.9 143.94-27.5 146.84-27.5L146.84-27.5Q148.84-27.5 150.44-26.73 152.04-25.95 152.89-24.6L152.89-24.6Q153.49-23.65 153.84-22.15 154.19-20.65 154.34-18.28 154.49-15.9 154.49-12.25L154.49-12.25 154.49-3 158.34-2.05 158.34 0 146.29 0 146.29-2.05 149.64-3 149.64-14.15Q149.64-17.4 149.47-19 149.29-20.6 148.84-21.5L148.84-21.5Q148.24-22.7 147.17-23.33 146.09-23.95 144.64-23.95L144.64-23.95Q143.39-23.95 142.19-23.45 140.99-22.95 140.04-22.1L140.04-22.1Q138.94-21.1 138.42-19.75 137.89-18.4 137.79-16.35L137.79-16.35 137.79-3 141.14-2.05 141.14 0 129.59 0 129.59-2.05 132.94-3 132.94-14.15Q132.94-17.4 132.77-19 132.59-20.6 132.14-21.5L132.14-21.5Q131.54-22.7 130.47-23.33 129.39-23.95 127.94-23.95L127.94-23.95Q126.69-23.95 125.49-23.45 124.29-22.95 123.34-22.1L123.34-22.1Q122.24-21.1 121.72-19.75 121.19-18.4 121.09-16.35L121.09-16.35 121.09-3 124.44-2.05 124.44 0 112.39 0 112.39-2.05ZM161.24-5.85L161.24-5.85Q161.24-9.75 164.89-12 168.54-14.25 176.99-15.5L176.99-15.5Q176.79-18.45 176.44-20.1 176.09-21.75 175.54-22.75L175.54-22.75Q174.84-24.05 173.59-24.68 172.34-25.3 170.89-25.3L170.89-25.3Q169.49-25.3 168.36-24.8 167.24-24.3 166.84-23.45L166.84-23.45Q167.54-22.95 167.86-22.15 168.19-21.35 168.19-20.65L168.19-20.65Q168.19-19.4 167.36-18.68 166.54-17.95 165.34-17.95L165.34-17.95Q164.14-17.95 163.36-18.75 162.59-19.55 162.59-21L162.59-21Q162.59-23.1 164.04-24.55 165.49-26 167.71-26.75 169.94-27.5 172.19-27.5L172.19-27.5Q174.24-27.5 175.96-26.88 177.69-26.25 178.89-25.05L178.89-25.05Q181.99-21.95 181.99-14.05L181.99-14.05 181.99-6.8Q181.99-4.35 182.31-3.4 182.64-2.45 183.74-2.45L183.74-2.45 185.99-2.45 185.99-0.95Q182.39 0.5 180.39 0.5L180.39 0.5Q178.84 0.5 178.31-0.63 177.79-1.75 177.79-4.95L177.79-4.95 177.59-4.95Q176.04-2.4 173.49-0.95 170.94 0.5 167.99 0.5L167.99 0.5Q164.84 0.5 163.04-1.2 161.24-2.9 161.24-5.85ZM170.09-2.4L170.09-2.4Q171.49-2.4 173.01-3.13 174.54-3.85 175.59-5.15L175.59-5.15Q176.39-6.15 176.76-7.53 177.14-8.9 177.14-10.75L177.14-10.75Q177.14-11.6 177.09-12.43 177.04-13.25 176.94-14L176.94-14Q172.89-13.2 170.59-12.28 168.29-11.35 167.34-10.08 166.39-8.8 166.39-6.9L166.39-6.9Q166.39-4.75 167.36-3.58 168.34-2.4 170.09-2.4ZM185.79-25.5L185.79-36 215.59-36 215.59-25.5 212.99-25.5 211.39-33 203.19-33 203.19-3.35 208.49-2.15 208.49 0 192.89 0 192.89-2.15 198.19-3.35 198.19-33 189.94-33 188.39-25.5 185.79-25.5ZM239.68-13.2L239.68-13.2 222.23-13.2Q222.23-9.55 223.23-7.15L223.23-7.15Q224.23-4.85 226.08-3.85 227.93-2.85 230.08-2.85L230.08-2.85Q232.43-2.85 234.38-3.83 236.33-4.8 237.88-6.5L237.88-6.5 239.48-5.3Q237.73-2.9 235.23-1.2 232.73 0.5 228.78 0.5L228.78 0.5Q225.33 0.5 222.68-0.98 220.03-2.45 218.63-5.3L218.63-5.3Q217.88-6.85 217.53-8.75 217.18-10.65 217.18-12.8L217.18-12.8Q217.18-19.8 220.41-23.65 223.63-27.5 229.18-27.5L229.18-27.5Q234.28-27.5 237.06-24.33 239.83-21.15 239.83-15.55L239.83-15.55Q239.83-15.05 239.81-14.63 239.78-14.2 239.68-13.2ZM228.88-24.8L228.88-24.8Q222.88-24.8 222.28-15.65L222.28-15.65 234.78-15.65 234.78-17.3Q234.78-20.9 233.26-22.85 231.73-24.8 228.88-24.8ZM257.13-27.5L257.13-27.5Q260.03-27.5 262.16-26.53 264.28-25.55 265.46-23.8 266.63-22.05 266.63-19.7L266.63-19.7Q266.63-17.85 265.86-16.85 265.08-15.85 263.53-15.85L263.53-15.85Q262.13-15.85 261.31-16.65 260.48-17.45 260.48-18.8L260.48-18.8Q260.48-20.05 261.16-20.95 261.83-21.85 262.98-22.2L262.98-22.2Q262.23-23.65 260.86-24.3 259.48-24.95 257.43-24.95L257.43-24.95Q253.33-24.95 251.46-22.28 249.58-19.6 249.58-13.95L249.58-13.95Q249.58-11.5 249.91-9.73 250.23-7.95 250.88-6.7L250.88-6.7Q251.88-4.85 253.53-3.85 255.18-2.85 257.43-2.85L257.43-2.85Q259.73-2.85 261.83-3.85 263.93-4.85 265.43-6.7L265.43-6.7 266.93-5.5Q264.93-2.45 262.33-0.98 259.73 0.5 256.23 0.5L256.23 0.5Q252.73 0.5 250.16-0.93 247.58-2.35 246.13-5.1L246.13-5.1Q244.33-8.45 244.33-13.2L244.33-13.2Q244.33-17.55 245.91-20.75 247.48-23.95 250.38-25.73 253.28-27.5 257.13-27.5ZM287.88-2.05L291.23-3 291.23-14.15Q291.23-17.4 291.05-19 290.88-20.6 290.43-21.5L290.43-21.5Q289.23-23.95 286.03-23.95L286.03-23.95Q284.63-23.95 283.33-23.45 282.03-22.95 281.03-22.1L281.03-22.1Q279.93-21.15 279.4-19.83 278.88-18.5 278.78-16.55L278.78-16.55 278.78-3 282.13-2.05 282.13 0 270.08 0 270.08-2.05 273.93-3 273.93-36 270.08-36.95 270.08-39 278.78-39 278.78-22.3Q280.28-24.7 282.75-26.1 285.23-27.5 288.08-27.5L288.08-27.5Q290.08-27.5 291.68-26.8 293.28-26.1 294.23-24.8L294.23-24.8Q295.23-23.4 295.65-20.88 296.08-18.35 296.08-14.05L296.08-14.05 296.08-3 299.93-2.05 299.93 0 287.88 0 287.88-2.05Z" opacity="1" transform="matrix(1,0,0,1,0,0)" fill="#d94e28" class="wordmark-text-0" data-fill-palette-color="primary" id="text-0"></path></svg></g></svg></g></svg></g></svg></g><g transform="matrix(1,0,0,1,253.77102087048337,0)"><svg viewBox="0 0 54.67481371680323 54.67481371680323" height="54.67481371680323" width="54.67481371680323"><g data-palette-color="#f9744c"><rect width="14.944449082592882" height="54.67481371680323" fill="#f9744c" stroke="transparent" data-fill-palette-color="accent" x="0" fill-opacity="1"></rect><rect width="14.944449082592882" height="54.67481371680323" fill="#f9744c" stroke="transparent" data-fill-palette-color="accent" x="18.224937905601077" fill-opacity="0.75"></rect><rect width="14.944449082592882" height="54.67481371680323" fill="#f9744c" stroke="transparent" data-fill-palette-color="accent" x="36.449875811202155" fill-opacity="0.5"></rect></g></svg></g></svg></g></svg></g><g><path d="M245.816 0c68.262 0 123.6 55.338 123.6 123.6 0 68.262-55.338 123.6-123.6 123.6-59.569 0-109.295-42.14-120.995-98.236l1.444 0c11.677 55.309 60.766 96.822 119.551 96.822 67.482 0 122.186-54.705 122.186-122.186 0-67.482-54.705-122.186-122.186-122.186-58.785 0-107.874 41.513-119.551 96.821h-1.444c11.7-56.096 61.426-98.236 120.995-98.235z" fill="#d94e28" stroke="transparent" data-fill-palette-color="tertiary"></path></g></svg></g><defs></defs></svg><rect width="395.52" height="247.2" fill="none" stroke="none" visibility="hidden"></rect></g></svg></g></svg>