<svg xmlns="http://www.w3.org/2000/svg" version="1.1" xmlns:xlink="http://www.w3.org/1999/xlink" xmlns:svgjs="http://svgjs.dev/svgjs" width="2000" height="474" viewBox="0 0 2000 474"><g transform="matrix(1,0,0,1,-1.2121212121212466,-1.2403460139439346)"><svg viewBox="0 0 396 94" data-background-color="#ffffff" preserveAspectRatio="xMidYMid meet" height="474" width="2000" xmlns="http://www.w3.org/2000/svg" xmlns:xlink="http://www.w3.org/1999/xlink"><g id="tight-bounds" transform="matrix(1,0,0,1,0.2400000000000091,0.24597579179479112)"><svg viewBox="0 0 395.52 93.50804841641043" height="93.50804841641043" width="395.52"><g><svg viewBox="0 0 546.9052245647645 129.29824084190386" height="93.50804841641043" width="395.52"><g transform="matrix(1,0,0,1,0,17.869727931116962)"><svg viewBox="0 0 395.52 93.55878497966994" height="93.55878497966994" width="395.52"><g id="textblocktransform"><svg viewBox="0 0 395.52 93.55878497966994" height="93.55878497966994" width="395.52" id="textblock"><g><svg viewBox="0 0 395.52 93.55878497966994" height="93.55878497966994" width="395.52"><g transform="matrix(1,0,0,1,0,0)"><svg width="395.52" viewBox="3.15 -40.5 209.03 49.45" height="93.55878497966994" data-palette-color="#e63229"><path d="M18.95 0L3.15 0 3.15-40.5 18.85-40.5 18.85-36.3 8.8-36.3 8.8-22.9 16.95-22.9 16.95-18.9 8.8-18.9 8.8-4.05 18.95-4.05 18.95 0ZM28.4 0L23.05 0 23.05-28.9 28.4-28.9 28.4-26.05Q29.85-27.4 31.6-28.35 33.35-29.3 35.45-29.3L35.45-29.3Q37.2-29.3 38.12-28.4 39.05-27.5 39.42-26.15 39.8-24.8 39.8-23.4L39.8-23.4 39.8 0 34.45 0 34.45-21.85Q34.45-23.4 34-24.25 33.55-25.1 32.15-25.1L32.15-25.1Q31.25-25.1 30.27-24.58 29.3-24.05 28.4-23.3L28.4-23.3 28.4 0ZM50.7 0L45.34 0 45.34-28.9 50.7-28.9 50.7 0ZM50.7-33.2L45.34-33.2 45.34-38.8 50.7-38.8 50.7-33.2ZM63.94 8.95L63.94 8.95Q61.34 8.95 59.24 8.4 57.14 7.85 55.94 6.65 54.74 5.45 54.74 3.5L54.74 3.5Q54.74 2.1 55.34 1.05 55.94 0 56.89-0.78 57.84-1.55 58.89-2.05L58.89-2.05Q57.49-2.45 56.79-3.33 56.09-4.2 56.09-5.15L56.09-5.15Q56.09-6.75 56.94-7.9 57.79-9.05 59.29-10.4L59.29-10.4Q57.64-11.65 56.79-13.6 55.94-15.55 55.94-19L55.94-19Q55.94-22.4 56.87-24.68 57.79-26.95 59.62-28.13 61.44-29.3 64.09-29.3L64.09-29.3Q66.44-29.3 67.87-28.5 69.29-27.7 70.04-26.1L70.04-26.1Q70.29-26.5 71.39-27.48 72.49-28.45 73.94-29.1L73.94-29.1 74.74-29.45 76.09-26Q75.44-25.9 74.37-25.53 73.29-25.15 72.37-24.78 71.44-24.4 71.19-24.15L71.19-24.15Q71.54-23.3 71.82-21.7 72.09-20.1 72.09-18.85L72.09-18.85Q72.09-15.9 71.34-13.65 70.59-11.4 68.87-10.13 67.14-8.85 64.09-8.85L64.09-8.85Q63.44-8.85 62.69-8.95 61.94-9.05 61.34-9.2L61.34-9.2Q61.04-8.75 60.72-8.15 60.39-7.55 60.39-7L60.39-7Q60.39-6.45 60.97-6.13 61.54-5.8 62.79-5.7L62.79-5.7 67.29-5.3Q70.69-5 72.34-3.25 73.99-1.5 73.99 1.75L73.99 1.75Q73.99 4.1 72.89 5.73 71.79 7.35 69.57 8.15 67.34 8.95 63.94 8.95ZM64.34 4.75L64.34 4.75Q67.19 4.75 68.54 4.08 69.89 3.4 69.89 1.9L69.89 1.9Q69.89 1 69.57 0.4 69.24-0.2 68.39-0.55 67.54-0.9 65.94-1.05L65.94-1.05 61.39-1.45Q60.84-0.9 60.34-0.35 59.84 0.2 59.54 0.83 59.24 1.45 59.24 2.15L59.24 2.15Q59.24 3.45 60.34 4.1 61.44 4.75 64.34 4.75ZM64.09-12.6L64.09-12.6Q65.24-12.6 65.92-13.03 66.59-13.45 66.94-14.28 67.29-15.1 67.42-16.3 67.54-17.5 67.54-19L67.54-19Q67.54-20.5 67.42-21.73 67.29-22.95 66.97-23.83 66.64-24.7 65.97-25.15 65.29-25.6 64.14-25.6L64.14-25.6Q63.04-25.6 62.32-25.15 61.59-24.7 61.24-23.88 60.89-23.05 60.74-21.83 60.59-20.6 60.59-19L60.59-19Q60.59-17.65 60.72-16.48 60.84-15.3 61.22-14.45 61.59-13.6 62.29-13.1 62.99-12.6 64.09-12.6ZM83.14 0L78.19 0 78.19-28.9 83.14-28.9 83.14-26.15Q84.59-27.8 86.34-28.6 88.09-29.4 89.94-29.4L89.94-29.4Q91.54-29.4 92.82-28.6 94.09-27.8 94.64-25.75L94.64-25.75Q96.19-27.65 98.02-28.53 99.84-29.4 101.84-29.4L101.84-29.4Q103.24-29.4 104.39-28.73 105.54-28.05 106.24-26.58 106.94-25.1 106.94-22.7L106.94-22.7 106.94 0 102.04 0 102.04-22.35Q102.04-24.45 101.37-25.18 100.69-25.9 99.54-25.9L99.54-25.9Q98.44-25.9 97.24-25.28 96.04-24.65 95.04-23.55L95.04-23.55Q95.04-23.35 95.04-23.15 95.04-22.95 95.04-22.7L95.04-22.7 95.04 0 90.14 0 90.14-22.35Q90.14-24.45 89.47-25.18 88.79-25.9 87.64-25.9L87.64-25.9Q86.54-25.9 85.37-25.28 84.19-24.65 83.14-23.55L83.14-23.55 83.14 0ZM117.39 0.4L117.39 0.4Q115.69 0.4 114.39-0.58 113.09-1.55 112.34-3.08 111.59-4.6 111.59-6.3L111.59-6.3Q111.59-9 112.49-10.85 113.39-12.7 114.96-13.98 116.54-15.25 118.61-16.2 120.69-17.15 122.99-18.05L122.99-18.05 122.99-20.1Q122.99-21.85 122.79-23 122.59-24.15 121.96-24.73 121.34-25.3 120.09-25.3L120.09-25.3Q118.99-25.3 118.31-24.8 117.64-24.3 117.34-23.38 117.04-22.45 117.04-21.2L117.04-21.2 117.04-19.75 111.74-19.95Q111.84-24.75 113.94-27.03 116.04-29.3 120.44-29.3L120.44-29.3Q124.74-29.3 126.54-26.95 128.34-24.6 128.34-20.15L128.34-20.15 128.34-6.95Q128.34-5.6 128.41-4.35 128.49-3.1 128.61-2.02 128.74-0.95 128.84 0L128.84 0 123.94 0Q123.79-0.8 123.56-2.02 123.34-3.25 123.24-4.25L123.24-4.25Q122.74-2.55 121.31-1.07 119.89 0.4 117.39 0.4ZM119.49-4.2L119.49-4.2Q120.29-4.2 120.99-4.65 121.69-5.1 122.24-5.68 122.79-6.25 122.99-6.6L122.99-6.6 122.99-14.8Q121.74-14.1 120.64-13.4 119.54-12.7 118.71-11.93 117.89-11.15 117.41-10.18 116.94-9.2 116.94-7.95L116.94-7.95Q116.94-6.2 117.59-5.2 118.24-4.2 119.49-4.2ZM144.04 0L138.39 0 138.39-36.3 131.54-36.3 131.54-40.5 150.69-40.5 150.69-36.3 144.04-36.3 144.04 0ZM161.53 0.4L161.53 0.4Q158.13 0.4 156.28-0.93 154.43-2.25 153.71-4.83 152.98-7.4 152.98-11.15L152.98-11.15 152.98-17.75Q152.98-21.6 153.73-24.15 154.48-26.7 156.36-28 158.23-29.3 161.53-29.3L161.53-29.3Q165.18-29.3 166.91-27.8 168.63-26.3 169.18-23.48 169.73-20.65 169.73-16.7L169.73-16.7 169.73-14.35 158.33-14.35 158.33-8.55Q158.33-6.8 158.66-5.7 158.98-4.6 159.71-4.08 160.43-3.55 161.58-3.55L161.58-3.55Q162.78-3.55 163.41-4.13 164.03-4.7 164.26-5.78 164.48-6.85 164.48-8.3L164.48-8.3 164.48-10.05 169.68-10.05 169.68-8.95Q169.68-4.6 167.83-2.1 165.98 0.4 161.53 0.4ZM158.33-18.8L158.33-17.25 164.48-17.25 164.48-19.85Q164.48-21.65 164.28-22.88 164.08-24.1 163.46-24.73 162.83-25.35 161.48-25.35L161.48-25.35Q160.18-25.35 159.51-24.75 158.83-24.15 158.58-22.73 158.33-21.3 158.33-18.8L158.33-18.8ZM182.48 0.4L182.48 0.4Q178.93 0.4 177.11-1.03 175.28-2.45 174.66-5.05 174.03-7.65 174.03-11.1L174.03-11.1 174.03-17.75Q174.03-21.4 174.68-23.98 175.33-26.55 177.16-27.93 178.98-29.3 182.48-29.3L182.48-29.3Q185.63-29.3 187.36-28.28 189.08-27.25 189.73-25.23 190.38-23.2 190.38-20.2L190.38-20.2 190.38-18.5 185.53-18.5 185.53-20.25Q185.53-22.15 185.28-23.25 185.03-24.35 184.38-24.85 183.73-25.35 182.53-25.35L182.53-25.35Q181.23-25.35 180.53-24.75 179.83-24.15 179.61-22.73 179.38-21.3 179.38-18.85L179.38-18.85 179.38-9.75Q179.38-6.05 180.08-4.8 180.78-3.55 182.58-3.55L182.58-3.55Q183.93-3.55 184.56-4.17 185.18-4.8 185.36-5.95 185.53-7.1 185.53-8.55L185.53-8.55 185.53-10.9 190.38-10.9 190.38-8.9Q190.38-6 189.71-3.9 189.03-1.8 187.31-0.7 185.58 0.4 182.48 0.4ZM200.63 0L195.28 0 195.28-40.5 200.63-40.5 200.63-25.9Q202.08-27.3 203.88-28.3 205.68-29.3 207.88-29.3L207.88-29.3Q209.58-29.3 210.5-28.4 211.43-27.5 211.8-26.15 212.18-24.8 212.18-23.4L212.18-23.4 212.18 0 206.83 0 206.83-21.85Q206.83-23.4 206.38-24.25 205.93-25.1 204.53-25.1L204.53-25.1Q203.58-25.1 202.55-24.55 201.53-24 200.63-23.2L200.63-23.2 200.63 0Z" opacity="1" transform="matrix(1,0,0,1,0,0)" fill="#e63229" class="wordmark-text-0" data-fill-palette-color="primary" id="text-0"></path></svg></g></svg></g></svg></g></svg></g><g transform="matrix(1,0,0,1,417.60698372286055,0)"><svg viewBox="0 0 129.29824084190386 129.29824084190386" height="129.29824084190386" width="129.29824084190386"><g data-palette-color="#fe633d"><rect width="35.34151916345372" height="129.29824084190386" fill="#fe633d" stroke="transparent" data-fill-palette-color="accent" x="0" fill-opacity="1"></rect><rect width="35.34151916345372" height="129.29824084190386" fill="#fe633d" stroke="transparent" data-fill-palette-color="accent" x="43.09941361396795" fill-opacity="0.75"></rect><rect width="35.34151916345372" height="129.29824084190386" fill="#fe633d" stroke="transparent" data-fill-palette-color="accent" x="86.1988272279359" fill-opacity="0.5"></rect></g></svg></g></svg></g><defs></defs></svg><rect width="395.52" height="93.50804841641043" fill="none" stroke="none" visibility="hidden"></rect></g></svg></g></svg>