<svg width="529" height="367" viewBox="0 0 529 367" fill="none" xmlns="http://www.w3.org/2000/svg">
<g clip-path="url(#clip0_2080_1761)">
<path d="M44.8148 353.547C41.1492 354.811 37.1007 358.9 40.0277 361.294C41.0535 362.141 42.558 362.23 43.9326 362.28C183.834 367.057 323.799 368.201 463.828 365.711C467.726 365.636 472.37 365.168 474.189 361.983C476.008 358.798 473.505 354.565 469.908 352.985C466.311 351.405 462.173 351.664 458.214 351.885C441.1 352.841 423.928 352.304 406.923 350.28C401.514 349.648 395.981 348.808 391.153 346.527C387.83 344.96 384.889 342.735 381.524 341.263C375.992 338.799 369.68 338.413 363.552 338.104C318.011 335.766 272.42 335.119 226.779 336.164C203.983 336.69 181.203 337.638 158.44 339.007C149.481 339.544 139.066 338.893 130.613 341.882C122.16 344.871 115.527 348.201 106.37 349.168C85.9837 351.323 64.5718 346.881 44.8148 353.547Z" fill="url(#paint0_linear_2080_1761)"/>
<path d="M133.156 349.472C133.094 350.349 133.297 351.224 133.744 352C134.399 352.851 135.274 353.537 136.288 353.997C142.824 357.332 149.607 360.238 156.585 362.692C158.247 363.235 160.005 363.867 161.776 363.684C163.547 363.501 165.305 362.325 165.503 360.695C165.701 359.336 164.716 358.073 163.834 356.986C159.129 351.185 154.26 345.39 149.227 339.773C148.918 339.399 148.557 339.066 148.153 338.781C147.599 338.534 147.001 338.38 146.389 338.326C143.051 337.871 137.074 335.88 134.332 338.686C131.877 341.138 133.053 346.427 133.156 349.472Z" fill="black"/>
<path d="M133.156 349.472C133.094 350.349 133.297 351.224 133.744 352C134.399 352.851 135.274 353.537 136.288 353.997C142.824 357.332 149.607 360.238 156.585 362.692C158.247 363.235 160.005 363.867 161.776 363.684C163.547 363.501 165.305 362.325 165.503 360.695C165.701 359.336 164.716 358.073 163.834 356.986C159.129 351.185 154.26 345.39 149.227 339.773C148.918 339.399 148.557 339.066 148.153 338.781C147.599 338.534 147.001 338.38 146.389 338.326C143.051 337.871 137.074 335.88 134.332 338.686C131.877 341.138 133.053 346.427 133.156 349.472Z" fill="url(#paint1_linear_2080_1761)"/>
<path opacity="0.18" d="M159.292 6.7276C178.215 -0.792049 199.777 3.46698 220.362 3.64391C249.187 3.82716 279.174 -4.14746 306.037 5.36901C322.019 10.9803 334.862 22.304 347.212 33.2612C365.738 49.7476 384.654 66.6889 396.321 87.883C401.108 96.6664 404.753 106.208 411.715 113.608C424.654 127.194 445.731 130.183 463.86 137.064C497.288 149.841 522.974 179.098 528.068 212.159C533.163 245.221 516.894 280.633 486.804 299.034C460.434 315.16 427.396 317.694 395.849 319.779L211.15 331.994C169.687 334.711 127.239 337.428 87.3696 326.464C52.1504 316.866 17.6697 294.13 4.99761 261.157C-9.99963 222.39 11.7611 183.623 30.4854 149.386C42.248 127.901 56.363 109.077 73.0289 90.6191C96.7523 64.5152 124.784 20.402 159.292 6.7276Z" fill="black"/>
<path d="M431.413 143.262C435.365 143.862 447.702 145.158 449.077 141.733C449.761 140.121 447.251 132.602 447.237 130.851C447.237 126.946 443.709 125.499 442.156 121.878C442.06 121.577 441.869 121.309 441.609 121.107C441.331 121.002 441.028 120.967 440.731 121.007C440.434 121.047 440.154 121.16 439.92 121.335C436.159 123.388 427.788 124.64 426.448 128.64C431.96 130.851 429.689 139.995 431.413 143.262Z" fill="url(#paint2_linear_2080_1761)"/>
<path d="M379.266 342.047C372.223 343.056 365.059 343.116 357.998 342.224C359.762 338.243 361.526 334.072 361.328 329.725C361.232 326.647 360.056 323.658 359.071 320.669C355.628 310.566 353.619 300.092 353.094 289.51C352.992 286.793 352.992 283.893 354.756 281.719C355.939 280.272 357.799 279.457 359.66 278.825C374.759 273.77 375.149 289.239 376.23 298.565C377.994 313.061 378.972 327.551 379.266 342.047Z" fill="url(#paint3_linear_2080_1761)"/>
<path d="M93.7088 296.848C94.4431 296.847 95.1704 296.98 95.849 297.239C96.5277 297.498 97.1444 297.878 97.664 298.358C98.1835 298.837 98.5957 299.406 98.8769 300.033C99.1581 300.66 99.3028 301.332 99.3028 302.01V347.394H88.1079V302.01C88.1079 301.331 88.2529 300.659 88.5345 300.032C88.8162 299.405 89.2289 298.835 89.7492 298.355C90.2695 297.876 90.887 297.496 91.5665 297.237C92.2459 296.978 92.9739 296.846 93.7088 296.848Z" fill="black"/>
<path d="M117.83 341.864H71.3611C69.3593 341.864 67.7366 343.364 67.7366 345.213V345.22C67.7366 347.069 69.3593 348.569 71.3611 348.569H117.83C119.832 348.569 121.454 347.069 121.454 345.22V345.213C121.454 343.364 119.832 341.864 117.83 341.864Z" fill="black"/>
<path d="M93.7088 296.848C96.7999 296.848 99.3028 298.908 99.3028 301.454V341.934H88.1079V301.454C88.1079 298.908 90.6245 296.848 93.7088 296.848Z" fill="#033649"/>
<path d="M117.83 341.864H71.3611C69.3593 341.864 67.7366 343.364 67.7366 345.213V345.22C67.7366 347.069 69.3593 348.569 71.3611 348.569H117.83C119.832 348.569 121.454 347.069 121.454 345.22V345.213C121.454 343.364 119.832 341.864 117.83 341.864Z" fill="url(#paint4_linear_2080_1761)"/>
<path d="M69.5008 358.255C72.3146 358.255 74.5957 356.147 74.5957 353.547C74.5957 350.948 72.3146 348.84 69.5008 348.84C66.687 348.84 64.406 350.948 64.406 353.547C64.406 356.147 66.687 358.255 69.5008 358.255Z" fill="#033649"/>
<path d="M94.108 358.255C96.9218 358.255 99.2028 356.147 99.2028 353.547C99.2028 350.948 96.9218 348.84 94.108 348.84C91.2942 348.84 89.0132 350.948 89.0132 353.547C89.0132 356.147 91.2942 358.255 94.108 358.255Z" fill="#033649"/>
<path d="M118.713 358.255C121.527 358.255 123.808 356.147 123.808 353.547C123.808 350.948 121.527 348.84 118.713 348.84C115.899 348.84 113.618 350.948 113.618 353.547C113.618 356.147 115.899 358.255 118.713 358.255Z" fill="#033649"/>
<path d="M69.5008 358.255C72.3146 358.255 74.5957 356.147 74.5957 353.547C74.5957 350.948 72.3146 348.84 69.5008 348.84C66.687 348.84 64.406 350.948 64.406 353.547C64.406 356.147 66.687 358.255 69.5008 358.255Z" fill="#033649"/>
<path d="M69.4686 356.132C70.9681 356.132 72.1836 355.008 72.1836 353.623C72.1836 352.237 70.9681 351.114 69.4686 351.114C67.9692 351.114 66.7537 352.237 66.7537 353.623C66.7537 355.008 67.9692 356.132 69.4686 356.132Z" fill="#033649"/>
<path d="M94.108 358.255C96.9218 358.255 99.2028 356.147 99.2028 353.547C99.2028 350.948 96.9218 348.84 94.108 348.84C91.2942 348.84 89.0132 350.948 89.0132 353.547C89.0132 356.147 91.2942 358.255 94.108 358.255Z" fill="#033649"/>
<path d="M94.046 355.898C95.5341 355.898 96.7405 354.784 96.7405 353.409C96.7405 352.034 95.5341 350.919 94.046 350.919C92.5579 350.919 91.3516 352.034 91.3516 353.409C91.3516 354.784 92.5579 355.898 94.046 355.898Z" fill="#033649"/>
<path d="M118.713 358.255C121.527 358.255 123.808 356.147 123.808 353.547C123.808 350.948 121.527 348.84 118.713 348.84C115.899 348.84 113.618 350.948 113.618 353.547C113.618 356.147 115.899 358.255 118.713 358.255Z" fill="#033649"/>
<path d="M118.667 356.113C120.223 356.113 121.484 354.948 121.484 353.51C121.484 352.072 120.223 350.906 118.667 350.906C117.111 350.906 115.849 352.072 115.849 353.51C115.849 354.948 117.111 356.113 118.667 356.113Z" fill="#033649"/>
<path d="M424.921 296.846C426.403 296.846 427.824 297.39 428.872 298.358C429.92 299.326 430.509 300.639 430.509 302.008V347.392H419.334V302.008C419.334 300.639 419.923 299.326 420.971 298.358C422.018 297.39 423.44 296.846 424.921 296.846Z" fill="black"/>
<path d="M449.036 341.862H402.567C400.565 341.862 398.942 343.362 398.942 345.211V345.218C398.942 347.067 400.565 348.567 402.567 348.567H449.036C451.038 348.567 452.66 347.067 452.66 345.218V345.211C452.66 343.362 451.038 341.862 449.036 341.862Z" fill="black"/>
<path d="M424.921 296.846C428.006 296.846 430.509 298.906 430.509 301.452V341.932H419.334V301.452C419.334 298.906 421.837 296.846 424.921 296.846Z" fill="#033649"/>
<path d="M449.036 341.862H402.567C400.565 341.862 398.942 343.362 398.942 345.211V345.218C398.942 347.067 400.565 348.567 402.567 348.567H449.036C451.038 348.567 452.66 347.067 452.66 345.218V345.211C452.66 343.362 451.038 341.862 449.036 341.862Z" fill="url(#paint5_linear_2080_1761)"/>
<path d="M400.707 358.254C403.52 358.254 405.801 356.146 405.801 353.547C405.801 350.947 403.52 348.839 400.707 348.839C397.893 348.839 395.612 350.947 395.612 353.547C395.612 356.146 397.893 358.254 400.707 358.254Z" fill="#033649"/>
<path d="M425.312 358.254C428.125 358.254 430.406 356.146 430.406 353.547C430.406 350.947 428.125 348.839 425.312 348.839C422.498 348.839 420.217 350.947 420.217 353.547C420.217 356.146 422.498 358.254 425.312 358.254Z" fill="#033649"/>
<path d="M449.919 358.254C452.732 358.254 455.013 356.146 455.013 353.547C455.013 350.947 452.732 348.839 449.919 348.839C447.105 348.839 444.824 350.947 444.824 353.547C444.824 356.146 447.105 358.254 449.919 358.254Z" fill="#033649"/>
<path d="M400.707 358.254C403.52 358.254 405.801 356.146 405.801 353.547C405.801 350.947 403.52 348.839 400.707 348.839C397.893 348.839 395.612 350.947 395.612 353.547C395.612 356.146 397.893 358.254 400.707 358.254Z" fill="url(#paint6_linear_2080_1761)"/>
<path d="M400.672 356.131C402.171 356.131 403.387 355.007 403.387 353.622C403.387 352.236 402.171 351.113 400.672 351.113C399.173 351.113 397.957 352.236 397.957 353.622C397.957 355.007 399.173 356.131 400.672 356.131Z" fill="#033649"/>
<path d="M425.312 358.254C428.125 358.254 430.406 356.146 430.406 353.547C430.406 350.947 428.125 348.839 425.312 348.839C422.498 348.839 420.217 350.947 420.217 353.547C420.217 356.146 422.498 358.254 425.312 358.254Z" fill="#033649"/>
<path d="M425.256 355.896C426.745 355.896 427.951 354.782 427.951 353.407C427.951 352.032 426.745 350.917 425.256 350.917C423.768 350.917 422.562 352.032 422.562 353.407C422.562 354.782 423.768 355.896 425.256 355.896Z" fill="url(#paint7_linear_2080_1761)"/>
<path d="M449.919 358.254C452.732 358.254 455.013 356.146 455.013 353.547C455.013 350.947 452.732 348.839 449.919 348.839C447.105 348.839 444.824 350.947 444.824 353.547C444.824 356.146 447.105 358.254 449.919 358.254Z" fill="url(#paint8_linear_2080_1761)"/>
<path d="M449.87 356.112C451.426 356.112 452.688 354.947 452.688 353.509C452.688 352.071 451.426 350.905 449.87 350.905C448.314 350.905 447.052 352.071 447.052 353.509C447.052 354.947 448.314 356.112 449.87 356.112Z" fill="url(#paint9_linear_2080_1761)"/>
<path d="M272.073 97.6934L224.847 102.758L233.345 170.417L280.571 165.352L272.073 97.6934Z" fill="white"/>
<path d="M272.073 97.6934L224.847 102.758L233.345 170.417L280.571 165.352L272.073 97.6934Z" fill="black"/>
<path d="M272.073 97.6934L224.847 102.758L233.345 170.417L280.571 165.352L272.073 97.6934Z" fill="black"/>
<path d="M241.886 130.523C242.411 130.506 242.928 130.655 243.349 130.947C243.958 131.458 243.903 132.362 243.643 133.082C242.829 135.326 240.607 136.874 239.403 138.972C236.428 144.153 240.395 150.978 237.666 156.242C237.132 157.262 236.372 158.168 235.436 158.901C234.499 159.633 233.407 160.176 232.229 160.494C231.622 159.09 231.347 157.582 231.422 156.071C231.361 150.15 232.811 130.131 241.886 130.523Z" fill="url(#paint10_linear_2080_1761)"/>
<path d="M47.4472 118.227C45.5803 112.338 43.5218 106.271 39.0151 101.741C34.5084 97.21 26.7602 94.8593 21.0773 97.9493C19.3129 108.458 17.5485 119.238 19.6069 129.74C21.6654 140.243 28.1348 150.593 38.6253 154.833C29.4068 161.279 29.4068 173.841 30.289 184.438C32.3406 208.987 34.5084 233.531 36.5669 258.08C37.155 264.961 37.7431 271.938 40.9778 278.187C46.271 288.607 58.1293 295.128 70.2885 297.574C82.4477 300.019 95.0855 298.933 107.436 297.846C115.868 297.119 124.594 296.215 131.652 291.956C138.71 287.697 143.613 279.186 140.378 272.026C135.981 262.244 121.551 261.612 109.994 261.252C99.1921 260.985 88.4635 259.525 78.0367 256.905C75.6842 256.361 73.2496 255.641 71.369 254.093C69.119 252.197 68.1343 249.385 67.3547 246.756C60.2971 223.749 59.4081 198.877 61.5691 175.061C63.4908 155.13 53.6226 137.159 47.4472 118.227Z" fill="#033649"/>
<path d="M129.197 273.656C131.55 295.4 131.55 317.32 131.55 339.146C138.149 339.587 144.769 339.707 151.382 339.506C151.335 334.294 151.728 329.086 152.558 323.93C153.147 320.398 154.029 316.865 154.713 313.244C157.808 297.5 157.307 281.331 153.242 265.776C152.668 263.366 151.881 261.003 150.89 258.711C150.206 257.176 149.228 255.552 147.559 254.92C145.891 254.288 143.737 254.831 141.972 255.375C138.443 256.462 134.819 257.549 131.283 258.724C128.835 259.451 124.13 260.082 122.954 262.439C121.777 264.613 123.542 266.155 125.211 267.419C127.83 269.334 128.903 270.307 129.197 273.656Z" fill="black"/>
<path d="M129.197 273.656C131.55 295.4 131.55 317.32 131.55 339.146C138.149 339.587 144.769 339.707 151.382 339.506C151.335 334.294 151.728 329.086 152.558 323.93C153.147 320.398 154.029 316.865 154.713 313.244C157.808 297.5 157.307 281.331 153.242 265.776C152.668 263.366 151.881 261.003 150.89 258.711C150.206 257.176 149.228 255.552 147.559 254.92C145.891 254.288 143.737 254.831 141.972 255.375C138.443 256.462 134.819 257.549 131.283 258.724C128.835 259.451 124.13 260.082 122.954 262.439C121.777 264.613 123.542 266.155 125.211 267.419C127.83 269.334 128.903 270.307 129.197 273.656Z" fill="url(#paint11_linear_2080_1761)"/>
<path d="M100.084 130.183C96.8494 129.728 93.5189 129.279 90.2842 129.551C88.1952 129.798 86.135 130.221 84.1294 130.815C79.8142 131.902 75.6016 133.172 71.7787 135.346C65.6991 138.878 61.5823 144.584 57.8552 150.29C53.0934 157.49 48.8995 164.997 45.3062 172.754C42.8579 178.189 40.7995 183.989 41.2919 189.873C41.4833 191.768 41.88 193.664 43.0562 195.218C44.2945 196.786 45.8593 198.11 47.6587 199.111C49.9154 200.564 52.0696 202.011 54.3264 203.458C56.0908 204.64 58.3476 205.815 60.2077 204.817C61.0899 222.51 61.3839 240.052 62.2593 257.625C62.3619 260.153 64.6118 264.785 67.2584 265.6C69.1253 266.143 69.31 263.515 70.8897 262.516C82.1462 255.433 91.3579 245.853 102.471 238.422C113.584 230.99 127.466 225.562 140.603 228.823C139.133 211.522 137.868 194.132 136.78 176.83C151.292 180.457 163.54 189.967 178.148 193.316C180.11 193.771 182.169 194.132 184.132 193.771C186.286 193.405 188.146 192.141 189.91 190.959C202.363 182.808 214.913 174.656 227.359 166.505C228.281 166.048 229.006 165.311 229.411 164.419C229.903 163.156 229.116 161.892 228.433 160.71C226.381 157.45 224.411 154.189 222.353 151.017C210.553 159.92 196.704 166.21 181.868 169.405C179.611 169.854 177.259 170.309 175.029 169.677C172.8 169.045 171.104 167.68 169.442 166.321C161.495 159.8 153.952 152.736 145.425 146.941C136.897 141.146 127.186 136.344 116.6 134.891C111.129 134.17 104.447 133.804 101.705 129.279C101.145 129.549 100.604 129.851 100.084 130.183Z" fill="black"/>
<path d="M229.383 164.438C228.979 165.33 228.254 166.067 227.332 166.524C214.885 174.675 202.336 182.827 189.883 190.978C188.119 192.16 186.258 193.424 184.104 193.79C182.142 194.15 180.083 193.79 178.12 193.335C163.513 189.986 151.265 180.476 136.753 176.849L139.215 143.282C147.175 148.881 161.892 160.173 169.401 166.34C171.063 167.699 172.82 169.152 174.988 169.696C177.156 170.239 179.591 169.873 181.827 169.424C196.663 166.229 210.512 159.939 222.312 151.036C224.364 154.195 226.333 157.468 228.392 160.729C229.089 161.911 229.876 163.175 229.383 164.438Z" fill="black"/>
<path d="M229.383 164.438C228.979 165.33 228.254 166.067 227.332 166.524C214.885 174.675 202.336 182.827 189.883 190.978C188.119 192.16 186.258 193.424 184.104 193.79C182.142 194.15 180.083 193.79 178.12 193.335C163.513 189.986 151.265 180.476 136.753 176.849L139.215 143.282C147.175 148.881 161.892 160.173 169.401 166.34C171.063 167.699 172.82 169.152 174.988 169.696C177.156 170.239 179.591 169.873 181.827 169.424C196.663 166.229 210.512 159.939 222.312 151.036C224.364 154.195 226.333 157.468 228.392 160.729C229.089 161.911 229.876 163.175 229.383 164.438Z" fill="black"/>
<path d="M136.748 176.83C137.829 194.132 139.101 211.522 140.571 228.823C127.434 225.562 113.517 230.997 102.439 238.422C91.3601 245.847 82.1484 255.433 70.8782 262.516C69.3053 263.515 69.1139 266.143 67.2469 265.6C64.6003 264.785 62.3504 260.165 62.2478 257.625C61.3656 240.052 61.0716 222.485 60.1962 204.817C58.3361 205.815 56.093 204.64 54.3149 203.458C52.0582 202.011 49.904 200.564 47.6472 199.111C45.8478 198.11 44.2831 196.786 43.0448 195.218C41.8685 193.677 41.4719 191.775 41.2804 189.873C40.788 183.989 42.8464 178.189 45.2947 172.754C48.888 164.997 53.0819 157.49 57.8437 150.29C61.5708 144.603 65.6877 138.878 71.7673 135.346C75.5901 133.172 79.8027 131.902 84.1179 130.815C86.1235 130.221 88.1837 129.798 90.2728 129.551C93.5075 129.279 96.8379 129.728 100.073 130.183C100.577 129.853 101.102 129.551 101.646 129.279C104.381 133.804 111.056 134.17 116.54 134.891C122.386 135.753 128.043 137.48 133.295 140.003C137.528 141.974 135.408 140.685 139.197 143.263C139.669 143.579 137.911 152.881 138.369 153.209L136.748 176.83Z" fill="black"/>
<path d="M78.3102 212.974V207.868C78.2956 207.729 78.3317 207.589 78.4127 207.47C78.4875 207.409 78.5758 207.364 78.6715 207.337C78.7672 207.311 78.868 207.305 78.9667 207.318L100.297 207.571C100.486 207.549 100.678 207.566 100.859 207.622C101.041 207.678 101.206 207.771 101.343 207.893C101.485 208.13 101.534 208.405 101.48 208.671L101.247 211.704C101.276 211.812 101.274 211.924 101.24 212.031C101.207 212.138 101.143 212.234 101.057 212.311C100.97 212.388 100.863 212.442 100.746 212.469C100.63 212.495 100.508 212.493 100.392 212.462H89.9975C86.8722 212.462 82.6185 211.748 79.6027 212.462C77.7289 212.904 78.1734 213.29 78.1255 215.261C78.0845 216.778 78.0503 218.297 78.0229 219.817C77.9682 222.851 77.9454 225.888 77.9545 228.929C77.9545 233.985 78.0708 239.097 78.57 244.158C78.6384 244.86 80.4985 252.506 80.3891 252.613L67.676 264.619C67.676 264.619 62.9915 264.07 62.6769 256.651C62.3623 249.232 59.8525 204.026 59.8525 204.026L69.7139 184.962L81.1277 161.499C81.1277 161.499 78.953 187.919 78.2007 212.487" fill="url(#paint12_linear_2080_1761)"/>
<path d="M123.218 147.667C118.821 132.173 114.643 135.358 107.742 136.375C100.842 137.393 100.377 144.95 100.377 144.95C102.224 154.486 102.429 177.253 102.224 192.741C102.128 205.872 99.4198 217.019 101.67 229.973C101.868 231.237 98.9343 233.354 100.302 233.897C101.127 234.166 102.027 234.166 102.853 233.897C109.418 232.444 114.615 227.376 121.276 226.377C122.063 226.289 122.945 226.106 123.239 225.562C123.361 225.336 123.429 225.088 123.437 224.835C125.297 211.073 127.062 197.303 128.908 183.446C129.401 179.458 129.989 175.383 129.401 171.307C128.32 163.787 123.718 148.843 123.424 149.114" fill="white"/>
<path d="M100.604 146.486C101.117 149.999 103.079 152.855 105.719 155.434C105.867 155.61 106.078 155.731 106.314 155.775C106.532 155.768 106.741 155.694 106.909 155.566C108.977 154.32 110.634 152.571 111.696 150.511C112.387 152.102 112.673 153.819 112.53 155.528C112.216 159.44 112.9 163.554 112.332 167.44C110.998 176.546 109.685 183.964 106.006 194.548C109.008 195.888 114.288 193.569 115.519 190.7C116.75 187.831 116.292 184.628 116.059 181.55C115.061 168.369 118.63 154.947 115.758 141.999C115.679 141.228 115.303 140.508 114.698 139.971C114.051 139.611 113.297 139.448 112.544 139.503C109.53 139.461 106.515 139.529 103.496 139.706C102.714 139.683 101.943 139.877 101.281 140.262C99.9197 141.222 100.378 144.95 100.604 146.486Z" fill="url(#paint13_linear_2080_1761)"/>
<path d="M94.2023 130.726C93.9082 131.63 94.4006 132.54 94.7904 133.443C98.2097 140.236 102.046 146.852 106.067 153.279C108.104 149.124 110.496 145.126 113.221 141.323C113.376 141.076 113.617 140.884 113.905 140.78C114.065 140.792 114.221 140.84 114.357 140.919C114.494 140.998 114.609 141.106 114.691 141.235C117.242 143.68 119.888 146.126 123.219 147.667C124.887 148.388 126.748 149.026 127.726 150.473C128.806 150.562 129.004 149.114 128.806 148.116C127.849 144.469 126.502 140.92 124.785 137.519C123.417 134.802 121.454 131.832 118.22 131.27C116.654 130.998 114.985 131.358 113.433 131.358C108.646 131.453 106.669 128.552 102.942 126.562C99.892 124.837 95.187 127.737 94.2023 130.726Z" fill="white"/>
<path d="M113.222 149.842C113.769 150.434 114.261 151.069 114.692 151.738C115.479 153.368 114.692 155.175 114.104 156.9C112.832 160.521 112.435 164.414 112.141 168.312C111.259 180.812 110.671 193.311 108.223 205.626C107.899 206.867 107.768 208.143 107.833 209.418C108.067 210.729 108.565 211.987 109.303 213.127L112.832 219.648C115.309 216.311 117.225 212.647 118.515 208.78C118.837 207.804 119.066 206.804 119.199 205.791C119.25 204.322 119.051 202.855 118.611 201.443C116.751 193.475 117.243 187.187 117.776 178.347C118.754 171.643 120.081 164.218 120.573 157.494C120.669 155.776 120.573 153.779 119.206 152.515C118.72 152.148 118.132 151.788 118.029 151.251C117.965 150.887 118 150.513 118.132 150.164C118.426 149.077 118.816 147.99 119.11 146.904C119.239 146.649 119.273 146.362 119.206 146.088C119.11 145.633 118.522 145.362 118.029 145.185C116.089 144.313 114.582 142.79 113.817 140.926C114.015 141.381 111.765 144.186 111.663 145.09C111.55 146.795 112.104 148.481 113.222 149.842Z" fill="black"/>
<path d="M224.289 146.941C224.186 145.494 223.995 143.952 224.48 142.593C224.966 141.235 226.149 140.066 227.325 138.966C230.854 135.807 234.287 132.647 237.816 129.551C238.14 130.405 238.273 131.311 238.204 132.214C238.136 133.117 237.869 133.998 237.419 134.802C236.831 135.889 235.853 136.792 235.463 137.961C235.262 138.639 235.163 139.338 235.169 140.04C235.169 143.668 235.853 147.383 235.361 151.004C234.868 154.625 232.817 158.429 229.09 159.699C228.781 159.818 228.44 159.849 228.112 159.787C227.854 159.723 227.619 159.599 227.428 159.427C225.297 157.89 223.752 155.765 223.017 153.361C222.326 151.017 224.385 149.272 224.289 146.941Z" fill="url(#paint14_linear_2080_1761)"/>
<path d="M134.654 201.026C132.302 205.102 132.035 205.999 125.497 210.075C125.357 210.352 125.157 210.599 124.909 210.801C124.69 210.873 124.457 210.903 124.225 210.89C117.66 211.162 111.095 209.892 104.619 209.26C92.4663 208.173 64.0789 208.678 55.51 204.097C50.5109 202.644 40.8615 196.009 40.9641 191.206C40.9641 187.762 40.4991 180.154 43.4397 178.075C43.8158 177.816 44.0005 175.112 44.6365 175.061C45.9222 173.001 45.1357 172.394 49.998 163.478C62.123 141.216 71.7587 135.371 77.1066 133.57C82.4544 131.769 84.0068 157.039 83.1862 160.609C82.3655 164.18 69.7276 184.995 69.7276 184.995C69.7276 184.995 76.792 186.852 81.8731 188.066C98.6348 192.141 116.183 193.045 133.533 193.86C133.827 195.219 135.345 199.762 134.654 201.026Z" fill="black"/>
<path d="M134.524 198.985C132.172 203.061 132.473 203.844 130.1 207.92C129.908 208.192 124.533 210.283 124.287 210.808C124.287 210.865 124.239 210.89 124.218 210.89C117.653 211.162 111.088 209.892 104.612 209.26C92.4594 208.173 64.072 208.678 55.5032 204.097C50.5041 202.644 40.8547 196.009 40.9573 191.206C40.9573 187.762 40.4922 180.154 43.4329 178.075C43.809 177.816 43.9936 175.112 44.6296 175.055C45.9153 173.001 45.1289 172.394 49.9912 163.472C62.123 141.216 71.7587 135.371 77.1066 133.57C82.4544 131.769 84.0068 157.039 83.1862 160.609C82.3655 164.18 69.7276 184.995 69.7276 184.995C69.7276 184.995 76.8262 186.89 81.8731 188.066C98.4706 192.103 115.827 193.026 133.013 193.835H133.533C133.827 195.219 135.208 197.721 134.524 198.985Z" fill="black"/>
<path d="M134.523 198.984C132.171 203.06 132.547 203.287 130.195 207.363C129.996 207.635 124.532 210.282 124.286 210.807C123.988 210.542 123.72 210.25 123.486 209.935C122.595 208.711 122.064 207.294 121.944 205.823C121.824 204.352 122.12 202.877 122.802 201.543C123.55 200.223 124.554 199.041 125.763 198.055C127.85 196.227 130.303 194.793 132.985 193.834H133.504C133.826 195.218 135.207 197.72 134.523 198.984Z" fill="url(#paint15_linear_2080_1761)"/>
<path d="M141.546 198.503C142.913 199.047 144.192 199.678 145.471 200.317C152.426 203.754 159.388 207.268 165.563 211.729C166.247 212.272 167.033 212.904 167.033 213.719C167.033 214.806 165.761 215.444 164.585 215.805C159.361 217.318 153.741 217.192 148.603 215.444C144.684 214.086 140.957 211.817 136.84 211.457C135.865 211.417 134.893 211.33 133.927 211.198C132.489 210.849 131.13 210.267 129.913 209.479C127.362 208.026 124.715 205.852 124.914 203.047C125.208 198.516 130.891 197.359 134.912 197.359C137.162 197.359 139.419 198.08 141.573 197.903C145.102 197.631 148.733 198.263 152.357 198.263C152.942 198.199 153.533 198.326 154.026 198.623C154.284 198.871 154.452 199.187 154.505 199.527C154.557 199.867 154.493 200.214 154.32 200.519C153.636 202.149 151.585 202.876 149.711 203.236C147.748 203.691 145.69 204.051 143.734 203.691C143.204 203.61 142.697 203.432 142.242 203.167C141.788 202.902 141.395 202.556 141.087 202.149C140.789 201.708 140.589 201.216 140.499 200.702C140.379 199.898 140.514 199.079 140.889 198.345" fill="url(#paint16_linear_2080_1761)"/>
<path d="M67.2436 265.6C91.1066 271.298 116.404 268.687 138.318 258.264C138.024 262.245 155.271 320.19 158.704 330.932C158.858 331.386 159.176 331.777 159.604 332.04C160.032 332.303 160.545 332.423 161.057 332.38C166.152 331.836 167.724 334.642 180.465 327.956C171.349 321.637 174.194 256.128 169.195 246.706C166.548 241.72 164.093 236.014 158.609 233.752C152.529 231.224 144.391 233.935 139.296 229.961C139.296 229.961 134.427 224.078 116.045 230.877C97.6621 237.676 67.0453 261.948 67.2436 265.6Z" fill="#525263"/>
<path d="M67.2436 265.6C91.1066 271.298 116.404 268.687 138.318 258.264C138.024 262.245 155.271 320.19 158.704 330.932C158.858 331.386 159.176 331.777 159.604 332.04C160.032 332.303 160.545 332.423 161.057 332.38C166.152 331.836 167.724 334.642 180.465 327.956C171.349 321.637 174.194 256.128 169.195 246.706C166.548 241.72 164.093 236.014 158.609 233.752C152.529 231.224 144.391 233.935 139.296 229.961C139.296 229.961 134.427 224.078 116.045 230.877C97.6621 237.676 67.0453 261.948 67.2436 265.6Z" fill="black"/>
<path d="M414.071 213.512H154.002V232.355H414.071V213.512Z" fill="black"/>
<path d="M166.446 344.941C166.663 345.528 167.075 346.036 167.622 346.395C168.185 346.611 168.784 346.733 169.393 346.755C178.605 346.85 187.427 343.766 196.064 340.777C198.321 339.962 200.578 339.147 202.342 337.617C204.106 336.088 204.886 333.542 203.812 331.551C202.445 329.194 199.025 328.745 196.167 328.651C191.852 328.474 187.536 328.202 183.228 328.019C182.443 327.96 181.653 327.989 180.875 328.107C179.895 328.392 178.943 328.756 178.031 329.194C175.73 330.35 173.296 331.261 170.775 331.911C169.01 332.366 166.364 332.366 164.893 333.636C161.741 336.316 165.078 342.047 166.446 344.941Z" fill="black"/>
<path d="M166.446 344.941C166.663 345.528 167.075 346.036 167.622 346.395C168.185 346.611 168.784 346.733 169.393 346.755C178.605 346.85 187.427 343.766 196.064 340.777C198.321 339.962 200.578 339.147 202.342 337.617C204.106 336.088 204.886 333.542 203.812 331.551C202.445 329.194 199.025 328.745 196.167 328.651C191.852 328.474 187.536 328.202 183.228 328.019C182.443 327.96 181.653 327.989 180.875 328.107C179.895 328.392 178.943 328.756 178.031 329.194C175.73 330.35 173.296 331.261 170.775 331.911C169.01 332.366 166.364 332.366 164.893 333.636C161.741 336.316 165.078 342.047 166.446 344.941Z" fill="url(#paint17_linear_2080_1761)"/>
<path d="M398.482 269.037C392.006 270.668 385.441 273.113 381.714 278.642C380.763 279.977 380.13 281.482 379.855 283.059C379.581 284.637 379.671 286.25 380.121 287.792C382.275 294.674 390.707 296.304 397.901 297.119C412.112 298.661 426.521 299.647 440.834 298.383C451.619 297.385 463.088 294.756 469.947 287.059C472.498 284.254 474.262 280.898 475.828 277.454C482.667 261.695 483.351 244.305 484.034 227.275C484.137 225.196 484.137 223.111 484.137 221.025C484.034 212.811 471.786 210.523 468.353 218.22C466.302 222.839 464.531 226.731 464.134 227.913C460.605 237.872 459.429 251.192 454.238 260.336C449.725 268.311 444.24 266.409 435.22 265.77C422.862 264.908 410.435 266.013 398.482 269.037Z" fill="black"/>
<path d="M398.482 269.037C392.006 270.668 385.441 273.113 381.714 278.642C380.763 279.977 380.13 281.482 379.855 283.059C379.581 284.637 379.671 286.25 380.121 287.792C382.275 294.674 390.707 296.304 397.901 297.119C412.112 298.661 426.521 299.647 440.834 298.383C451.619 297.385 463.088 294.756 469.947 287.059C472.498 284.254 474.262 280.898 475.828 277.454C482.667 261.695 483.351 244.305 484.034 227.275C484.137 225.196 484.137 223.111 484.137 221.025C484.034 212.811 471.786 210.523 468.353 218.22C466.302 222.839 464.531 226.731 464.134 227.913C460.605 237.872 459.429 251.192 454.238 260.336C449.725 268.311 444.24 266.409 435.22 265.77C422.862 264.908 410.435 266.013 398.482 269.037Z" fill="#033649"/>
<path d="M409.071 114.239C410.145 115.326 411.52 116.053 412.491 117.14C415.431 120.217 415.042 125.355 418.57 127.92C420.026 128.859 421.711 129.45 423.474 129.639C428.569 130.454 434.06 130.366 438.375 127.743C441.412 125.848 443.47 122.941 445.139 119.952C448.271 113.797 449.645 106.638 447.785 100.028C444.845 89.9744 429.252 79.1056 418.96 88.4325C415.828 91.2382 416.225 95.8574 415.63 99.573C415.137 102.562 414.454 105.26 412.101 107.636C409.954 109.532 405.933 110.89 409.071 114.239Z" fill="#D38884"/>
<path d="M410.343 95.1299C410.401 95.6659 410.568 96.1869 410.836 96.6654C411.344 97.2128 412.03 97.594 412.792 97.7523C416.977 99.1168 421.318 100.029 425.731 100.469C426.613 99.5658 427.597 98.6622 428.466 97.7523C428.757 98.8169 428.856 99.9185 428.76 101.013C431.53 101.817 434.345 102.483 437.192 103.01C438.17 112.975 435.141 122.845 432.09 132.444C442.649 135.878 453.861 137.266 465.026 136.52C468.561 125.474 470.914 113.771 468.753 102.397C466.592 91.0225 459.541 79.9389 448.367 74.8647C439.545 70.8774 428.952 71.1491 420.034 74.6815C412.012 77.9168 409.366 87.7935 410.343 95.1299Z" fill="black"/>
<path d="M465.606 183.893C464.239 199.653 462.871 215.324 461.503 231.084C461.017 237.156 460.429 243.311 458.562 249.2C455.38 258.951 448.671 267.397 439.558 273.124C430.243 278.925 419.165 281.459 408.284 283.905C392.111 287.532 382.373 285.074 375.746 295.279C348.391 287.374 345.273 270.799 345.656 263.829C346.045 257.125 350.805 253.453 361.521 249.858C379.514 241.554 387.002 239.893 399.654 234.003C414.357 227.122 421.9 211.722 425.641 196.866C429.382 182.01 421.709 165.473 428.472 151.609C432.391 143.553 444.55 132.589 453.091 141.827C461.503 151.167 466.612 173.025 465.606 183.893Z" fill="black"/>
<path d="M465.606 183.894C464.239 199.654 462.871 215.325 461.503 231.085C461.017 237.157 460.429 243.312 458.562 249.201C455.38 258.952 448.671 267.398 439.558 273.125C430.243 278.926 419.165 281.46 408.284 283.906C392.111 287.533 382.373 285.075 375.746 295.28C348.391 287.375 345.273 270.8 345.656 263.824C346.052 257.119 350.805 253.454 361.521 249.859C379.514 241.562 387.002 239.893 399.654 234.004C400.709 233.509 401.736 232.965 402.731 232.374H414.063V222.263C419.773 214.921 423.391 205.802 425.627 196.886C429.252 182.03 421.695 165.493 428.458 151.636C432.384 143.572 444.536 132.609 453.078 141.854C461.619 151.098 466.612 173.025 465.606 183.894Z" fill="#F6AC25"/>
<path d="M451.093 163.667C451.093 163.667 449.432 217.739 439.502 226.914C429.572 236.089 382.057 255.982 377.68 257.012C373.392 257.991 354.969 267.249 354.312 267.552L353.943 253.265L402.737 232.355H414.069V222.244C419.635 212.134 430.126 189.19 430.126 189.19L451.093 163.667Z" fill="url(#paint18_linear_2080_1761)"/>
<path d="M360.645 337.699C360.161 337.469 359.614 337.374 359.072 337.428C358.74 337.532 358.413 337.653 358.094 337.788C352.119 341.228 346.732 345.473 342.112 350.382C341.921 350.653 341.627 350.925 341.627 351.197C341.627 351.646 342.112 351.917 342.509 352.1C345.641 353.459 349.272 353.099 352.603 352.372C357.705 351.314 362.603 349.544 367.128 347.121C370.069 345.579 373.009 344.669 375.259 347.57C376.73 349.465 377.516 352.916 380.847 350.47C384.177 348.025 380.751 339.058 379.185 336.341C372.996 338.603 367.21 339.962 360.645 337.699Z" fill="black"/>
<path d="M141.945 86.5242C142.041 90.3156 143.217 94.6757 146.848 96.306C147.628 96.6662 148.613 96.938 149.201 97.6646C149.98 98.663 149.392 100.192 148.414 101.109C147.436 102.025 146.158 102.556 145.084 103.371C142.923 105.001 142.041 107.63 141.665 110.164C141.289 112.698 141.077 115.219 140.099 117.595C139.268 119.482 137.917 121.136 136.179 122.391C134.442 123.646 132.379 124.459 130.196 124.748C128.329 124.931 126.373 124.748 124.411 124.931C122.448 125.115 120.492 125.746 119.412 127.193C118.044 129.007 118.434 131.724 116.765 133.171C115.096 134.618 112.258 134.258 110.002 133.626C107.355 132.994 104.531 132.173 103.04 130.094C102.329 128.987 101.894 127.748 101.768 126.467C100.496 119.042 102.356 111.434 101.18 104.097C100.687 101.197 99.7093 98.4103 99.3195 95.4024C98.7266 91.6891 98.9264 87.9044 99.9076 84.262C101.275 79.371 104.319 74.5686 109.119 72.2116C113.038 70.3159 117.743 70.1263 122.256 70.398C127.986 70.7138 133.618 71.9097 138.922 73.9367C143.504 75.7439 141.849 82.5369 141.945 86.5242Z" fill="#D38884"/>
<path d="M138.217 67.1254C139.756 68.1372 141.056 69.4271 142.04 70.9168C142.922 72.4587 143.024 74.5439 141.746 75.9025C140.768 76.9894 139.099 77.4444 137.642 77.7982C131.173 79.3401 123.917 80.6039 118.036 77.615C117.857 77.5153 117.656 77.4548 117.448 77.4381C116.86 77.4381 116.47 78.07 116.374 78.6134C114.675 84.8438 113.656 91.2156 113.331 97.6337C112.551 97.9054 111.963 97.0018 111.566 96.3699C111.119 95.4744 110.361 94.7426 109.412 94.2909C108.434 93.836 107.155 93.836 106.472 94.5626C106.12 94.8972 105.852 95.2982 105.685 95.738C104.413 99.1819 106.766 103.435 110.472 104.521C108.12 106.063 107.053 108.692 105.685 111.049C104.89 112.514 103.902 113.883 102.744 115.125C101.965 115.94 101.083 116.844 99.9064 116.932C99.374 116.941 98.8472 116.83 98.3708 116.61C97.8945 116.39 97.4829 116.067 97.1709 115.668C96.5806 114.826 96.1202 113.911 95.8032 112.951C95.0168 110.777 94.326 108.692 93.5464 106.518C92.6463 104.144 91.8928 101.724 91.2897 99.2703C90.764 96.8848 90.3873 94.4732 90.1613 92.0477C89.9698 90.152 89.7715 88.3384 89.5732 86.4364C89.2987 84.786 89.2665 83.109 89.4774 81.4506C89.7715 79.1 90.9477 76.9262 92.2129 74.7525C93.0181 73.2413 94.0419 71.8383 95.2561 70.5819C96.5138 69.3722 98.2292 68.6589 100.043 68.5914C100.498 68.6353 100.956 68.6353 101.411 68.5914C101.828 68.4315 102.198 68.1824 102.491 67.8647C106.11 65.0116 110.526 63.1588 115.232 62.5188C119.668 61.8109 124.19 61.6896 128.663 62.1586C132.24 62.7021 135.379 65.1475 138.217 67.1254Z" fill="black"/>
<path d="M127.773 124.729C127.773 124.729 118.021 121.67 114.896 124.053C111.771 126.435 109.993 133.626 109.993 133.626C109.993 133.626 114.356 134.985 116.756 133.171C119.157 131.357 118.302 127.534 121.003 126.258C123.704 124.981 127.773 124.729 127.773 124.729Z" fill="url(#paint19_linear_2080_1761)"/>
<path d="M354.167 231.755H197.424V364.145H354.167V231.755Z" fill="black"/>
<path d="M354.167 232.267H197.424V364.145H354.167V232.267Z" fill="url(#paint20_linear_2080_1761)"/>
<path d="M133.246 195.888L135.817 196.564L135.729 197.328C135.729 197.328 130.579 197.752 129.013 199.793C127.447 201.834 123.768 204.981 128.555 208.64L126.435 209.41C126.435 209.41 122.297 207.028 123.952 203.723C125.607 200.418 126.332 198.011 133.246 195.888Z" fill="white"/>
<path d="M222.381 151.294L223.441 150.321C223.441 150.321 228.823 159.414 229.507 159.667C230.191 159.92 228.358 161.203 228.358 161.203C228.358 161.203 222.244 155.547 222.381 151.294Z" fill="white"/>
<path d="M413.796 213.512H153.728V232.355H413.796V213.512Z" fill="#00729D"/>
<path d="M164.737 341.295C164.737 341.295 182.264 340.404 189.301 336.834C196.338 333.263 197.172 334.154 197.172 334.154L197.036 339.766C197.036 339.766 175.918 348.562 167.157 345.756L164.737 341.295Z" fill="url(#paint21_linear_2080_1761)"/>
<path d="M133.136 347.059C133.136 347.059 140.864 352.841 146.02 354.37C151.177 355.899 159.178 360.916 161.202 360.234C162.485 359.759 163.577 358.929 164.328 357.858C164.328 357.858 166.037 359.52 165.504 360.727C164.97 361.934 163.589 365.592 157.338 362.534C151.088 359.475 136.911 355.052 134.518 352.588C133.822 351.838 133.332 350.943 133.092 349.98C132.851 349.017 132.867 348.015 133.136 347.059Z" fill="url(#paint22_linear_2080_1761)"/>
<path d="M441.217 137.791C439.261 137.52 437.299 137.248 435.438 137.791C433.69 138.346 432.11 139.277 430.829 140.508C422.103 147.845 422.007 164.786 417.89 175.023C413.773 185.26 412.2 190.416 401.224 194.132C395.836 195.945 381.125 196.122 378.582 200.836C377.501 202.732 377.501 204.912 377.501 207.086C377.501 210.707 377.891 214.669 380.537 217.411C383.772 220.571 389.065 220.76 393.777 220.489C400.048 220.128 406.422 219.496 412.597 218.593C417.596 217.872 422.595 216.874 426.904 214.517C432.005 211.8 435.828 207.566 438.865 202.922C447.591 189.607 449.848 173.664 451.803 158.271C452.296 154.196 454.648 146.676 452.59 142.689C450.825 139.163 444.944 138.335 441.217 137.791Z" fill="black"/>
<path d="M441.217 137.791C439.261 137.52 437.299 137.248 435.438 137.791C433.69 138.346 432.11 139.277 430.829 140.508C422.103 147.845 422.007 164.786 417.89 175.023C413.773 185.26 412.2 190.416 401.224 194.132C395.836 195.945 381.125 196.122 378.582 200.836C377.501 202.732 377.501 204.912 377.501 207.086C377.501 210.707 377.891 214.669 380.537 217.411C383.772 220.571 389.065 220.76 393.777 220.489C400.048 220.128 406.422 219.496 412.597 218.593C417.596 217.872 422.595 216.874 426.904 214.517C432.005 211.8 435.828 207.566 438.865 202.922C447.591 189.607 449.848 173.664 451.803 158.271C452.296 154.196 454.648 146.676 452.59 142.689C450.825 139.163 444.944 138.335 441.217 137.791Z" fill="#F6AC25"/>
<path d="M380.805 201.088C381.195 201.111 381.57 201.236 381.885 201.448C382.141 201.791 382.246 202.212 382.179 202.624V208.311C382.179 209.947 382.179 211.849 380.907 213.113C379.827 214.2 378.172 214.567 376.496 214.744C371.299 215.199 366.006 214.295 360.713 213.928C355.848 213.581 350.958 213.643 346.105 214.112C345.543 214.236 344.952 214.171 344.437 213.928C343.363 213.297 344.047 211.755 344.833 210.769C346.201 209.132 347.569 207.413 349.046 205.783C349.741 204.841 350.603 204.014 351.597 203.338C353.457 202.074 355.809 201.979 358.066 202.074C360.276 201.983 362.473 201.71 364.631 201.259C369.976 200.388 375.44 200.33 380.805 201.088Z" fill="url(#paint23_linear_2080_1761)"/>
<path d="M233.413 112.467C233.277 112.282 233.099 112.152 232.879 112.078C232.663 111.997 232.419 111.976 232.144 112.014C231.67 112.08 231.311 112.29 231.069 112.644C230.826 112.992 230.74 113.427 230.813 113.947C230.89 114.502 231.099 114.915 231.44 115.189C231.785 115.455 232.221 115.552 232.747 115.479C233.108 115.429 233.398 115.296 233.619 115.079C233.845 114.861 233.991 114.572 234.058 114.213L232.197 114.472L232.047 113.391L235.237 112.948L235.427 114.312C235.369 114.693 235.23 115.059 235.011 115.41C234.797 115.76 234.504 116.06 234.13 116.31C233.757 116.56 233.319 116.72 232.816 116.79C232.221 116.872 231.671 116.818 231.167 116.625C230.667 116.427 230.254 116.114 229.926 115.687C229.605 115.26 229.403 114.749 229.32 114.154C229.238 113.559 229.293 113.013 229.486 112.514C229.684 112.008 229.997 111.595 230.424 111.273C230.851 110.946 231.361 110.741 231.956 110.658C232.677 110.559 233.307 110.649 233.847 110.929C234.393 111.209 234.789 111.647 235.035 112.242L233.413 112.467ZM239.592 115.806L238.024 113.707L237.672 113.755L237.988 116.028L236.521 116.232L235.686 110.211L238.147 109.869C238.622 109.803 239.036 109.83 239.391 109.95C239.752 110.069 240.035 110.263 240.241 110.532C240.447 110.794 240.574 111.103 240.623 111.458C240.679 111.858 240.614 112.231 240.429 112.577C240.25 112.923 239.949 113.192 239.527 113.385L241.247 115.576L239.592 115.806ZM237.528 112.718L238.438 112.591C238.706 112.554 238.897 112.461 239.011 112.311C239.13 112.16 239.172 111.965 239.139 111.725C239.107 111.496 239.014 111.326 238.858 111.213C238.709 111.1 238.499 111.062 238.23 111.099L237.321 111.225L237.528 112.718ZM244.972 115.12C244.406 115.199 243.868 115.14 243.357 114.942C242.851 114.744 242.426 114.43 242.081 114C241.74 113.564 241.529 113.051 241.448 112.462C241.366 111.873 241.43 111.325 241.639 110.818C241.854 110.311 242.178 109.893 242.61 109.565C243.048 109.236 243.55 109.032 244.117 108.953C244.683 108.875 245.218 108.935 245.724 109.133C246.235 109.33 246.657 109.644 246.991 110.076C247.331 110.506 247.541 111.016 247.623 111.605C247.705 112.194 247.641 112.745 247.433 113.258C247.223 113.765 246.902 114.182 246.47 114.51C246.038 114.838 245.538 115.042 244.972 115.12ZM244.787 113.782C245.267 113.716 245.628 113.502 245.869 113.142C246.116 112.782 246.204 112.338 246.131 111.812C246.057 111.281 245.852 110.878 245.517 110.604C245.187 110.323 244.781 110.216 244.301 110.283C243.815 110.35 243.448 110.562 243.2 110.916C242.958 111.271 242.874 111.716 242.948 112.254C243.022 112.786 243.224 113.192 243.555 113.472C243.89 113.746 244.301 113.85 244.787 113.782ZM251.797 107.975L252.366 112.075C252.454 112.709 252.342 113.223 252.03 113.616C251.723 114.009 251.266 114.247 250.66 114.331C250.025 114.419 249.491 114.31 249.058 114.003C248.625 113.695 248.363 113.21 248.271 112.547L249.729 112.345C249.764 112.596 249.842 112.781 249.963 112.898C250.083 113.009 250.241 113.052 250.435 113.025C250.612 113 250.742 112.924 250.823 112.796C250.904 112.668 250.93 112.496 250.9 112.278L250.331 108.178L251.797 107.975ZM256.674 113.496C256.108 113.575 255.569 113.516 255.058 113.319C254.552 113.121 254.127 112.807 253.782 112.377C253.442 111.94 253.231 111.427 253.149 110.838C253.067 110.249 253.131 109.701 253.34 109.195C253.555 108.687 253.879 108.269 254.312 107.941C254.75 107.612 255.252 107.408 255.818 107.33C256.384 107.251 256.92 107.311 257.425 107.509C257.936 107.706 258.359 108.02 258.692 108.452C259.032 108.883 259.243 109.392 259.324 109.981C259.406 110.57 259.343 111.121 259.134 111.634C258.925 112.141 258.604 112.558 258.171 112.886C257.739 113.215 257.24 113.418 256.674 113.496ZM256.488 112.158C256.968 112.092 257.329 111.879 257.571 111.519C257.818 111.158 257.905 110.715 257.832 110.189C257.758 109.657 257.554 109.254 257.218 108.98C256.888 108.699 256.483 108.592 256.002 108.659C255.516 108.726 255.149 108.938 254.901 109.293C254.659 109.647 254.575 110.093 254.65 110.63C254.724 111.162 254.926 111.568 255.256 111.849C255.591 112.123 256.002 112.226 256.488 112.158ZM263.777 109.302C264.136 109.328 264.441 109.464 264.69 109.709C264.939 109.948 265.088 110.242 265.136 110.591C265.206 111.094 265.084 111.519 264.771 111.866C264.463 112.206 263.994 112.419 263.365 112.507L260.56 112.896L259.725 106.875L262.435 106.499C263.047 106.414 263.544 106.488 263.926 106.72C264.314 106.952 264.541 107.308 264.607 107.788C264.657 108.143 264.603 108.45 264.447 108.711C264.297 108.971 264.073 109.168 263.777 109.302ZM261.53 109.107L262.49 108.974C262.73 108.94 262.906 108.864 263.018 108.743C263.134 108.616 263.178 108.45 263.15 108.244C263.121 108.038 263.033 107.89 262.887 107.8C262.746 107.709 262.555 107.68 262.315 107.713L261.355 107.846L261.53 109.107ZM262.944 111.359C263.189 111.325 263.371 111.244 263.487 111.117C263.608 110.984 263.654 110.811 263.625 110.6C263.596 110.388 263.501 110.232 263.342 110.132C263.188 110.031 262.988 109.998 262.742 110.032L261.678 110.179L261.863 111.509L262.944 111.359ZM268.401 111.869C267.961 111.93 267.556 111.913 267.188 111.819C266.819 111.724 266.51 111.552 266.259 111.301C266.014 111.049 265.859 110.727 265.793 110.334L267.354 110.117C267.408 110.337 267.509 110.498 267.657 110.6C267.804 110.696 267.984 110.729 268.195 110.7C268.413 110.67 268.577 110.597 268.69 110.483C268.801 110.362 268.845 110.213 268.82 110.036C268.799 109.887 268.731 109.772 268.614 109.689C268.504 109.605 268.37 109.542 268.212 109.5C268.061 109.457 267.845 109.414 267.565 109.371C267.159 109.305 266.825 109.229 266.563 109.143C266.3 109.057 266.064 108.909 265.854 108.699C265.645 108.489 265.514 108.196 265.461 107.818C265.383 107.258 265.526 106.792 265.888 106.422C266.25 106.045 266.756 105.812 267.408 105.721C268.071 105.629 268.628 105.715 269.079 105.979C269.528 106.237 269.807 106.647 269.914 107.209L268.327 107.429C268.289 107.237 268.196 107.095 268.05 107.005C267.902 106.908 267.726 106.875 267.52 106.903C267.342 106.928 267.206 106.996 267.111 107.109C267.015 107.215 266.979 107.357 267.004 107.534C267.031 107.729 267.144 107.868 267.342 107.951C267.54 108.034 267.842 108.112 268.248 108.183C268.655 108.261 268.987 108.343 269.244 108.43C269.507 108.516 269.742 108.661 269.951 108.865C270.16 109.069 270.29 109.351 270.34 109.712C270.387 110.055 270.342 110.379 270.204 110.683C270.071 110.987 269.85 111.245 269.542 111.457C269.233 111.669 268.853 111.806 268.401 111.869Z" fill="white"/>
<path d="M235.754 124.171C235.618 123.986 235.44 123.856 235.219 123.782C235.004 123.701 234.759 123.68 234.485 123.718C234.01 123.784 233.652 123.994 233.41 124.348C233.167 124.696 233.081 125.131 233.153 125.651C233.23 126.206 233.439 126.62 233.78 126.893C234.126 127.16 234.562 127.256 235.088 127.183C235.449 127.133 235.739 127 235.959 126.783C236.186 126.565 236.332 126.276 236.399 125.917L234.538 126.176L234.388 125.095L237.578 124.652L237.768 126.016C237.71 126.397 237.571 126.763 237.352 127.114C237.138 127.464 236.845 127.764 236.471 128.014C236.098 128.264 235.66 128.424 235.157 128.494C234.562 128.577 234.012 128.522 233.508 128.329C233.008 128.131 232.594 127.818 232.267 127.391C231.946 126.964 231.744 126.453 231.661 125.858C231.578 125.263 231.634 124.717 231.827 124.218C232.025 123.712 232.337 123.299 232.765 122.977C233.192 122.65 233.702 122.445 234.297 122.363C235.017 122.263 235.648 122.353 236.188 122.633C236.734 122.913 237.13 123.351 237.375 123.946L235.754 124.171ZM241.933 127.51L240.365 125.411L240.013 125.46L240.329 127.733L238.862 127.936L238.026 121.915L240.488 121.573C240.963 121.507 241.377 121.534 241.732 121.654C242.092 121.773 242.376 121.967 242.582 122.236C242.787 122.499 242.915 122.807 242.964 123.162C243.02 123.562 242.955 123.935 242.77 124.282C242.59 124.627 242.29 124.896 241.868 125.089L243.588 127.28L241.933 127.51ZM239.869 124.422L240.778 124.296C241.047 124.258 241.238 124.165 241.351 124.015C241.47 123.864 241.513 123.669 241.48 123.429C241.448 123.2 241.355 123.03 241.199 122.917C241.049 122.804 240.84 122.766 240.571 122.803L239.662 122.929L239.869 124.422ZM247.313 126.824C246.747 126.903 246.208 126.844 245.697 126.647C245.192 126.449 244.767 126.135 244.421 125.705C244.081 125.268 243.87 124.755 243.788 124.166C243.707 123.577 243.77 123.029 243.98 122.522C244.195 122.015 244.519 121.597 244.951 121.269C245.389 120.94 245.891 120.736 246.457 120.658C247.023 120.579 247.559 120.639 248.065 120.837C248.576 121.034 248.998 121.348 249.332 121.78C249.671 122.211 249.882 122.72 249.964 123.309C250.046 123.898 249.982 124.449 249.774 124.962C249.564 125.469 249.243 125.886 248.811 126.214C248.378 126.543 247.879 126.746 247.313 126.824ZM247.127 125.486C247.608 125.42 247.969 125.206 248.21 124.847C248.457 124.486 248.544 124.043 248.471 123.516C248.398 122.985 248.193 122.582 247.858 122.308C247.527 122.027 247.122 121.92 246.642 121.987C246.156 122.054 245.789 122.266 245.541 122.621C245.299 122.975 245.215 123.421 245.289 123.958C245.363 124.49 245.565 124.896 245.896 125.177C246.231 125.451 246.641 125.554 247.127 125.486ZM254.138 119.679L254.707 123.779C254.795 124.414 254.683 124.927 254.37 125.321C254.064 125.713 253.607 125.951 253.001 126.035C252.366 126.123 251.832 126.014 251.399 125.707C250.966 125.4 250.703 124.914 250.611 124.251L252.07 124.049C252.104 124.3 252.183 124.485 252.304 124.602C252.424 124.713 252.581 124.756 252.776 124.729C252.953 124.704 253.082 124.628 253.164 124.5C253.245 124.372 253.271 124.2 253.241 123.982L252.672 119.883L254.138 119.679ZM259.014 125.201C258.448 125.279 257.91 125.22 257.399 125.023C256.893 124.825 256.468 124.511 256.123 124.081C255.782 123.644 255.571 123.131 255.49 122.543C255.408 121.954 255.472 121.406 255.681 120.899C255.896 120.391 256.22 119.973 256.652 119.645C257.09 119.316 257.593 119.112 258.159 119.034C258.725 118.955 259.26 119.015 259.766 119.213C260.277 119.41 260.699 119.724 261.033 120.156C261.373 120.587 261.583 121.097 261.665 121.686C261.747 122.274 261.683 122.825 261.475 123.338C261.265 123.845 260.945 124.262 260.512 124.591C260.08 124.919 259.581 125.122 259.014 125.201ZM258.829 123.863C259.309 123.796 259.67 123.583 259.911 123.223C260.159 122.862 260.246 122.419 260.173 121.893C260.099 121.361 259.894 120.958 259.559 120.684C259.229 120.403 258.823 120.296 258.343 120.363C257.857 120.431 257.49 120.642 257.242 120.997C257 121.351 256.916 121.797 256.991 122.334C257.064 122.866 257.267 123.272 257.597 123.553C257.932 123.827 258.343 123.93 258.829 123.863ZM266.118 121.006C266.477 121.032 266.782 121.168 267.031 121.413C267.28 121.652 267.429 121.946 267.477 122.295C267.547 122.798 267.425 123.223 267.112 123.57C266.804 123.91 266.335 124.123 265.706 124.211L262.901 124.6L262.066 118.579L264.776 118.203C265.388 118.118 265.885 118.192 266.267 118.424C266.654 118.656 266.882 119.012 266.948 119.492C266.997 119.847 266.944 120.154 266.788 120.415C266.637 120.675 266.414 120.872 266.118 121.006ZM263.87 120.811L264.831 120.678C265.071 120.645 265.247 120.568 265.359 120.447C265.475 120.32 265.519 120.154 265.49 119.948C265.462 119.742 265.374 119.594 265.228 119.504C265.087 119.413 264.896 119.384 264.656 119.417L263.695 119.55L263.87 120.811ZM265.284 123.063C265.53 123.029 265.711 122.948 265.828 122.821C265.949 122.688 265.995 122.515 265.966 122.304C265.937 122.092 265.842 121.936 265.682 121.836C265.529 121.735 265.329 121.702 265.083 121.736L264.019 121.883L264.204 123.213L265.284 123.063ZM270.742 123.573C270.302 123.634 269.897 123.617 269.529 123.523C269.16 123.428 268.85 123.256 268.6 123.005C268.355 122.753 268.2 122.431 268.134 122.038L269.695 121.821C269.748 122.041 269.849 122.202 269.998 122.304C270.145 122.4 270.324 122.433 270.536 122.404C270.753 122.374 270.918 122.301 271.03 122.187C271.142 122.066 271.185 121.918 271.161 121.74C271.14 121.592 271.072 121.476 270.955 121.393C270.845 121.309 270.71 121.246 270.553 121.204C270.401 121.161 270.186 121.118 269.906 121.075C269.5 121.009 269.166 120.933 268.904 120.847C268.641 120.761 268.405 120.613 268.195 120.403C267.985 120.194 267.854 119.9 267.802 119.523C267.724 118.962 267.867 118.497 268.229 118.126C268.59 117.749 269.097 117.516 269.749 117.425C270.412 117.333 270.969 117.419 271.42 117.683C271.869 117.941 272.148 118.351 272.255 118.913L270.668 119.134C270.63 118.941 270.537 118.799 270.39 118.709C270.243 118.613 270.066 118.579 269.861 118.607C269.683 118.632 269.547 118.7 269.452 118.813C269.356 118.919 269.32 119.061 269.345 119.238C269.372 119.433 269.484 119.572 269.682 119.655C269.881 119.738 270.183 119.816 270.589 119.888C270.996 119.965 271.328 120.047 271.585 120.134C271.847 120.22 272.083 120.365 272.292 120.569C272.501 120.773 272.631 121.055 272.681 121.416C272.728 121.759 272.683 122.083 272.544 122.387C272.412 122.691 272.191 122.949 271.883 123.161C271.574 123.373 271.194 123.51 270.742 123.573Z" fill="white"/>
<path d="M240.436 147.578C240.299 147.393 240.121 147.264 239.901 147.189C239.686 147.108 239.441 147.087 239.166 147.125C238.692 147.191 238.333 147.401 238.091 147.755C237.848 148.103 237.763 148.538 237.835 149.058C237.912 149.613 238.121 150.027 238.462 150.3C238.808 150.567 239.244 150.664 239.77 150.591C240.13 150.541 240.42 150.407 240.641 150.19C240.867 149.972 241.013 149.684 241.08 149.325L239.219 149.583L239.069 148.502L242.26 148.06L242.449 149.423C242.391 149.804 242.252 150.17 242.033 150.521C241.819 150.871 241.526 151.172 241.153 151.422C240.779 151.672 240.341 151.831 239.838 151.901C239.243 151.984 238.694 151.929 238.189 151.737C237.689 151.538 237.276 151.225 236.949 150.799C236.627 150.371 236.425 149.86 236.342 149.265C236.26 148.671 236.315 148.124 236.508 147.625C236.706 147.12 237.019 146.706 237.446 146.385C237.873 146.057 238.384 145.852 238.978 145.77C239.699 145.67 240.329 145.76 240.869 146.041C241.415 146.32 241.811 146.758 242.057 147.353L240.436 147.578ZM246.614 150.917L245.046 148.818L244.695 148.867L245.01 151.14L243.543 151.343L242.708 145.322L245.169 144.981C245.644 144.915 246.059 144.942 246.413 145.061C246.774 145.18 247.057 145.374 247.263 145.643C247.469 145.906 247.596 146.214 247.645 146.569C247.701 146.969 247.636 147.343 247.451 147.689C247.272 148.034 246.971 148.303 246.549 148.496L248.269 150.687L246.614 150.917ZM244.551 147.829L245.46 147.703C245.729 147.666 245.92 147.572 246.033 147.422C246.152 147.272 246.195 147.076 246.161 146.836C246.13 146.607 246.036 146.437 245.88 146.324C245.731 146.211 245.521 146.173 245.253 146.21L244.344 146.337L244.551 147.829ZM251.995 150.232C251.428 150.31 250.89 150.251 250.379 150.054C249.873 149.856 249.448 149.542 249.103 149.112C248.762 148.675 248.551 148.163 248.47 147.574C248.388 146.985 248.452 146.437 248.661 145.93C248.876 145.422 249.2 145.004 249.632 144.676C250.071 144.347 250.573 144.143 251.139 144.065C251.705 143.986 252.241 144.046 252.746 144.244C253.257 144.441 253.679 144.755 254.013 145.187C254.353 145.618 254.563 146.128 254.645 146.717C254.727 147.306 254.664 147.856 254.455 148.369C254.246 148.876 253.925 149.294 253.492 149.622C253.06 149.95 252.561 150.153 251.995 150.232ZM251.809 148.894C252.289 148.827 252.65 148.614 252.892 148.254C253.139 147.893 253.226 147.45 253.153 146.924C253.079 146.392 252.874 145.989 252.539 145.715C252.209 145.434 251.804 145.328 251.323 145.394C250.837 145.462 250.47 145.673 250.222 146.028C249.98 146.382 249.896 146.828 249.971 147.365C250.045 147.897 250.247 148.303 250.577 148.584C250.912 148.858 251.323 148.961 251.809 148.894ZM258.82 143.086L259.389 147.186C259.477 147.821 259.364 148.335 259.052 148.728C258.745 149.12 258.288 149.358 257.682 149.442C257.048 149.53 256.514 149.421 256.081 149.114C255.647 148.807 255.385 148.322 255.293 147.658L256.751 147.456C256.786 147.708 256.864 147.892 256.985 148.009C257.105 148.121 257.263 148.163 257.457 148.136C257.635 148.111 257.764 148.035 257.845 147.907C257.927 147.779 257.952 147.607 257.922 147.39L257.353 143.29L258.82 143.086ZM263.696 148.608C263.13 148.686 262.591 148.627 262.08 148.43C261.575 148.232 261.149 147.918 260.804 147.488C260.464 147.051 260.253 146.539 260.171 145.95C260.089 145.361 260.153 144.813 260.363 144.306C260.578 143.798 260.901 143.38 261.334 143.052C261.772 142.723 262.274 142.519 262.84 142.441C263.406 142.362 263.942 142.422 264.447 142.62C264.958 142.817 265.381 143.132 265.715 143.563C266.054 143.994 266.265 144.504 266.347 145.093C266.428 145.682 266.365 146.233 266.156 146.745C265.947 147.252 265.626 147.67 265.194 147.998C264.761 148.326 264.262 148.529 263.696 148.608ZM263.51 147.27C263.991 147.203 264.351 146.99 264.593 146.63C264.84 146.269 264.927 145.826 264.854 145.3C264.78 144.768 264.576 144.365 264.241 144.091C263.91 143.811 263.505 143.704 263.025 143.77C262.539 143.838 262.172 144.049 261.924 144.404C261.681 144.758 261.597 145.204 261.672 145.741C261.746 146.273 261.948 146.679 262.278 146.96C262.614 147.234 263.024 147.337 263.51 147.27ZM270.799 144.414C271.159 144.44 271.463 144.575 271.713 144.82C271.961 145.06 272.11 145.354 272.158 145.702C272.228 146.206 272.107 146.63 271.793 146.977C271.485 147.317 271.016 147.531 270.387 147.618L267.583 148.007L266.747 141.986L269.457 141.61C270.069 141.525 270.566 141.599 270.948 141.831C271.336 142.063 271.563 142.419 271.63 142.9C271.679 143.254 271.625 143.562 271.469 143.822C271.319 144.082 271.095 144.279 270.799 144.414ZM268.552 144.218L269.512 144.085C269.753 144.052 269.928 143.975 270.04 143.855C270.156 143.728 270.2 143.561 270.172 143.355C270.143 143.15 270.056 143.001 269.909 142.911C269.768 142.82 269.578 142.791 269.337 142.824L268.377 142.958L268.552 144.218ZM269.966 146.47C270.212 146.436 270.393 146.355 270.509 146.229C270.631 146.095 270.677 145.923 270.647 145.711C270.618 145.499 270.523 145.344 270.364 145.243C270.21 145.142 270.01 145.109 269.764 145.143L268.701 145.291L268.885 146.62L269.966 146.47ZM275.423 146.98C274.983 147.041 274.579 147.025 274.21 146.93C273.841 146.836 273.532 146.663 273.281 146.412C273.037 146.16 272.881 145.838 272.815 145.445L274.376 145.229C274.43 145.448 274.531 145.609 274.679 145.711C274.826 145.807 275.006 145.841 275.217 145.811C275.435 145.781 275.6 145.709 275.712 145.594C275.823 145.474 275.867 145.325 275.842 145.147C275.822 144.999 275.753 144.883 275.637 144.8C275.526 144.716 275.392 144.653 275.234 144.611C275.083 144.568 274.867 144.525 274.587 144.482C274.182 144.416 273.848 144.34 273.585 144.254C273.323 144.168 273.086 144.02 272.877 143.811C272.667 143.601 272.536 143.307 272.483 142.93C272.406 142.369 272.548 141.904 272.91 141.533C273.272 141.156 273.778 140.923 274.43 140.832C275.094 140.74 275.65 140.826 276.101 141.09C276.551 141.348 276.829 141.758 276.936 142.321L275.349 142.541C275.311 142.348 275.218 142.206 275.072 142.116C274.924 142.02 274.748 141.986 274.542 142.015C274.365 142.039 274.228 142.108 274.133 142.22C274.037 142.327 274.002 142.468 274.026 142.646C274.053 142.84 274.166 142.979 274.364 143.062C274.562 143.145 274.864 143.223 275.27 143.295C275.677 143.372 276.009 143.455 276.266 143.541C276.529 143.627 276.765 143.772 276.974 143.976C277.183 144.181 277.312 144.463 277.362 144.823C277.41 145.166 277.364 145.49 277.226 145.795C277.093 146.099 276.873 146.357 276.564 146.568C276.255 146.78 275.875 146.918 275.423 146.98Z" fill="white"/>
<path d="M241.606 158.111C241.47 157.926 241.291 157.797 241.071 157.722C240.856 157.641 240.611 157.62 240.337 157.658C239.862 157.724 239.504 157.934 239.261 158.288C239.018 158.637 238.933 159.071 239.005 159.591C239.082 160.146 239.291 160.56 239.632 160.833C239.978 161.1 240.414 161.197 240.94 161.124C241.3 161.074 241.591 160.94 241.811 160.723C242.037 160.505 242.184 160.217 242.251 159.858L240.389 160.116L240.239 159.035L243.43 158.593L243.619 159.956C243.561 160.337 243.423 160.704 243.203 161.055C242.99 161.405 242.696 161.705 242.323 161.955C241.95 162.205 241.512 162.365 241.008 162.434C240.414 162.517 239.864 162.462 239.359 162.27C238.86 162.071 238.446 161.758 238.119 161.332C237.797 160.904 237.595 160.393 237.513 159.799C237.43 159.204 237.486 158.657 237.679 158.158C237.877 157.653 238.189 157.239 238.617 156.918C239.043 156.59 239.554 156.386 240.149 156.303C240.869 156.203 241.499 156.293 242.04 156.574C242.586 156.854 242.981 157.291 243.227 157.887L241.606 158.111ZM247.784 161.45L246.217 159.351L245.865 159.4L246.181 161.673L244.714 161.876L243.878 155.855L246.34 155.514C246.814 155.448 247.229 155.475 247.584 155.595C247.944 155.714 248.227 155.907 248.434 156.176C248.639 156.439 248.767 156.748 248.816 157.102C248.871 157.502 248.807 157.876 248.622 158.222C248.442 158.567 248.141 158.836 247.719 159.029L249.44 161.221L247.784 161.45ZM245.721 158.362L246.63 158.236C246.899 158.199 247.09 158.105 247.203 157.955C247.322 157.805 247.365 157.61 247.332 157.369C247.3 157.141 247.206 156.97 247.051 156.858C246.901 156.744 246.692 156.706 246.423 156.744L245.514 156.87L245.721 158.362ZM253.165 160.765C252.599 160.843 252.06 160.784 251.549 160.587C251.044 160.389 250.618 160.075 250.273 159.645C249.933 159.209 249.722 158.696 249.64 158.107C249.558 157.518 249.622 156.97 249.832 156.463C250.047 155.955 250.37 155.537 250.803 155.209C251.241 154.88 251.743 154.677 252.309 154.598C252.875 154.519 253.411 154.579 253.916 154.777C254.427 154.974 254.85 155.289 255.184 155.72C255.523 156.151 255.734 156.661 255.816 157.25C255.897 157.839 255.834 158.39 255.625 158.902C255.416 159.409 255.095 159.827 254.663 160.155C254.23 160.483 253.731 160.686 253.165 160.765ZM252.979 159.427C253.46 159.36 253.82 159.147 254.062 158.787C254.309 158.426 254.396 157.983 254.323 157.457C254.249 156.925 254.045 156.522 253.71 156.248C253.379 155.968 252.974 155.861 252.494 155.927C252.008 155.995 251.641 156.206 251.393 156.561C251.15 156.915 251.067 157.361 251.141 157.899C251.215 158.43 251.417 158.836 251.747 159.117C252.083 159.391 252.493 159.494 252.979 159.427ZM259.99 153.619L260.559 157.719C260.647 158.354 260.535 158.868 260.222 159.261C259.915 159.653 259.459 159.891 258.853 159.976C258.218 160.064 257.684 159.954 257.251 159.647C256.818 159.34 256.555 158.855 256.463 158.192L257.921 157.989C257.956 158.241 258.034 158.425 258.155 158.542C258.276 158.654 258.433 158.696 258.628 158.669C258.805 158.645 258.934 158.568 259.016 158.441C259.097 158.313 259.123 158.14 259.092 157.923L258.523 153.823L259.99 153.619ZM264.866 159.141C264.3 159.22 263.762 159.16 263.251 158.963C262.745 158.765 262.32 158.451 261.975 158.021C261.634 157.585 261.423 157.072 261.341 156.483C261.26 155.894 261.324 155.346 261.533 154.839C261.748 154.331 262.072 153.913 262.504 153.585C262.942 153.256 263.444 153.053 264.01 152.974C264.577 152.896 265.112 152.955 265.618 153.153C266.129 153.35 266.551 153.665 266.885 154.096C267.225 154.527 267.435 155.037 267.517 155.626C267.599 156.215 267.535 156.766 267.327 157.278C267.117 157.785 266.796 158.203 266.364 158.531C265.932 158.859 265.432 159.062 264.866 159.141ZM264.681 157.803C265.161 157.736 265.522 157.523 265.763 157.163C266.01 156.802 266.098 156.359 266.025 155.833C265.951 155.301 265.746 154.898 265.411 154.624C265.081 154.344 264.675 154.237 264.195 154.304C263.709 154.371 263.342 154.582 263.094 154.937C262.852 155.291 262.768 155.737 262.842 156.275C262.916 156.806 263.118 157.213 263.449 157.493C263.784 157.767 264.195 157.87 264.681 157.803ZM271.97 154.947C272.329 154.973 272.633 155.108 272.883 155.353C273.132 155.593 273.28 155.887 273.329 156.236C273.399 156.739 273.277 157.164 272.964 157.51C272.655 157.85 272.187 158.064 271.558 158.151L268.753 158.54L267.917 152.519L270.628 152.143C271.24 152.058 271.737 152.132 272.119 152.365C272.506 152.596 272.733 152.952 272.8 153.433C272.849 153.787 272.796 154.095 272.64 154.356C272.489 154.615 272.266 154.812 271.97 154.947ZM269.722 154.752L270.683 154.618C270.923 154.585 271.099 154.508 271.21 154.388C271.327 154.261 271.371 154.095 271.342 153.889C271.314 153.683 271.226 153.535 271.079 153.444C270.939 153.353 270.748 153.324 270.508 153.358L269.547 153.491L269.722 154.752ZM271.136 157.003C271.382 156.969 271.563 156.889 271.68 156.762C271.801 156.628 271.847 156.456 271.818 156.244C271.788 156.033 271.694 155.877 271.534 155.777C271.38 155.676 271.18 155.642 270.935 155.676L269.871 155.824L270.055 157.153L271.136 157.003ZM276.594 157.513C276.154 157.575 275.749 157.558 275.38 157.463C275.012 157.369 274.702 157.196 274.452 156.945C274.207 156.694 274.052 156.371 273.985 155.978L275.546 155.762C275.6 155.982 275.701 156.142 275.849 156.244C275.997 156.34 276.176 156.374 276.388 156.344C276.605 156.314 276.77 156.242 276.882 156.127C276.994 156.007 277.037 155.858 277.013 155.681C276.992 155.532 276.923 155.416 276.807 155.333C276.696 155.25 276.562 155.187 276.405 155.144C276.253 155.101 276.037 155.058 275.758 155.016C275.352 154.949 275.018 154.873 274.756 154.787C274.493 154.702 274.257 154.554 274.047 154.344C273.837 154.134 273.706 153.84 273.654 153.463C273.576 152.903 273.718 152.437 274.081 152.066C274.442 151.69 274.949 151.456 275.601 151.366C276.264 151.274 276.821 151.359 277.271 151.623C277.721 151.882 277.999 152.292 278.106 152.854L276.52 153.074C276.481 152.881 276.389 152.74 276.242 152.649C276.095 152.553 275.918 152.519 275.712 152.548C275.535 152.572 275.399 152.641 275.304 152.753C275.208 152.86 275.172 153.002 275.197 153.179C275.224 153.373 275.336 153.512 275.534 153.595C275.732 153.679 276.035 153.756 276.441 153.828C276.848 153.906 277.18 153.988 277.437 154.074C277.699 154.16 277.935 154.305 278.144 154.51C278.353 154.714 278.482 154.996 278.532 155.356C278.58 155.699 278.535 156.023 278.396 156.328C278.264 156.632 278.043 156.89 277.734 157.102C277.426 157.314 277.046 157.451 276.594 157.513Z" fill="white"/>
<path d="M243.592 140.12L242.024 138.021L241.672 138.069L241.988 140.342L240.521 140.546L239.686 134.525L242.147 134.183C242.622 134.117 243.036 134.144 243.391 134.264C243.751 134.383 244.035 134.577 244.241 134.845C244.447 135.108 244.574 135.417 244.623 135.772C244.679 136.172 244.614 136.545 244.429 136.891C244.249 137.237 243.949 137.506 243.527 137.698L245.247 139.89L243.592 140.12ZM241.528 137.032L242.438 136.905C242.706 136.868 242.897 136.775 243.011 136.625C243.13 136.474 243.172 136.279 243.139 136.039C243.107 135.81 243.014 135.639 242.858 135.527C242.708 135.414 242.499 135.376 242.23 135.413L241.321 135.539L241.528 137.032ZM248.972 139.434C248.406 139.513 247.868 139.453 247.356 139.256C246.851 139.058 246.426 138.744 246.08 138.314C245.74 137.878 245.529 137.365 245.447 136.776C245.366 136.187 245.429 135.639 245.639 135.132C245.854 134.625 246.178 134.207 246.61 133.878C247.048 133.55 247.55 133.346 248.116 133.267C248.682 133.189 249.218 133.248 249.724 133.446C250.235 133.644 250.657 133.958 250.991 134.39C251.331 134.82 251.541 135.33 251.623 135.919C251.705 136.508 251.641 137.059 251.433 137.572C251.223 138.079 250.902 138.496 250.47 138.824C250.038 139.152 249.538 139.356 248.972 139.434ZM248.787 138.096C249.267 138.03 249.628 137.816 249.869 137.456C250.116 137.096 250.203 136.652 250.13 136.126C250.057 135.595 249.852 135.192 249.517 134.918C249.187 134.637 248.781 134.53 248.301 134.597C247.815 134.664 247.448 134.875 247.2 135.23C246.958 135.585 246.874 136.03 246.948 136.568C247.022 137.1 247.224 137.506 247.555 137.786C247.89 138.06 248.3 138.164 248.787 138.096ZM255.797 132.289L256.366 136.389C256.454 137.023 256.342 137.537 256.029 137.93C255.723 138.323 255.266 138.561 254.66 138.645C254.025 138.733 253.491 138.623 253.058 138.316C252.625 138.009 252.363 137.524 252.271 136.861L253.729 136.659C253.764 136.91 253.842 137.095 253.963 137.212C254.083 137.323 254.241 137.366 254.435 137.339C254.612 137.314 254.742 137.238 254.823 137.11C254.904 136.982 254.93 136.809 254.9 136.592L254.331 132.492L255.797 132.289ZM260.674 137.81C260.107 137.889 259.569 137.83 259.058 137.632C258.552 137.434 258.127 137.121 257.782 136.691C257.441 136.254 257.23 135.741 257.149 135.152C257.067 134.563 257.131 134.015 257.34 133.508C257.555 133.001 257.879 132.583 258.311 132.255C258.75 131.926 259.252 131.722 259.818 131.643C260.384 131.565 260.92 131.625 261.425 131.823C261.936 132.02 262.358 132.334 262.692 132.766C263.032 133.196 263.242 133.706 263.324 134.295C263.406 134.884 263.343 135.435 263.134 135.948C262.925 136.455 262.604 136.872 262.171 137.2C261.739 137.528 261.24 137.732 260.674 137.81ZM260.488 136.472C260.968 136.406 261.329 136.192 261.571 135.833C261.818 135.472 261.905 135.028 261.832 134.502C261.758 133.971 261.553 133.568 261.218 133.294C260.888 133.013 260.483 132.906 260.002 132.973C259.516 133.04 259.149 133.252 258.901 133.607C258.659 133.961 258.575 134.407 258.65 134.944C258.724 135.476 258.926 135.882 259.256 136.162C259.591 136.437 260.002 136.54 260.488 136.472ZM267.777 133.616C268.136 133.642 268.441 133.778 268.69 134.023C268.939 134.262 269.088 134.556 269.136 134.905C269.206 135.408 269.084 135.833 268.771 136.18C268.463 136.52 267.994 136.733 267.365 136.821L264.56 137.21L263.725 131.189L266.435 130.813C267.047 130.728 267.544 130.801 267.926 131.034C268.313 131.266 268.541 131.622 268.607 132.102C268.657 132.457 268.603 132.764 268.447 133.025C268.296 133.285 268.073 133.482 267.777 133.616ZM265.529 133.421L266.49 133.288C266.73 133.254 266.906 133.178 267.018 133.057C267.134 132.93 267.178 132.764 267.149 132.558C267.121 132.352 267.033 132.204 266.887 132.114C266.746 132.022 266.555 131.994 266.315 132.027L265.355 132.16L265.529 133.421ZM266.943 135.673C267.189 135.638 267.371 135.558 267.487 135.431C267.608 135.298 267.654 135.125 267.625 134.914C267.596 134.702 267.501 134.546 267.341 134.446C267.188 134.345 266.988 134.311 266.742 134.346L265.678 134.493L265.863 135.823L266.943 135.673ZM272.401 136.183C271.961 136.244 271.556 136.227 271.188 136.133C270.819 136.038 270.509 135.865 270.259 135.615C270.014 135.363 269.859 135.041 269.793 134.648L271.354 134.431C271.408 134.651 271.509 134.812 271.657 134.914C271.804 135.01 271.984 135.043 272.195 135.014C272.412 134.984 272.577 134.911 272.69 134.797C272.801 134.676 272.844 134.527 272.82 134.35C272.799 134.201 272.731 134.086 272.614 134.003C272.504 133.919 272.37 133.856 272.212 133.814C272.06 133.771 271.845 133.728 271.565 133.685C271.159 133.619 270.825 133.543 270.563 133.457C270.3 133.371 270.064 133.223 269.854 133.013C269.645 132.803 269.513 132.51 269.461 132.132C269.383 131.572 269.526 131.106 269.888 130.736C270.249 130.359 270.756 130.125 271.408 130.035C272.071 129.943 272.628 130.029 273.079 130.293C273.528 130.551 273.807 130.961 273.914 131.523L272.327 131.743C272.289 131.551 272.196 131.409 272.049 131.319C271.902 131.222 271.725 131.189 271.52 131.217C271.342 131.242 271.206 131.31 271.111 131.423C271.015 131.529 270.979 131.671 271.004 131.848C271.031 132.043 271.143 132.181 271.342 132.265C271.54 132.348 271.842 132.426 272.248 132.497C272.655 132.575 272.987 132.657 273.244 132.744C273.506 132.83 273.742 132.975 273.951 133.179C274.16 133.383 274.29 133.665 274.34 134.025C274.387 134.369 274.342 134.693 274.204 134.997C274.071 135.301 273.85 135.559 273.542 135.771C273.233 135.983 272.853 136.12 272.401 136.183Z" fill="white"/>
</g>
<defs>
<linearGradient id="paint0_linear_2080_1761" x1="256.527" y1="272.013" x2="257.233" y2="454.103" gradientUnits="userSpaceOnUse">
<stop offset="0.01"/>
<stop offset="0.13" stop-opacity="0.69"/>
<stop offset="1" stop-opacity="0"/>
</linearGradient>
<linearGradient id="paint1_linear_2080_1761" x1="151.661" y1="324.158" x2="146.939" y2="385.174" gradientUnits="userSpaceOnUse">
<stop offset="0.01"/>
<stop offset="0.13" stop-opacity="0.69"/>
<stop offset="1" stop-opacity="0"/>
</linearGradient>
<linearGradient id="paint2_linear_2080_1761" x1="428.966" y1="137.592" x2="447.279" y2="129.745" gradientUnits="userSpaceOnUse">
<stop stop-color="#ECC4D7"/>
<stop offset="0.42" stop-color="#EFD4D1"/>
<stop offset="1" stop-color="#F2EAC9"/>
</linearGradient>
<linearGradient id="paint3_linear_2080_1761" x1="352.999" y1="310.338" x2="379.259" y2="310.338" gradientUnits="userSpaceOnUse">
<stop stop-color="#ECC4D7"/>
<stop offset="0.42" stop-color="#EFD4D1"/>
<stop offset="1" stop-color="#F2EAC9"/>
</linearGradient>
<linearGradient id="paint4_linear_2080_1761" x1="93.8809" y1="334.079" x2="95.6101" y2="365.552" gradientUnits="userSpaceOnUse">
<stop offset="0.01" stop-color="#033649"/>
<stop offset="0.13" stop-color="#0084B5" stop-opacity="0.69"/>
<stop offset="1" stop-color="white"/>
</linearGradient>
<linearGradient id="paint5_linear_2080_1761" x1="425.087" y1="334.077" x2="426.816" y2="365.55" gradientUnits="userSpaceOnUse">
<stop offset="0.01" stop-color="#033649"/>
<stop offset="0.13" stop-color="#0084B5" stop-opacity="0.69"/>
<stop offset="1" stop-color="white"/>
</linearGradient>
<linearGradient id="paint6_linear_2080_1761" x1="401.329" y1="337.225" x2="399.758" y2="385.517" gradientUnits="userSpaceOnUse">
<stop offset="0.01" stop-color="white"/>
<stop offset="0.13" stop-opacity="0.69"/>
<stop offset="1" stop-opacity="0"/>
</linearGradient>
<linearGradient id="paint7_linear_2080_1761" x1="425.564" y1="345.205" x2="424.735" y2="370.719" gradientUnits="userSpaceOnUse">
<stop offset="0.01"/>
<stop offset="0.13" stop-opacity="0.69"/>
<stop offset="1" stop-opacity="0"/>
</linearGradient>
<linearGradient id="paint8_linear_2080_1761" x1="450.479" y1="338.823" x2="448.908" y2="387.116" gradientUnits="userSpaceOnUse">
<stop offset="0.01"/>
<stop offset="0.13" stop-opacity="0.69"/>
<stop offset="1" stop-opacity="0"/>
</linearGradient>
<linearGradient id="paint9_linear_2080_1761" x1="450.178" y1="345.37" x2="449.308" y2="372.054" gradientUnits="userSpaceOnUse">
<stop offset="0.01"/>
<stop offset="0.13" stop-opacity="0.69"/>
<stop offset="1" stop-opacity="0"/>
</linearGradient>
<linearGradient id="paint10_linear_2080_1761" x1="231.416" y1="145.512" x2="243.821" y2="145.512" gradientUnits="userSpaceOnUse">
<stop offset="0.01"/>
<stop offset="0.13" stop-opacity="0.69"/>
<stop offset="1" stop-opacity="0"/>
</linearGradient>
<linearGradient id="paint11_linear_2080_1761" x1="127.884" y1="297.087" x2="162.03" y2="297.087" gradientUnits="userSpaceOnUse">
<stop offset="0.01"/>
<stop offset="0.13" stop-opacity="0.69"/>
<stop offset="1" stop-opacity="0"/>
</linearGradient>
<linearGradient id="paint12_linear_2080_1761" x1="29.5298" y1="210.257" x2="182.113" y2="221.357" gradientUnits="userSpaceOnUse">
<stop offset="0.01"/>
<stop offset="0.13" stop-opacity="0.69"/>
<stop offset="1" stop-opacity="0"/>
</linearGradient>
<linearGradient id="paint13_linear_2080_1761" x1="79.8414" y1="175.389" x2="135.205" y2="155.281" gradientUnits="userSpaceOnUse">
<stop offset="0.01"/>
<stop offset="0.13" stop-opacity="0.69"/>
<stop offset="1" stop-opacity="0"/>
</linearGradient>
<linearGradient id="paint14_linear_2080_1761" x1="222.825" y1="144.698" x2="238.185" y2="144.698" gradientUnits="userSpaceOnUse">
<stop stop-color="#ECC4D7"/>
<stop offset="0.42" stop-color="#EFD4D1"/>
<stop offset="1" stop-color="#F2EAC9"/>
</linearGradient>
<linearGradient id="paint15_linear_2080_1761" x1="119.526" y1="200.848" x2="147.918" y2="206.114" gradientUnits="userSpaceOnUse">
<stop offset="0.01"/>
<stop offset="0.13" stop-opacity="0.69"/>
<stop offset="1" stop-opacity="0"/>
</linearGradient>
<linearGradient id="paint16_linear_2080_1761" x1="124.969" y1="207.091" x2="167.061" y2="207.091" gradientUnits="userSpaceOnUse">
<stop stop-color="#ECC4D7"/>
<stop offset="0.42" stop-color="#EFD4D1"/>
<stop offset="1" stop-color="#F2EAC9"/>
</linearGradient>
<linearGradient id="paint17_linear_2080_1761" x1="200.263" y1="329.491" x2="138.074" y2="357.458" gradientUnits="userSpaceOnUse">
<stop offset="0.01"/>
<stop offset="0.13" stop-opacity="0.69"/>
<stop offset="1" stop-opacity="0"/>
</linearGradient>
<linearGradient id="paint18_linear_2080_1761" x1="383.534" y1="205.474" x2="433.867" y2="236.648" gradientUnits="userSpaceOnUse">
<stop offset="0.01"/>
<stop offset="0.13" stop-opacity="0.69"/>
<stop offset="1" stop-opacity="0"/>
</linearGradient>
<linearGradient id="paint19_linear_2080_1761" x1="119.28" y1="131.572" x2="135.986" y2="252.331" gradientUnits="userSpaceOnUse">
<stop stop-color="#ECC4D7"/>
<stop offset="0.42" stop-color="#EFD4D1"/>
<stop offset="1" stop-color="#F2EAC9"/>
</linearGradient>
<linearGradient id="paint20_linear_2080_1761" x1="258.111" y1="223.521" x2="289.206" y2="377.299" gradientUnits="userSpaceOnUse">
<stop offset="0.01" stop-color="#033649"/>
<stop offset="0.13" stop-color="#00739E"/>
<stop offset="1" stop-color="#0099D2" stop-opacity="0"/>
</linearGradient>
<linearGradient id="paint21_linear_2080_1761" x1="195.388" y1="334.976" x2="144.411" y2="357.897" gradientUnits="userSpaceOnUse">
<stop offset="0.01"/>
<stop offset="0.13" stop-opacity="0.69"/>
<stop offset="1" stop-opacity="0"/>
</linearGradient>
<linearGradient id="paint22_linear_2080_1761" x1="150.541" y1="340.202" x2="147.788" y2="375.79" gradientUnits="userSpaceOnUse">
<stop offset="0.01"/>
<stop offset="0.13" stop-opacity="0.69"/>
<stop offset="1" stop-opacity="0"/>
</linearGradient>
<linearGradient id="paint23_linear_2080_1761" x1="344.04" y1="207.742" x2="382.261" y2="207.742" gradientUnits="userSpaceOnUse">
<stop stop-color="#ECC4D7"/>
<stop offset="0.42" stop-color="#EFD4D1"/>
<stop offset="1" stop-color="#F2EAC9"/>
</linearGradient>
<clipPath id="clip0_2080_1761">
<rect width="529" height="366.321" fill="white" transform="translate(0 0.686523)"/>
</clipPath>
</defs>
</svg>
