<svg width="653" height="472" viewBox="0 0 653 472" fill="none" xmlns="http://www.w3.org/2000/svg">
<g clip-path="url(#clip0_2080_2288)">
<path d="M406.972 471.393C413.401 457.509 419.824 443.418 422.614 428.374C425.404 413.33 424.233 397.003 416.243 383.955C408.253 370.906 392.52 362.058 377.507 365.007C365.176 367.43 355.274 377.142 349.477 388.292C343.679 399.441 341.353 412.017 339.098 424.379C338.37 410.334 337.598 396.063 332.932 382.796C328.267 369.528 319.08 357.164 305.986 352.03C292.893 346.896 275.86 350.934 268.959 363.188C259.237 380.453 272.128 404.669 260.949 421.028C259.031 404.619 241.872 391.654 225.563 394.293C209.254 396.932 197.058 414.646 200.413 430.823C202.41 440.449 208.977 448.636 216.829 454.551C224.681 460.466 233.812 467.321 242.846 471.198L406.972 471.393Z" fill="#F2F2F2"/>
<path d="M208.975 405.887C221.929 410.415 235.003 414.995 246.83 422.074C257.43 428.419 266.869 436.961 272.83 447.901C276.096 453.77 278.036 460.284 278.511 466.984C278.597 468.385 280.789 468.395 280.703 466.984C279.936 454.507 273.856 443.09 265.436 434.06C256.205 424.16 244.243 417.398 231.892 412.152C224.569 409.041 217.065 406.398 209.557 403.774C208.223 403.307 207.65 405.424 208.975 405.887Z" fill="white"/>
<path d="M283.699 354.206C291.658 367.466 298.032 381.615 302.689 396.362C307.355 411.104 310.294 426.338 311.447 441.758C312.086 450.39 312.155 459.055 311.656 467.696C311.575 469.105 313.767 469.1 313.848 467.696C314.732 452.116 313.789 436.487 311.038 421.127C308.292 405.768 303.778 390.779 297.587 376.458C294.112 368.414 290.104 360.611 285.591 353.1C285.44 352.86 285.2 352.688 284.924 352.62C284.648 352.553 284.356 352.595 284.111 352.739C283.865 352.882 283.685 353.115 283.608 353.389C283.531 353.663 283.564 353.956 283.699 354.206Z" fill="white"/>
<path d="M390.966 366.794C379.708 392.089 371.785 418.74 367.397 446.077C366.165 453.756 365.211 461.472 364.536 469.226C364.414 470.631 366.606 470.623 366.728 469.226C369.114 441.95 375.009 415.096 384.267 389.328C386.869 382.083 389.732 374.941 392.858 367.9C393.426 366.623 391.538 365.506 390.966 366.794Z" fill="white"/>
<path d="M77.4875 469.753C55.0342 463.909 35.1932 450.696 21.145 432.231C7.09676 413.766 -0.345119 391.119 0.0122989 367.921C0.101344 362.141 0.709075 356.24 3.13882 350.994C5.56856 345.749 10.0818 341.212 15.7273 339.97C21.8885 338.613 28.39 341.386 32.9816 345.712C37.5731 350.039 40.5838 355.747 43.3537 361.415C60.0375 395.556 72.7135 432.189 77.4593 469.891L77.4875 469.753Z" fill="#F2F2F2"/>
<path d="M12.932 341.11L24.625 367.677L36.3179 394.244C40.0211 402.658 43.7172 411.076 47.5448 419.434C51.3389 427.719 55.2629 435.947 59.4491 444.042C63.6293 452.125 68.0721 460.076 72.8946 467.795C73.4951 468.756 74.1016 469.714 74.7139 470.668C75.1377 471.328 76.197 470.715 75.7702 470.05C70.8553 462.388 66.3265 454.486 62.0789 446.436C57.8267 438.378 53.8524 430.177 50.0249 421.909C46.177 413.598 42.477 405.219 38.7869 396.837C34.9027 388.013 31.0192 379.19 27.1364 370.366L15.4434 343.798L13.9883 340.492C13.6718 339.773 12.6175 340.395 12.932 341.11Z" fill="white"/>
<path d="M72.6093 469.938C59.3743 472.966 45.5061 471.462 33.2277 465.668C20.9493 459.874 10.9718 450.125 4.89466 437.984C3.3805 434.959 2.1029 431.731 1.94835 428.352C1.79381 424.973 2.91225 421.399 5.50778 419.23C8.34042 416.862 12.4644 416.547 16.0162 417.553C19.5681 418.56 22.6721 420.711 25.6404 422.906C43.5191 436.127 59.9899 451.725 72.6319 470.018L72.6093 469.938Z" fill="#F2F2F2"/>
<path d="M4.36421 420.575L17.6072 431.211L30.8502 441.848C35.0443 445.217 39.2357 448.589 43.4794 451.895C47.6858 455.173 51.9442 458.385 56.3029 461.457C60.6554 464.526 65.1086 467.454 69.6961 470.16C70.2674 470.497 70.8407 470.83 71.4162 471.16C71.8145 471.389 72.1991 470.785 71.7979 470.555C67.1778 467.904 62.6931 465.023 58.3148 461.991C53.9317 458.955 49.6542 455.77 45.4351 452.511C41.1936 449.235 37.0107 445.883 32.8319 442.527C28.4333 438.995 24.035 435.462 19.637 431.929L6.39398 421.293L4.74596 419.969C4.38758 419.681 4.00802 420.289 4.36421 420.575Z" fill="white"/>
<path d="M636.272 471.643H31.9053C31.7909 471.643 31.6775 471.621 31.5717 471.578C31.4658 471.534 31.3697 471.47 31.2886 471.389C31.2076 471.308 31.1433 471.212 31.0994 471.107C31.0555 471.001 31.033 470.888 31.033 470.773C31.033 470.659 31.0555 470.545 31.0994 470.44C31.1433 470.334 31.2076 470.238 31.2886 470.157C31.3697 470.076 31.4658 470.012 31.5717 469.969C31.6775 469.925 31.7909 469.903 31.9053 469.903H636.272C636.502 469.903 636.724 469.995 636.887 470.158C637.05 470.321 637.142 470.542 637.142 470.773C637.142 471.004 637.05 471.225 636.887 471.388C636.724 471.551 636.502 471.643 636.272 471.643Z" fill="#3F3D56"/>
<path d="M620.392 384.496H579.475C579.475 384.98 579.283 385.445 578.94 385.787C578.598 386.13 578.133 386.322 577.649 386.322H537.484C536.917 386.75 536.4 387.24 535.943 387.783C534.57 389.421 533.819 391.491 533.824 393.628V395.089C533.825 397.51 534.787 399.833 536.5 401.545C538.212 403.257 540.534 404.22 542.956 404.221H620.392C622.813 404.218 625.135 403.256 626.847 401.544C628.559 399.832 629.522 397.51 629.524 395.089V393.628C629.521 391.207 628.557 388.886 626.846 387.174C625.134 385.463 622.813 384.499 620.392 384.496Z" fill="#3F3D56"/>
<path d="M586.785 403.858H577.288V471.068H586.785V403.858Z" fill="#3F3D56"/>
<path d="M613.816 470.735C613.816 471.761 599.424 471.132 581.672 471.132C563.92 471.132 549.529 471.761 549.529 470.735C549.529 469.708 563.92 461.571 581.672 461.571C599.424 461.571 613.816 469.708 613.816 470.735Z" fill="#3F3D56"/>
<path d="M618.605 386.6L617.012 376.635C616.81 375.38 616.118 374.255 615.089 373.509C614.059 372.762 612.775 372.455 611.518 372.654L595.089 375.277L566.949 379.769L557.795 381.23H577.651C578.135 381.231 578.6 381.423 578.942 381.766C579.285 382.108 579.477 382.572 579.477 383.057V384.496C579.477 384.98 579.285 385.445 578.942 385.787C578.6 386.13 578.135 386.322 577.651 386.322H527.12C526.415 386.652 525.804 387.155 525.345 387.783C524.956 388.294 524.676 388.879 524.52 389.502C524.364 390.125 524.337 390.773 524.439 391.407L524.892 394.241L525.44 397.682L526.031 401.379C526.233 402.631 526.922 403.753 527.949 404.498C528.977 405.243 530.257 405.55 531.51 405.353L544.565 403.271L582.217 397.258L614.623 392.086C615.876 391.882 616.998 391.191 617.744 390.163C618.49 389.135 618.799 387.855 618.605 386.6Z" fill="#D38884"/>
<path d="M543.564 387.784C543.084 387.147 542.447 386.643 541.716 386.323H527.748C527.013 386.641 526.374 387.145 525.892 387.784C525.242 388.617 524.89 389.643 524.891 390.699V446.373C524.893 447.642 525.398 448.858 526.295 449.755C527.192 450.652 528.408 451.156 529.677 451.158H539.78C541.048 451.156 542.264 450.652 543.161 449.755C544.058 448.858 544.563 447.642 544.565 446.373V390.699C544.565 389.643 544.213 388.617 543.564 387.784Z" fill="#D38884"/>
<path d="M573.968 292.96L573.873 292.836L567.605 285.114C567.271 284.7 566.868 284.346 566.414 284.069C566.173 283.906 565.913 283.774 565.64 283.675C565.24 283.515 564.819 283.411 564.39 283.368C564.104 283.338 563.815 283.333 563.528 283.353C563.523 283.354 563.517 283.357 563.514 283.361C562.545 283.432 561.622 283.799 560.869 284.413L548.004 294.845L531.473 308.257L506.802 328.274L505.005 329.735H536.221L538.025 328.274L543.994 323.43L544.417 323.094L573.244 299.71L573.266 299.695C573.86 299.218 574.328 298.604 574.633 297.906C574.833 297.448 574.961 296.963 575.012 296.466C575.079 295.842 575.021 295.21 574.841 294.609C574.662 294.007 574.365 293.446 573.968 292.96Z" fill="#D38884"/>
<path d="M573.873 292.836C573.47 290.867 572.575 289.033 571.272 287.503C569.974 285.962 568.301 284.779 566.415 284.07C566.122 283.96 565.837 283.858 565.545 283.777C564.886 283.581 564.211 283.439 563.529 283.354C563.523 283.354 563.518 283.357 563.514 283.361C560.44 283.006 557.349 283.86 554.894 285.743L532.642 302.749C532.169 303.172 531.787 303.685 531.517 304.259C531.247 304.832 531.096 305.455 531.071 306.088C531.037 306.832 531.174 307.575 531.473 308.258C531.546 308.411 531.626 308.564 531.714 308.711C531.885 309.007 532.091 309.282 532.328 309.529L535.893 313.532L544.184 322.832L544.418 323.095L544.951 323.701C545.376 324.166 545.888 324.543 546.458 324.81C547.029 325.077 547.646 325.229 548.275 325.257C548.904 325.285 549.533 325.188 550.124 324.973C550.716 324.757 551.259 324.427 551.723 324.001L570.914 303.385C571.911 302.315 572.701 301.069 573.245 299.71C574.121 297.53 574.34 295.14 573.873 292.836Z" fill="black"/>
<path d="M582.358 266.382C602.581 266.382 618.974 249.989 618.974 229.766C618.974 209.544 602.581 193.15 582.358 193.15C562.136 193.15 545.742 209.544 545.742 229.766C545.742 249.989 562.136 266.382 582.358 266.382Z" fill="#D38884"/>
<path d="M596.089 381.56L595.088 375.277L594.496 371.588C594.295 370.334 593.604 369.211 592.575 368.466C591.546 367.721 590.264 367.415 589.01 367.614L562.397 371.859L555.179 373.013L553.718 373.247V381.231H577.65C578.134 381.232 578.599 381.424 578.941 381.766C579.284 382.109 579.476 382.573 579.476 383.058V384.497C579.476 384.981 579.284 385.446 578.941 385.788C578.599 386.13 578.134 386.323 577.65 386.323H501.916C501.916 386.338 501.923 386.352 501.923 386.367L502.376 389.201L503.515 396.331C503.717 397.584 504.406 398.706 505.434 399.451C506.461 400.196 507.741 400.503 508.994 400.306L522.049 398.224L524.891 397.771L525.439 397.683L544.564 394.629L557.575 392.547L578.22 389.253L578.527 389.201L592.107 387.039C593.361 386.838 594.484 386.149 595.23 385.122C595.976 384.095 596.285 382.814 596.089 381.56Z" fill="#D38884"/>
<path d="M632.192 354.69C632.192 384.54 629.16 402.394 582.406 397.28C582.34 397.273 582.282 397.266 582.216 397.258C573.877 396.435 565.63 394.858 557.575 392.547C553.389 391.324 549.321 389.73 545.419 387.783C544.499 387.316 543.615 386.826 542.745 386.322H577.65C578.134 386.322 578.599 386.13 578.941 385.787C579.284 385.445 579.476 384.98 579.476 384.496V383.057C579.476 382.573 579.284 382.108 578.941 381.766C578.599 381.423 578.134 381.231 577.65 381.231H553.718V335.09C553.716 333.67 553.151 332.31 552.147 331.306C551.144 330.302 549.783 329.737 548.363 329.735H528.894C529.063 329.253 529.23 328.764 529.413 328.274C531.239 323.22 533.404 318.295 535.893 313.532C539.302 306.918 543.359 300.658 548.005 294.845C551.24 290.794 554.872 287.077 558.846 283.748C566.174 277.699 574.151 273.959 582.245 273.959C612.095 273.959 632.192 324.841 632.192 354.69Z" fill="black"/>
<path d="M583.127 243.339L583.165 241.97C580.619 241.899 578.375 241.74 576.689 240.508C576.21 240.139 575.817 239.671 575.536 239.136C575.255 238.602 575.092 238.013 575.059 237.41C575.03 237.041 575.085 236.671 575.222 236.327C575.359 235.984 575.573 235.676 575.848 235.429C576.967 234.484 578.769 234.79 580.082 235.392L581.214 235.911L579.043 220.045L577.687 220.231L579.534 233.727C578.778 233.446 577.964 233.36 577.166 233.474C576.368 233.589 575.611 233.902 574.965 234.384C574.53 234.764 574.189 235.239 573.968 235.772C573.747 236.305 573.653 236.882 573.692 237.458C573.732 238.268 573.949 239.06 574.327 239.778C574.705 240.495 575.236 241.122 575.881 241.613C578.048 243.196 580.864 243.275 583.127 243.339Z" fill="#2F2E41"/>
<path d="M570.984 221.395H563.615V222.763H570.984V221.395Z" fill="#2F2E41"/>
<path d="M594.244 221.395H586.875V222.763H594.244V221.395Z" fill="#2F2E41"/>
<path d="M604.124 303.429L601.224 301.413L595.825 297.665C594.781 296.944 593.493 296.665 592.244 296.891C590.996 297.117 589.887 297.829 589.162 298.871L571.564 324.198L555.178 347.78L553.717 349.884V381.231H553.848C554.987 381.118 556.048 380.6 556.836 379.77C557.005 379.596 557.16 379.408 557.297 379.207L562.396 371.858L574.998 353.719L588.059 334.93L589.301 333.14L605.315 310.092C605.402 309.97 605.482 309.843 605.556 309.712C605.629 309.587 605.694 309.457 605.753 309.325C606.212 308.306 606.301 307.159 606.003 306.083C605.706 305.006 605.041 304.067 604.124 303.429Z" fill="#D38884"/>
<path d="M604.174 293.406C603.658 293.066 603.116 292.768 602.553 292.514C600.057 291.371 597.243 291.121 594.585 291.807C591.927 292.494 589.586 294.075 587.956 296.284L571.33 318.828C570.996 319.365 570.772 319.963 570.671 320.587C570.57 321.211 570.595 321.849 570.743 322.464C570.891 323.078 571.16 323.657 571.534 324.167C571.908 324.676 572.38 325.107 572.922 325.432L588.059 334.929L588.249 335.046L589.008 335.521C590.095 336.178 591.398 336.377 592.631 336.076C593.865 335.775 594.929 334.997 595.591 333.914L607.33 310.61L607.527 310.222L607.535 310.215L608.258 308.761C609.577 306.146 609.89 303.138 609.137 300.307C608.384 297.476 606.618 295.02 604.174 293.406Z" fill="black"/>
<path d="M502.377 386.323V441.325C502.379 442.594 502.883 443.81 503.78 444.707C504.677 445.604 505.893 446.108 507.162 446.11H517.265C518.534 446.108 519.75 445.604 520.647 444.707C521.544 443.81 522.048 442.594 522.05 441.325V386.323H502.377Z" fill="#D38884"/>
<path d="M577.649 379.77H555.178V335.09C555.176 333.283 554.457 331.551 553.179 330.273C551.901 328.995 550.169 328.276 548.362 328.274H465.03C463.221 328.275 461.487 328.993 460.208 330.271C458.929 331.549 458.209 333.282 458.207 335.09V380.968C458.209 382.776 458.929 384.509 460.208 385.787C461.487 387.065 463.221 387.783 465.03 387.784H577.649C577.766 387.784 577.875 387.776 577.985 387.769C578.087 387.762 578.19 387.74 578.292 387.725C579.037 387.574 579.708 387.171 580.189 386.582C580.671 385.994 580.935 385.257 580.936 384.496V383.057C580.936 382.185 580.59 381.349 579.973 380.733C579.357 380.116 578.521 379.77 577.649 379.77ZM577.649 386.323H465.03C463.609 386.322 462.247 385.758 461.241 384.754C460.236 383.75 459.67 382.389 459.668 380.968V335.09C459.67 333.67 460.236 332.308 461.241 331.304C462.247 330.3 463.609 329.736 465.03 329.735H548.362C549.781 329.738 551.142 330.302 552.146 331.306C553.15 332.31 553.715 333.671 553.717 335.09V381.231H577.649C578.133 381.231 578.598 381.424 578.94 381.766C579.282 382.108 579.475 382.573 579.475 383.057V384.496C579.475 384.981 579.282 385.445 578.94 385.788C578.598 386.13 578.133 386.322 577.649 386.323Z" fill="#3F3D56"/>
<path d="M506.693 363.648C509.796 363.648 512.311 361.133 512.311 358.03C512.311 354.927 509.796 352.412 506.693 352.412C503.591 352.412 501.076 354.927 501.076 358.03C501.076 361.133 503.591 363.648 506.693 363.648Z" fill="#033649"/>
<path d="M89.1225 263.971C110.715 263.971 128.22 246.466 128.22 224.873C128.22 203.28 110.715 185.775 89.1225 185.775C67.5295 185.775 50.0249 203.28 50.0249 224.873C50.0249 246.466 67.5295 263.971 89.1225 263.971Z" fill="#D38884"/>
<path d="M81.5007 371.953H70.7182C69.4592 371.954 68.2521 372.455 67.3619 373.345C66.4716 374.235 65.9709 375.443 65.9697 376.702V466.565C65.9709 467.824 66.4716 469.031 67.3618 469.921C68.2521 470.811 69.4592 471.312 70.7182 471.313H81.5007C82.7597 471.312 83.9668 470.811 84.8571 469.921C85.7473 469.031 86.248 467.824 86.2492 466.565V376.702C86.248 375.443 85.7473 374.235 84.8571 373.345C83.9668 372.455 82.7597 371.954 81.5007 371.953Z" fill="#2F2E41"/>
<path d="M104.286 371.953H93.5034C92.2443 371.954 91.0372 372.455 90.147 373.345C89.2567 374.235 88.7561 375.443 88.7549 376.702V466.565C88.7561 467.824 89.2567 469.031 90.147 469.921C91.0372 470.811 92.2443 471.312 93.5034 471.313H104.286C104.909 471.313 105.527 471.19 106.103 470.952C106.679 470.713 107.203 470.363 107.644 469.922C108.085 469.481 108.434 468.958 108.673 468.382C108.912 467.806 109.034 467.188 109.034 466.565V376.702C109.034 376.078 108.912 375.46 108.673 374.884C108.434 374.308 108.085 373.785 107.644 373.344C107.203 372.903 106.679 372.553 106.103 372.315C105.527 372.076 104.909 371.953 104.286 371.953Z" fill="#2F2E41"/>
<path d="M112.095 284.471C108.317 279.588 103.106 276.008 97.1923 274.232C91.2786 272.457 84.9577 272.574 79.114 274.568C73.2702 276.562 68.1961 280.333 64.6014 285.353C61.0067 290.374 59.0713 296.392 59.066 302.567V382.151C59.063 382.393 59.0826 382.636 59.1245 382.874C59.2979 384.092 59.9045 385.206 60.833 386.013C61.7616 386.819 62.9498 387.264 64.1797 387.265H113.177C114.532 387.262 115.831 386.722 116.79 385.764C117.748 384.806 118.288 383.506 118.291 382.151V302.567C118.3 296.013 116.119 289.644 112.095 284.471Z" fill="#F6AC25"/>
<path d="M122.139 242.157L122.099 240.696C124.817 240.62 127.213 240.449 129.014 239.134C129.524 238.74 129.944 238.24 130.244 237.669C130.544 237.099 130.718 236.47 130.753 235.826C130.785 235.432 130.725 235.037 130.579 234.67C130.433 234.303 130.205 233.975 129.911 233.711C128.716 232.702 126.793 233.028 125.391 233.671L124.182 234.226L126.5 217.284L127.948 217.483L125.976 231.893C127.88 231.333 129.645 231.575 130.854 232.595C131.319 233.001 131.683 233.508 131.918 234.077C132.154 234.646 132.255 235.262 132.213 235.877C132.171 236.742 131.939 237.588 131.536 238.354C131.132 239.121 130.565 239.789 129.876 240.314C127.562 242.005 124.555 242.089 122.139 242.157Z" fill="#2F2E41"/>
<path d="M118.136 218.725H110.267V220.186H118.136V218.725Z" fill="#2F2E41"/>
<path d="M77.6576 285.597C77.2358 285.136 76.7267 284.764 76.1599 284.502C75.593 284.24 74.9797 284.093 74.3556 284.07L65.8595 283.719L63.5873 283.624C62.3294 283.573 61.1025 284.022 60.1754 284.874C59.2483 285.726 58.6967 286.91 58.6416 288.168L57.2976 320.545L54.9233 377.958C54.8749 379.156 55.2807 380.328 56.0596 381.24C56.8385 382.151 57.9329 382.735 59.1239 382.874C59.2409 382.889 59.3504 382.896 59.4674 382.904L65.9691 383.174L70.2428 383.349C70.585 383.365 70.9279 383.342 71.2655 383.284C72.158 383.124 72.9866 382.713 73.6543 382.1C74.1149 381.678 74.4871 381.169 74.7492 380.602C75.0113 380.035 75.158 379.422 75.181 378.798L75.466 371.953L77.5627 321.32L78.9068 289.008C78.9593 287.75 78.5099 286.523 77.6576 285.597Z" fill="#D38884"/>
<path d="M71.4337 278.511C70.5257 278.319 69.6001 278.223 68.6721 278.226C65.0891 278.23 61.654 279.655 59.1204 282.189C56.5868 284.722 55.1615 288.157 55.1572 291.741V316.579C55.1593 317.365 55.3558 318.139 55.7292 318.831C56.1027 319.523 56.6416 320.112 57.2978 320.545C57.8329 320.898 58.4346 321.136 59.0657 321.247C59.3426 321.3 59.6238 321.326 59.9057 321.327H77.4385C77.4801 321.329 77.5218 321.326 77.563 321.32C78.7997 321.288 79.9751 320.775 80.8388 319.889C81.7025 319.004 82.1863 317.816 82.187 316.579V291.741C82.1831 288.637 81.1126 285.628 79.1549 283.22C77.1972 280.811 74.4713 279.149 71.4337 278.511Z" fill="#F6AC25"/>
<path d="M165.075 349.247C163.929 348.656 163.029 347.678 162.534 346.487C162.04 345.296 161.982 343.968 162.371 342.738L166.528 329.508L165.315 328.5L133.413 302.106L112.096 284.471L109.503 282.323C108.533 281.52 107.284 281.135 106.03 281.253C104.777 281.371 103.621 281.982 102.818 282.952L95.9438 291.265C95.5452 291.745 95.2452 292.298 95.061 292.894C94.8768 293.49 94.812 294.117 94.8704 294.738C94.9288 295.359 95.1091 295.962 95.4011 296.513C95.6931 297.064 96.091 297.552 96.572 297.949L118.291 315.921L120.76 317.959L165.812 355.231C166.645 355.923 167.69 356.309 168.774 356.325C169.857 356.341 170.913 355.986 171.766 355.318C172.001 355.134 172.217 354.926 172.409 354.697C172.44 354.667 172.469 354.636 172.497 354.602L173.366 353.55L165.075 349.247Z" fill="#D38884"/>
<path d="M131.879 297.036L112.659 281.308C111.285 280.184 109.704 279.341 108.005 278.827C106.306 278.314 104.522 278.141 102.756 278.317C100.99 278.493 99.2759 279.015 97.7116 279.853C96.1472 280.692 94.7634 281.83 93.639 283.204C92.5146 284.577 91.6717 286.158 91.1585 287.857C90.6452 289.556 90.4717 291.34 90.6477 293.106C91.0032 296.673 92.761 299.952 95.5346 302.223L114.755 317.952C115.602 318.645 116.662 319.024 117.756 319.026C118.851 319.027 119.912 318.65 120.76 317.959C121.013 317.763 121.241 317.538 121.439 317.287L132.544 303.721C132.937 303.245 133.232 302.696 133.413 302.106C133.686 301.204 133.686 300.241 133.413 299.339C133.14 298.437 132.606 297.636 131.879 297.036Z" fill="#F6AC25"/>
<path d="M221.954 312.436L185.814 291.521C184.914 291.001 183.909 290.689 182.872 290.609C181.835 290.53 180.794 290.684 179.825 291.06C178.856 291.437 177.984 292.026 177.273 292.785C176.562 293.544 176.031 294.452 175.718 295.444L165.315 328.501L160.976 342.3C160.484 343.857 160.559 345.538 161.185 347.046C161.812 348.553 162.952 349.791 164.402 350.541L172.409 354.697L198.533 368.249C199.521 368.763 200.619 369.031 201.733 369.031C202.555 369.029 203.371 368.883 204.143 368.6L204.195 368.578C205.107 368.229 205.937 367.692 206.629 367.003C207.321 366.313 207.86 365.486 208.212 364.574L224.956 320.925C225.553 319.385 225.578 317.682 225.028 316.124C224.477 314.567 223.386 313.259 221.954 312.436ZM223.59 320.406L206.846 364.056C206.568 364.775 206.141 365.428 205.593 365.972C205.046 366.515 204.39 366.938 203.668 367.212L203.632 367.226C202.916 367.491 202.152 367.603 201.39 367.557C200.628 367.51 199.884 367.306 199.205 366.956L173.366 353.551L165.075 349.248C163.929 348.656 163.029 347.678 162.534 346.487C162.04 345.296 161.982 343.968 162.371 342.739L166.528 329.509L177.106 295.882C177.355 295.101 177.775 294.385 178.336 293.787C178.898 293.189 179.586 292.724 180.351 292.427C181.115 292.13 181.936 292.008 182.754 292.07C183.572 292.132 184.365 292.376 185.077 292.785L221.216 313.7C222.348 314.349 223.21 315.383 223.646 316.613C224.082 317.843 224.062 319.189 223.59 320.406Z" fill="#3F3D56"/>
<path d="M209.827 326.421C209.461 326.421 209.101 326.329 208.78 326.154L184.672 313.004C184.164 312.724 183.787 312.255 183.624 311.698C183.461 311.142 183.526 310.543 183.804 310.034C184.081 309.525 184.55 309.146 185.106 308.982C185.662 308.817 186.261 308.88 186.771 309.156L210.878 322.305C211.306 322.539 211.644 322.908 211.838 323.355C212.033 323.801 212.073 324.3 211.952 324.772C211.832 325.244 211.557 325.662 211.173 325.961C210.788 326.26 210.314 326.422 209.827 326.421Z" fill="#033649"/>
<path d="M205.443 335.918C205.077 335.918 204.717 335.826 204.396 335.651L180.288 322.501C179.78 322.222 179.403 321.752 179.24 321.195C179.078 320.639 179.142 320.04 179.42 319.531C179.698 319.022 180.166 318.643 180.722 318.479C181.278 318.314 181.877 318.377 182.387 318.653L206.495 331.802C206.922 332.036 207.26 332.405 207.455 332.852C207.649 333.298 207.689 333.797 207.569 334.269C207.448 334.741 207.174 335.159 206.789 335.458C206.404 335.757 205.931 335.919 205.443 335.918Z" fill="#033649"/>
<path d="M201.791 346.146C201.425 346.146 201.065 346.054 200.744 345.878L176.636 332.729C176.128 332.449 175.751 331.98 175.588 331.423C175.426 330.866 175.49 330.268 175.768 329.758C176.046 329.249 176.514 328.871 177.07 328.706C177.626 328.542 178.225 328.604 178.735 328.88L202.843 342.03C203.27 342.263 203.608 342.632 203.803 343.079C203.997 343.526 204.037 344.025 203.917 344.497C203.796 344.969 203.522 345.387 203.137 345.686C202.752 345.984 202.278 346.146 201.791 346.146Z" fill="#033649"/>
<path d="M456.728 139.198H355.382C353.926 139.196 352.529 138.617 351.499 137.587C350.469 136.557 349.889 135.16 349.888 133.703V5.49466C349.889 4.03789 350.469 2.64126 351.499 1.61117C352.529 0.581085 353.926 0.00165702 355.382 0H456.728C458.185 0.00166667 459.582 0.581098 460.612 1.61119C461.642 2.64127 462.221 4.03789 462.223 5.49466V133.703C462.221 135.16 461.642 136.557 460.612 137.587C459.582 138.617 458.185 139.196 456.728 139.198ZM355.382 1.22104C354.249 1.22231 353.163 1.67297 352.362 2.47416C351.561 3.27534 351.11 4.36161 351.109 5.49466V133.703C351.11 134.836 351.561 135.923 352.362 136.724C353.163 137.525 354.249 137.976 355.382 137.977H456.728C457.861 137.976 458.948 137.525 459.749 136.724C460.55 135.923 461.001 134.836 461.002 133.703V5.49466C461.001 4.36161 460.55 3.27534 459.749 2.47416C458.948 1.67297 457.861 1.22231 456.728 1.22104H355.382Z" fill="#3F3D56"/>
<path d="M397.625 61.6266H375.317C374.588 61.6258 373.89 61.3361 373.375 60.821C372.86 60.306 372.57 59.6077 372.569 58.8793V32.554C372.57 31.8256 372.86 31.1273 373.375 30.6122C373.89 30.0972 374.588 29.8074 375.317 29.8066H397.625C398.353 29.8074 399.052 30.0972 399.567 30.6122C400.082 31.1273 400.371 31.8256 400.372 32.554V58.8793C400.371 59.6077 400.082 60.306 399.567 60.821C399.052 61.3361 398.353 61.6258 397.625 61.6266Z" fill="#033649"/>
<path d="M440.972 73.8366H418.664C417.935 73.8357 417.237 73.546 416.722 73.031C416.207 72.5159 415.917 71.8176 415.916 71.0892V44.7639C415.917 44.0355 416.207 43.3372 416.722 42.8222C417.237 42.3071 417.935 42.0174 418.664 42.0166H440.972C441.7 42.0174 442.399 42.3071 442.914 42.8222C443.429 43.3372 443.718 44.0355 443.719 44.7639V71.0892C443.718 71.8176 443.429 72.5159 442.914 73.031C442.399 73.546 441.7 73.8357 440.972 73.8366Z" fill="#CCCCCC"/>
<path d="M406.174 111.078H383.866C383.137 111.077 382.439 110.787 381.924 110.272C381.409 109.757 381.119 109.059 381.118 108.33V82.0052C381.119 81.2768 381.409 80.5784 381.924 80.0634C382.439 79.5483 383.137 79.2586 383.866 79.2578H406.174C406.902 79.2586 407.601 79.5483 408.116 80.0634C408.631 80.5784 408.92 81.2768 408.921 82.0052V108.33C408.92 109.059 408.631 109.757 408.116 110.272C407.601 110.787 406.902 111.077 406.174 111.078Z" fill="#F6AC25"/>
<path d="M324.531 104.544C324.11 103.544 323.404 102.689 322.502 102.085C321.6 101.481 320.54 101.155 319.454 101.147H218.107C216.651 101.148 215.254 101.727 214.224 102.757C213.194 103.787 212.615 105.184 212.614 106.641V234.85C212.615 236.307 213.194 237.703 214.224 238.733C215.254 239.764 216.651 240.343 218.107 240.343H319.454C320.911 240.341 322.307 239.762 323.337 238.732C324.367 237.702 324.946 236.306 324.948 234.85V106.641C324.95 105.921 324.809 105.209 324.531 104.544ZM323.728 234.85C323.727 235.983 323.276 237.069 322.475 237.87C321.674 238.671 320.587 239.122 319.454 239.123H218.107C216.974 239.123 215.887 238.673 215.086 237.871C214.284 237.07 213.834 235.983 213.834 234.85V106.641C213.835 105.508 214.286 104.422 215.087 103.621C215.888 102.82 216.974 102.369 218.107 102.367H319.454C320.308 102.371 321.141 102.628 321.848 103.107C322.554 103.586 323.102 104.264 323.421 105.056C323.483 105.214 323.537 105.375 323.582 105.538C323.679 105.898 323.728 106.269 323.728 106.641V234.85Z" fill="#3F3D56"/>
<path d="M303.379 131.417H272.853C272.206 131.417 271.584 131.16 271.126 130.702C270.668 130.244 270.411 129.623 270.411 128.975C270.411 128.328 270.668 127.706 271.126 127.248C271.584 126.79 272.206 126.533 272.853 126.533H303.379C304.027 126.533 304.648 126.79 305.106 127.248C305.564 127.706 305.821 128.328 305.821 128.975C305.821 129.623 305.564 130.244 305.106 130.702C304.648 131.16 304.027 131.417 303.379 131.417Z" fill="#F6AC25"/>
<path d="M303.379 144.238H272.853C272.206 144.238 271.584 143.98 271.126 143.522C270.668 143.064 270.411 142.443 270.411 141.796C270.411 141.148 270.668 140.527 271.126 140.069C271.584 139.611 272.206 139.354 272.853 139.354H303.379C304.027 139.354 304.648 139.611 305.106 140.069C305.564 140.527 305.821 141.148 305.821 141.796C305.821 142.443 305.564 143.064 305.106 143.522C304.648 143.98 304.027 144.238 303.379 144.238Z" fill="#F6AC25"/>
<path d="M257.191 151.538H234.883C234.154 151.537 233.456 151.247 232.941 150.732C232.426 150.217 232.136 149.519 232.135 148.79V122.465C232.136 121.737 232.426 121.038 232.941 120.523C233.456 120.008 234.154 119.719 234.883 119.718H257.191C257.919 119.719 258.618 120.008 259.133 120.523C259.648 121.038 259.937 121.737 259.938 122.465V148.79C259.937 149.519 259.648 150.217 259.133 150.732C258.618 151.247 257.919 151.537 257.191 151.538Z" fill="#033649"/>
<path d="M303.168 170.491H234.179C233.858 170.491 233.54 170.428 233.243 170.306C232.947 170.183 232.677 170.004 232.45 169.777C232.222 169.55 232.042 169.281 231.919 168.984C231.796 168.687 231.733 168.37 231.733 168.049C231.733 167.727 231.796 167.41 231.919 167.113C232.042 166.816 232.222 166.547 232.45 166.32C232.677 166.093 232.947 165.914 233.243 165.791C233.54 165.669 233.858 165.606 234.179 165.606H303.168C303.815 165.608 304.435 165.865 304.892 166.323C305.349 166.781 305.606 167.402 305.606 168.049C305.606 168.695 305.349 169.316 304.892 169.774C304.435 170.232 303.815 170.489 303.168 170.491Z" fill="#CCCCCC"/>
<path d="M303.168 183.312H234.179C233.858 183.312 233.54 183.25 233.243 183.127C232.947 183.005 232.677 182.825 232.45 182.598C232.222 182.371 232.042 182.102 231.919 181.805C231.796 181.509 231.733 181.191 231.733 180.87C231.733 180.549 231.796 180.231 231.919 179.934C232.042 179.638 232.222 179.368 232.45 179.142C232.677 178.915 232.947 178.735 233.243 178.612C233.54 178.49 233.858 178.427 234.179 178.428H303.168C303.815 178.428 304.437 178.685 304.895 179.143C305.353 179.601 305.61 180.222 305.61 180.87C305.61 181.517 305.353 182.139 304.895 182.597C304.437 183.055 303.815 183.312 303.168 183.312Z" fill="#CCCCCC"/>
<path d="M303.168 196.132H234.179C233.858 196.133 233.54 196.07 233.243 195.948C232.947 195.825 232.677 195.645 232.45 195.418C232.222 195.192 232.042 194.922 231.919 194.626C231.796 194.329 231.733 194.011 231.733 193.69C231.733 193.369 231.796 193.051 231.919 192.755C232.042 192.458 232.222 192.189 232.45 191.962C232.677 191.735 232.947 191.555 233.243 191.433C233.54 191.31 233.858 191.247 234.179 191.248H303.168C303.815 191.248 304.437 191.505 304.895 191.963C305.353 192.421 305.61 193.042 305.61 193.69C305.61 194.338 305.353 194.959 304.895 195.417C304.437 195.875 303.815 196.132 303.168 196.132Z" fill="#CCCCCC"/>
<path d="M303.168 208.953H234.179C233.858 208.954 233.54 208.891 233.243 208.769C232.947 208.646 232.677 208.467 232.45 208.24C232.222 208.013 232.042 207.743 231.919 207.447C231.796 207.15 231.733 206.832 231.733 206.511C231.733 206.19 231.796 205.872 231.919 205.576C232.042 205.279 232.222 205.01 232.45 204.783C232.677 204.556 232.947 204.377 233.243 204.254C233.54 204.132 233.858 204.069 234.179 204.069H303.168C303.815 204.069 304.437 204.327 304.895 204.785C305.353 205.243 305.61 205.864 305.61 206.511C305.61 207.159 305.353 207.78 304.895 208.238C304.437 208.696 303.815 208.953 303.168 208.953Z" fill="#CCCCCC"/>
<path d="M303.168 221.773H234.179C233.858 221.773 233.54 221.711 233.243 221.588C232.947 221.466 232.677 221.286 232.45 221.059C232.222 220.832 232.042 220.563 231.919 220.266C231.796 219.97 231.733 219.652 231.733 219.331C231.733 219.01 231.796 218.692 231.919 218.395C232.042 218.099 232.222 217.829 232.45 217.602C232.677 217.376 232.947 217.196 233.243 217.073C233.54 216.951 233.858 216.888 234.179 216.889H303.168C303.815 216.89 304.435 217.148 304.892 217.605C305.349 218.063 305.606 218.684 305.606 219.331C305.606 219.978 305.349 220.598 304.892 221.056C304.435 221.514 303.815 221.772 303.168 221.773Z" fill="#CCCCCC"/>
<path d="M401.349 153.2L343.574 208.205L344.416 209.09L402.191 154.084L401.349 153.2Z" fill="#E6E6E6"/>
<path d="M343.035 209.559L350.368 209.473L350.355 208.251L344.334 208.323L344.702 202.314L343.482 202.24L343.035 209.559Z" fill="#E6E6E6"/>
<path d="M402.729 152.728L402.283 160.047L401.063 159.974L401.43 153.964L395.41 154.037L395.397 152.815L402.729 152.728Z" fill="#E6E6E6"/>
<path d="M372.885 187.86C376.594 187.86 379.6 184.853 379.6 181.144C379.6 177.435 376.594 174.429 372.885 174.429C369.176 174.429 366.169 177.435 366.169 181.144C366.169 184.853 369.176 187.86 372.885 187.86Z" fill="#E6E6E6"/>
<path d="M323.912 23.1637L266.138 78.1689L266.98 79.0534L324.755 24.0482L323.912 23.1637Z" fill="#E6E6E6"/>
<path d="M265.599 79.5233L272.932 79.4371L272.919 78.2149L266.898 78.2873L267.266 72.2779L266.046 72.2041L265.599 79.5233Z" fill="#E6E6E6"/>
<path d="M325.292 22.6924L324.846 30.0123L323.626 29.9393L323.994 23.9292L317.974 24.0015L317.96 22.78L325.292 22.6924Z" fill="#E6E6E6"/>
<path d="M295.448 57.825C299.157 57.825 302.164 54.8182 302.164 51.1093C302.164 47.4003 299.157 44.3936 295.448 44.3936C291.739 44.3936 288.732 47.4003 288.732 51.1093C288.732 54.8182 291.739 57.825 295.448 57.825Z" fill="#E6E6E6"/>
<path d="M555.157 380.544H553.696V387.119H555.157V380.544Z" fill="#3F3D56"/>
</g>
<defs>
<clipPath id="clip0_2080_2288">
<rect width="653" height="471.644" fill="white"/>
</clipPath>
</defs>
</svg>
